<?xml version="1.0" standalone="no"?>
<!DOCTYPE svg PUBLIC "-//W3C//DTD SVG 1.1//EN" "http://www.w3.org/Graphics/SVG/1.1/DTD/svg11.dtd" >
<svg xmlns="http://www.w3.org/2000/svg">
  <metadata>Created by iconfont</metadata>
  <defs>
  <font id="GeneeUI" horiz-adv-x="1024">
    <font-face
      font-family="GeneeUI"
      font-weight="400"
      font-stretch="normal"
      units-per-em="1024"
      ascent="896"
      descent="-128"
    />
      <missing-glyph />
      
      <glyph glyph-name="tips02" unicode="&#59397;" d="M180.138667 715.861333A468.010667 468.010667 0 0 0 512 853.333333c129.578667 0 246.997333-52.565333 331.861333-137.472A468.010667 468.010667 0 0 0 981.333333 384c0-129.578667-52.565333-246.997333-137.472-331.861333A468.010667 468.010667 0 0 0 512-85.333333a468.010667 468.010667 0 0 0-331.861333 137.472A468.010667 468.010667 0 0 0 42.666667 384c0 129.578667 52.565333 246.997333 137.472 331.861333zM565.333333 629.333333a53.333333 53.333333 0 1 1-106.666666 0 53.333333 53.333333 0 0 1 106.666666 0z m-128-138.666666a42.666667 42.666667 0 0 1 42.666667-42.666667v-213.333333h-32a42.666667 42.666667 0 1 1 0-85.333334H597.333333a42.666667 42.666667 0 1 1 0 85.333334h-32v256a42.666667 42.666667 0 0 1-42.666666 42.666666h-42.666667a42.666667 42.666667 0 0 1-42.666667-42.666666z"  horiz-adv-x="1024" />
      
      <glyph glyph-name="warn1" unicode="&#59396;" d="M512 853.333333a468.010667 468.010667 0 0 1-331.861333-137.472A468.010667 468.010667 0 0 1 42.666667 384c0-129.578667 52.565333-246.997333 137.472-331.861333A468.010667 468.010667 0 0 1 512-85.333333c129.578667 0 246.997333 52.565333 331.861333 137.472A468.010667 468.010667 0 0 1 981.333333 384c0 129.578667-52.565333 246.997333-137.472 331.861333A468.010667 468.010667 0 0 1 512 853.333333z m0-746.666666a53.333333 53.333333 0 1 0 0 106.666666 53.333333 53.333333 0 0 0 0-106.666666z m42.666667 512V298.666667a42.666667 42.666667 0 1 0-85.333334 0V618.666667a42.666667 42.666667 0 1 0 85.333334 0z"  horiz-adv-x="1024" />
      
      <glyph glyph-name="success" unicode="&#59395;" d="M180.138667 715.861333A468.010667 468.010667 0 0 0 512 853.333333c129.578667 0 246.997333-52.565333 331.861333-137.472A468.010667 468.010667 0 0 0 981.333333 384c0-129.578667-52.565333-246.997333-137.472-331.861333A468.010667 468.010667 0 0 0 512-85.333333a468.010667 468.010667 0 0 0-331.861333 137.472A468.010667 468.010667 0 0 0 42.666667 384c0 129.578667 52.565333 246.997333 137.472 331.861333z m575.36-234.026666a42.666667 42.666667 0 0 1-60.330667 60.330666L469.333333 316.330667l-97.834666 97.834666a42.666667 42.666667 0 0 1-60.330667-60.330666l128-128a42.666667 42.666667 0 0 1 60.330667 0l256 256z"  horiz-adv-x="1024" />
      
      <glyph glyph-name="trunk" unicode="&#59394;" d="M256 768a42.666667 42.666667 0 0 1-42.666667-42.666667v-42.666666H170.666667a42.666667 42.666667 0 0 1 0-85.333334h42.666666v-170.666666H42.666667a42.666667 42.666667 0 1 1 0-85.333334h213.333333a42.666667 42.666667 0 0 1 42.666667 42.666667V682.666667h320v-490.666667H376.746667a128.042667 128.042667 0 0 1-241.493334 0H106.666667v42.666667a42.666667 42.666667 0 1 1-85.333334 0v-85.333334a42.666667 42.666667 0 0 1 42.666667-42.666666h71.253333a128.042667 128.042667 0 0 1 241.493334 0h249.173333a128.042667 128.042667 0 0 1 241.493333 0H981.333333a42.666667 42.666667 0 0 1 42.666667 42.666666v181.333334a42.666667 42.666667 0 0 1-6.272 22.272l-137.173333 224A42.666667 42.666667 0 0 1 844.245333 597.333333H704V725.333333a42.666667 42.666667 0 0 1-42.666667 42.666667H256z m490.666667-661.333333a42.666667 42.666667 0 1 0 0 85.333333 42.666667 42.666667 0 0 0 0-85.333333z m192 85.333333h-71.253334a128.042667 128.042667 0 0 1-163.413333 78.08V341.333333h220.757333l13.909334-22.698666V192zM872.533333 426.666667H704V512h116.266667l52.266666-85.333333zM298.666667 149.333333a42.666667 42.666667 0 1 0-85.333334 0 42.666667 42.666667 0 0 0 85.333334 0zM0 512a42.666667 42.666667 0 0 0 42.666667 42.666667h106.666666a42.666667 42.666667 0 1 0 0-85.333334H42.666667a42.666667 42.666667 0 0 0-42.666667 42.666667zM64 597.333333a42.666667 42.666667 0 1 1 0 85.333334 42.666667 42.666667 0 0 1 0-85.333334z"  horiz-adv-x="1024" />
      
      <glyph glyph-name="up02" unicode="&#59315;" d="M542.165333 499.498667a42.666667 42.666667 0 0 1-60.330666 0l-170.666667-170.666667A42.666667 42.666667 0 0 1 341.333333 256h341.333334a42.666667 42.666667 0 0 1 30.165333 72.832l-170.666667 170.666667z"  horiz-adv-x="1024" />
      
      <glyph glyph-name="right02" unicode="&#59316;" d="M456.832 584.832A42.666667 42.666667 0 0 1 384 554.666667v-341.333334a42.666667 42.666667 0 0 1 72.832-30.165333l170.666667 170.666667a42.666667 42.666667 0 0 1 0 60.330666l-170.666667 170.666667z"  horiz-adv-x="1024" />
      
      <glyph glyph-name="left02" unicode="&#59317;" d="M640 554.666667a42.666667 42.666667 0 0 1-72.832 30.165333l-170.666667-170.666667a42.666667 42.666667 0 0 1 0-60.330666l170.666667-170.666667A42.666667 42.666667 0 0 1 640 213.333333V554.666667z"  horiz-adv-x="1024" />
      
      <glyph glyph-name="right03" unicode="&#59318;" d="M396.501333 584.832a42.666667 42.666667 0 0 0 60.330667 0l170.666667-170.666667a42.666667 42.666667 0 0 0 0-60.330666l-170.666667-170.666667a42.666667 42.666667 0 0 0-60.330667 60.330667L537.002667 384 396.501333 524.501333a42.666667 42.666667 0 0 0 0 60.330667z"  horiz-adv-x="1024" />
      
      <glyph glyph-name="up03" unicode="&#59392;" d="M481.834667 499.498667a42.666667 42.666667 0 0 0 60.330666 0l170.666667-170.666667a42.666667 42.666667 0 0 0-60.330667-60.330667L512 409.002667l-140.501333-140.501334a42.666667 42.666667 0 0 0-60.330667 60.330667l170.666667 170.666667z"  horiz-adv-x="1024" />
      
      <glyph glyph-name="left03" unicode="&#59393;" d="M627.498667 584.832a42.666667 42.666667 0 0 0 0-60.330667L486.997333 384l140.501334-140.501333a42.666667 42.666667 0 0 0-60.330667-60.330667l-170.666667 170.666667a42.666667 42.666667 0 0 0 0 60.330666l170.666667 170.666667a42.666667 42.666667 0 0 0 60.330667 0z"  horiz-adv-x="1024" />
      
      <glyph glyph-name="location02" unicode="&#59391;" d="M149.333333 490.666667a362.666667 362.666667 0 1 0 725.333334 0c0-153.770667-87.893333-296.832-169.514667-397.525334a1278.976 1278.976 0 0 0-151.552-156.586666 721.493333 721.493333 0 0 0-13.738667-11.562667l-0.853333-0.682667-0.213333-0.213333h-0.085334s-0.042667-0.085333-26.709333 33.237333l-26.666667-33.28-0.128 0.085334-0.213333 0.170666-0.853333 0.682667a1127.466667 1127.466667 0 0 0-51.456 45.653333 1278.677333 1278.677333 0 0 0-113.834667 122.453334C237.226667 193.834667 149.333333 336.938667 149.333333 490.666667z m248.874667 0a113.792 113.792 0 1 1 227.584 0 113.792 113.792 0 0 1-227.584 0zM485.333333-75.946667a42.666667 42.666667 0 0 1 53.333334 0L512-42.666667l-26.666667-33.28z"  horiz-adv-x="1024" />
      
      <glyph glyph-name="batch_check" unicode="&#59390;" d="M328.832 716.501333a42.666667 42.666667 0 0 1-60.330667 60.330667L170.666667 678.997333l-33.834667 33.834667a42.666667 42.666667 0 0 1-60.330667-60.330667l64-64a42.666667 42.666667 0 0 1 60.330667 0l128 128zM328.832 417.834667a42.666667 42.666667 0 0 1-60.330667 60.330666L170.666667 380.330667l-33.834667 33.834666a42.666667 42.666667 0 0 1-60.330667-60.330666l64-64a42.666667 42.666667 0 0 1 60.330667 0l128 128zM328.832 179.498667a42.666667 42.666667 0 0 0 0-60.330667l-128-128a42.666667 42.666667 0 0 0-60.330667 0l-64 64a42.666667 42.666667 0 1 0 60.330667 60.330667l33.834667-33.834667 97.834666 97.834667a42.666667 42.666667 0 0 0 60.330667 0zM448 426.666667a42.666667 42.666667 0 1 1 0-85.333334h469.333333a42.666667 42.666667 0 1 1 0 85.333334h-469.333333zM405.333333 85.333333a42.666667 42.666667 0 0 0 42.666667 42.666667h469.333333a42.666667 42.666667 0 1 0 0-85.333333h-469.333333a42.666667 42.666667 0 0 0-42.666667 42.666666zM448 725.333333a42.666667 42.666667 0 1 1 0-85.333333h469.333333a42.666667 42.666667 0 1 1 0 85.333333h-469.333333z"  horiz-adv-x="1024" />
      
      <glyph glyph-name="download" unicode="&#59389;" d="M554.496 768a42.666667 42.666667 0 1 1-85.333333 0v-451.498667l-118.997334 119.04a42.666667 42.666667 0 0 1-60.330666-60.373333l189.568-189.610667c7.850667-9.088 19.456-14.890667 32.426666-14.890666h0.085334a42.538667 42.538667 0 0 1 30.293333 12.501333l192 192a42.666667 42.666667 0 0 1-60.373333 60.330667l-119.338667-119.338667V768zM896 298.666667a42.666667 42.666667 0 0 0 42.666667-42.666667v-256a42.666667 42.666667 0 0 0-42.666667-42.666667H128a42.666667 42.666667 0 0 0-42.666667 42.666667v255.829333a42.666667 42.666667 0 1 0 85.333334 0V42.666667h682.666666v213.333333a42.666667 42.666667 0 0 0 42.666667 42.666667z"  horiz-adv-x="1024" />
      
      <glyph glyph-name="find-in-list" unicode="&#59388;" d="M42.666667 746.666667a42.666667 42.666667 0 0 0 42.666666 42.666666h853.333334a42.666667 42.666667 0 1 0 0-85.333333H85.333333a42.666667 42.666667 0 0 0-42.666666 42.666667zM42.666667 405.333333a42.666667 42.666667 0 0 0 42.666666 42.666667h234.666667a42.666667 42.666667 0 1 0 0-85.333333H85.333333a42.666667 42.666667 0 0 0-42.666666 42.666666zM85.333333 106.66666699999996a42.666667 42.666667 0 1 1 0-85.333334h234.666667a42.666667 42.666667 0 1 1 0 85.333334H85.333333zM448 352a224 224 0 1 0 400.64-137.813333l120.32-121.173334a42.666667 42.666667 0 1 0-60.586667-60.16l-124.245333 125.184A224 224 0 0 0 448 352z m224 138.666667a138.666667 138.666667 0 1 1 0-277.333334 138.666667 138.666667 0 0 1 0 277.333334z"  horiz-adv-x="1024" />
      
      <glyph glyph-name="lineclass" unicode="&#59387;" d="M149.333333 768a85.333333 85.333333 0 0 1-85.333333-85.333333v-426.666667a85.333333 85.333333 0 0 1 85.333333-85.333333H896c36.821333 9.472 64 45.568 64 85.333333V682.666667a85.333333 85.333333 0 0 1-85.333333 85.333333h-725.333334z m582.826667-512H291.413333c27.349333 58.88 75.733333 109.482667 126.72 125.952a42.666667 42.666667 0 0 0 44.245334-11.434667l2.304-2.432a2559.914667 2559.914667 0 0 0 27.178666-29.44c6.485333-7.125333 13.653333-14.976 20.906667-23.04l48.896 54.272a42.666667 42.666667 0 0 0 37.290667 13.738667c31.317333-4.096 59.904-26.794667 80.725333-49.066667A307.84 307.84 0 0 0 732.16 256z m-219.861333 405.333333a138.666667 138.666667 0 1 0 0-277.333333 138.666667 138.666667 0 0 0 0 277.333333zM341.333333 85.33333300000004a42.666667 42.666667 0 1 1 0-85.333333h341.333334a42.666667 42.666667 0 1 1 0 85.333333H341.333333z"  horiz-adv-x="1024" />
      
      <glyph glyph-name="map-settings" unicode="&#59386;" d="M596.906667 626.858667c-4.949333 20.906667-5.333333 42.666667-1.152 63.701333a7.765333 7.765333 0 0 1-3.669334 8.277333l-30.037333 17.322667a8.533333 8.533333 0 0 0-3.114667 11.648l34.133334 59.136a8.533333 8.533333 0 0 0 11.648 3.114667l29.397333-16.981334a8.874667 8.874667 0 0 1 10.24 1.066667c14.378667 12.544 31.061333 22.186667 49.109333 28.416a8.874667 8.874667 0 0 1 6.058667 8.32V844.8c0 4.693333 3.84 8.533333 8.533333 8.533333h68.266667c4.693333 0 8.533333-3.84 8.533333-8.533333v-33.92c0-3.754667 2.474667-7.082667 6.058667-8.32 18.218667-6.314667 34.816-16 49.066667-28.416 2.858667-2.474667 6.954667-2.986667 10.24-1.066667l29.44 16.981334a8.533333 8.533333 0 0 0 11.648-3.114667l34.133333-59.093333a8.533333 8.533333 0 0 0-3.114667-11.648l-29.44-16.981334a8.874667 8.874667 0 0 1-4.138666-9.386666c3.626667-18.773333 3.626667-38.058667 0-56.789334a8.874667 8.874667 0 0 1 4.181333-9.386666l29.397333-16.981334a8.533333 8.533333 0 0 0 3.114667-11.648l-34.133333-59.093333a8.533333 8.533333 0 0 0-11.648-3.114667l-29.397334 16.938667a8.874667 8.874667 0 0 1-10.24-1.066667c-14.378667-12.544-31.061333-22.186667-49.109333-28.373333a8.874667 8.874667 0 0 1-6.058667-8.32v-33.962667a8.533333 8.533333 0 0 0-8.533333-8.533333h-68.266667a8.533333 8.533333 0 0 0-8.533333 8.533333v34.005334a8.874667 8.874667 0 0 1-6.058667 8.32 149.077333 149.077333 0 0 0-49.152 28.373333 8.874667 8.874667 0 0 1-10.24 1.066667l-29.354666-16.938667a8.533333 8.533333 0 0 0-11.648 3.114667l-34.133334 59.050666a8.533333 8.533333 0 0 0 3.114667 11.648l34.901333 20.181334z m170.496-25.216a64 64 0 1 1-45.738667 119.552A64 64 0 0 1 767.402667 601.6zM384 810.666667a42.538667 42.538667 0 0 1-17.28-3.669334l-255.146667-106.24A42.496 42.496 0 0 1 85.333333 660.352V21.33333300000004a42.666667 42.666667 0 0 1 59.093334-39.381333L382.378667 81.06666700000005l237.781333-118.869334a42.453333 42.453333 0 0 1 19.669333-4.906666h0.426667a42.581333 42.581333 0 0 1 17.066667 3.626666l255.104 106.325334A42.666667 42.666667 0 0 1 938.666667 106.66666699999996V475.605333c0 7.893333-10.112 11.733333-15.786667 6.186667a265.813333 265.813333 0 0 0-186.88-76.458667 265.429333 265.429333 0 0 0-125.44 31.317334c-5.888 3.114667-13.226667-1.024-13.226667-7.68v-359.936l-170.666666 85.333333V698.965333l2.261333-1.109333a42.581333 42.581333 0 0 1 57.216 19.072 42.666667 42.666667 0 0 1-19.072 57.216l-63.232 31.616A42.496 42.496 0 0 1 384 810.666667z"  horiz-adv-x="1024" />
      
      <glyph glyph-name="add-favorite" unicode="&#59385;" d="M768 298.66666699999996a42.666667 42.666667 0 0 0 42.666667-42.666667v-85.333333h85.333333a42.666667 42.666667 0 1 0 0-85.333334h-85.333333v-85.333333a42.666667 42.666667 0 1 0-85.333334 0v85.333333h-85.333333a42.666667 42.666667 0 1 0 0 85.333334h85.333333v85.333333a42.666667 42.666667 0 0 0 42.666667 42.666667z m95.701333 394.368a256.042667 256.042667 0 0 0 21.632-337.493334 256 256 0 0 1-343.936-346.752l-14.336-14.378666a21.333333 21.333333 0 0 0-30.208 0l-346.624 347.221333a256 256 0 0 0 361.813334 361.130667 255.914667 255.914667 0 0 0 351.658666-9.728z"  horiz-adv-x="1024" />
      
      <glyph glyph-name="pie2" unicode="&#59384;" d="M512 853.333333a42.666667 42.666667 0 0 1-42.666667-42.666666v-426.666667a42.666667 42.666667 0 0 1 42.666667-42.666667h426.666667a42.666667 42.666667 0 0 1 42.666666 42.666667c0 259.2-210.133333 469.333333-469.333333 469.333333zM332.373333 817.706667a42.666667 42.666667 0 0 0 39.637334-3.669334c4.693333-3.114667 6.826667-8.746667 6.826666-14.421333v-501.333333a42.666667 42.666667 0 0 1 42.282667-42.666667l506.624-4.693333c5.589333-0.042667 11.136-2.133333 14.208-6.826667a42.666667 42.666667 0 0 0 3.754667-39.765333 469.930667 469.930667 0 0 0-101.845334-152.192A468.010667 468.010667 0 0 0 512-85.333333C252.8-85.333333 42.666667 124.8 42.666667 384c0 129.578667 52.565333 246.997333 137.472 331.861333a469.930667 469.930667 0 0 0 152.192 101.845334z"  horiz-adv-x="1024" />
      
      <glyph glyph-name="tag2" unicode="&#59381;" d="M128 725.333333a42.666667 42.666667 0 0 0 42.666667 42.666667h384a42.666667 42.666667 0 0 0 30.165333-12.501333l345.045333-345.045334a119.466667 119.466667 0 0 0 0-168.448l-0.085333-0.085333-275.328-275.285333a119.509333 119.509333 0 0 0-169.045333 0l-344.917334 344.533333A42.666667 42.666667 0 0 0 128 341.333333V725.333333z m320-224a53.333333 53.333333 0 1 1-106.666667 0 53.333333 53.333333 0 0 1 106.666667 0z"  horiz-adv-x="1024" />
      
      <glyph glyph-name="favorites" unicode="&#59383;" d="M149.333333 810.666667a85.333333 85.333333 0 0 1-85.333333-85.333334v-682.666666a85.333333 85.333333 0 0 1 85.333333-85.333334h725.333334a85.333333 85.333333 0 0 1 85.333333 85.333334V597.333333a85.333333 85.333333 0 0 1-85.333333 85.333334h-342.698667l-93.866667 112.64A42.666667 42.666667 0 0 1 405.333333 810.666667h-256z m219.349334-496.682667a96 96 0 1 0 135.765333 135.765333l7.552-7.552 7.552 7.552a96 96 0 1 0 135.765333-135.765333L512 170.66666699999996l-143.317333 143.317333z"  horiz-adv-x="1024" />
      
      <glyph glyph-name="add-folder" unicode="&#59379;" d="M64 725.333333a85.333333 85.333333 0 0 0 85.333333 85.333334h256a42.666667 42.666667 0 0 0 32.768-15.36l93.866667-112.64H874.666667a85.333333 85.333333 0 0 0 85.333333-85.333334v-554.666666a85.333333 85.333333 0 0 0-85.333333-85.333334h-725.333334a85.333333 85.333333 0 0 0-85.333333 85.333334V725.333333zM512 490.666667a42.666667 42.666667 0 0 1-42.666667-42.666667v-85.333333H384a42.666667 42.666667 0 1 1 0-85.333334h85.333333v-85.333333a42.666667 42.666667 0 1 1 85.333334 0v85.333333h85.333333a42.666667 42.666667 0 1 1 0 85.333334h-85.333333v85.333333a42.666667 42.666667 0 0 1-42.666667 42.666667z"  horiz-adv-x="1024" />
      
      <glyph glyph-name="practice" unicode="&#59380;" d="M676.138667 810.666667a42.666667 42.666667 0 0 0 30.208-12.501334l155.818666-155.904a42.666667 42.666667 0 0 0 0-60.330666l-51.882666-51.882667-216.149334 216.192 51.84 51.925333A42.666667 42.666667 0 0 0 676.138667 810.666667zM533.802667 685.866667l-329.344-329.728a42.666667 42.666667 0 0 1-12.458667-30.165334V170.666667a42.666667 42.666667 0 0 1 42.666667-42.666667h156.117333a42.666667 42.666667 0 0 1 30.165333 12.501333l329.045334 329.173334-216.192 216.192zM106.666667 0a42.666667 42.666667 0 0 0 42.666666 42.666667h768a42.666667 42.666667 0 1 0 0-85.333334h-768a42.666667 42.666667 0 0 0-42.666666 42.666667zM597.333333 213.333333a42.666667 42.666667 0 1 1 0-85.333333h320a42.666667 42.666667 0 1 1 0 85.333333H597.333333z"  horiz-adv-x="1024" />
      
      <glyph glyph-name="exam4" unicode="&#59382;" d="M834.048 842.410667a37.333333 37.333333 0 0 1-52.821333 0l-45.397334-45.44 189.184-189.184 45.397334 45.397333a37.333333 37.333333 0 0 1 0 52.778667l-136.362667 136.448zM394.922667 455.594667L683.093333 744.106667l189.141334-189.141334-287.914667-288a37.333333 37.333333 0 0 0-26.410667-10.965333H421.333333A37.333333 37.333333 0 0 0 384 293.33333300000004V429.226667c0 9.898667 3.925333 19.370667 10.922667 26.368zM469.333333 810.666667a42.666667 42.666667 0 1 0 0-85.333334H256a42.666667 42.666667 0 0 1-42.368-37.674666L213.333333 682.666667v-426.666667a42.666667 42.666667 0 1 0-85.333333 0V682.666667a128 128 0 0 0 128 128h213.333333zM810.666667 341.33333300000004a42.666667 42.666667 0 1 0 85.333333 0v-298.666666a128 128 0 0 0-128-128H170.666667a128 128 0 0 0-128 128v42.666666a42.666667 42.666667 0 0 0 42.666666 42.666667h597.333334a42.666667 42.666667 0 0 0 42.666666-42.666667v-42.666666a42.666667 42.666667 0 0 1 37.674667-42.368L768 0a42.666667 42.666667 0 0 1 42.368 37.674667L810.666667 42.66666699999996v298.666666z"  horiz-adv-x="1024" />
      
      <glyph glyph-name="gallery2" unicode="&#59374;" d="M288 640a74.666667 74.666667 0 1 1 0-149.333333 74.666667 74.666667 0 0 1 0 149.333333zM64 682.666667a85.333333 85.333333 0 0 0 85.333333 85.333333h725.333334a85.333333 85.333333 0 0 0 85.333333-85.333333v-597.333334a85.333333 85.333333 0 0 0-85.333333-85.333333h-725.333334a85.333333 85.333333 0 0 0-85.333333 85.333333V682.666667z m810.666667-425.642667V682.666667h-725.333334v-409.002667l140.501334 140.501333a42.666667 42.666667 0 0 0 56.832 3.157334l74.453333-59.562667 101.12 118.016a42.666667 42.666667 0 0 0 58.325333 6.101333l294.101334-224.853333z"  horiz-adv-x="1024" />
      
      <glyph glyph-name="booklet_money" unicode="&#59372;" d="M256 853.333333a85.333333 85.333333 0 0 1-85.333333-85.333333v-128H128a42.666667 42.666667 0 0 1 0-85.333333h42.666667v-128H128a42.666667 42.666667 0 1 1 0-85.333334h42.666667v-128H128a42.666667 42.666667 0 1 1 0-85.333333h42.666667v-128a85.333333 85.333333 0 0 1 85.333333-85.333333h597.333333a85.333333 85.333333 0 0 1 85.333334 85.333333V768a85.333333 85.333333 0 0 1-85.333334 85.333333H256z m161.834667-268.501333a42.666667 42.666667 0 0 0 60.330666 0L554.666667 508.330667l76.501333 76.501333a42.666667 42.666667 0 1 0 60.330667-60.330667L636.330667 469.333333H682.666667a42.666667 42.666667 0 1 0 0-85.333333h-85.333334v-42.666667h85.333334a42.666667 42.666667 0 1 0 0-85.333333h-85.333334v-42.666667a42.666667 42.666667 0 1 0-85.333333 0v42.666667h-85.333333a42.666667 42.666667 0 1 0 0 85.333333h85.333333v42.666667h-85.333333a42.666667 42.666667 0 1 0 0 85.333333h46.336L417.834667 524.501333a42.666667 42.666667 0 0 0 0 60.330667z"  horiz-adv-x="1024" />
      
      <glyph glyph-name="histogram" unicode="&#59373;" d="M426.666667 810.666667a42.666667 42.666667 0 0 1-42.666667-42.666667v-768a42.666667 42.666667 0 0 1 42.666667-42.666667h170.666666a42.666667 42.666667 0 0 1 42.666667 42.666667V768a42.666667 42.666667 0 0 1-42.666667 42.666667h-170.666666zM85.333333 341.33333300000004a42.666667 42.666667 0 0 1-42.666666-42.666666v-298.666667a42.666667 42.666667 0 0 1 42.666666-42.666667h170.666667a42.666667 42.666667 0 0 1 42.666667 42.666667v298.666667a42.666667 42.666667 0 0 1-42.666667 42.666666H85.333333zM768 597.333333a42.666667 42.666667 0 0 1-42.666667-42.666666v-554.666667a42.666667 42.666667 0 0 1 42.666667-42.666667h170.666667a42.666667 42.666667 0 0 1 42.666666 42.666667V554.666667a42.666667 42.666667 0 0 1-42.666666 42.666666h-170.666667z"  horiz-adv-x="1024" />
      
      <glyph glyph-name="booklet_income" unicode="&#59375;" d="M256 853.333333a85.333333 85.333333 0 0 1-85.333333-85.333333v-128H128a42.666667 42.666667 0 0 1 0-85.333333h42.666667v-128H128a42.666667 42.666667 0 1 1 0-85.333334h42.666667v-128H128a42.666667 42.666667 0 1 1 0-85.333333h42.666667v-128a85.333333 85.333333 0 0 1 85.333333-85.333333h597.333333a85.333333 85.333333 0 0 1 85.333334 85.333333v16.554667c0 6.784-7.552 10.922667-13.525334 7.765333a179.626667 179.626667 0 1 0 0 317.44c5.973333-3.157333 13.525333 0.981333 13.525334 7.765333V768a85.333333 85.333333 0 0 1-85.333334 85.333333H256z m85.333333-298.666666V640a42.666667 42.666667 0 0 0 42.666667 42.666667h85.333333a42.666667 42.666667 0 0 0 42.666667-42.666667v-85.333333a42.666667 42.666667 0 0 0-42.666667-42.666667H384a42.666667 42.666667 0 0 0-42.666667 42.666667z m0-213.333334v85.333334a42.666667 42.666667 0 0 0 42.666667 42.666666h85.333333a42.666667 42.666667 0 0 0 42.666667-42.666666v-85.333334a42.666667 42.666667 0 0 0-42.666667-42.666666H384a42.666667 42.666667 0 0 0-42.666667 42.666666z m0-213.333333v85.333333a42.666667 42.666667 0 0 0 42.666667 42.666667h85.333333a42.666667 42.666667 0 0 0 42.666667-42.666667v-85.333333a42.666667 42.666667 0 0 0-42.666667-42.666667H384a42.666667 42.666667 0 0 0-42.666667 42.666667z m213.333334 298.666667a42.666667 42.666667 0 0 0 42.666666 42.666666h85.333334a42.666667 42.666667 0 0 0 42.666666-42.666666v-85.333334a42.666667 42.666667 0 0 0-42.666666-42.666666h-85.333334a42.666667 42.666667 0 0 0-42.666666 42.666666v85.333334zM727.765333 177.024a8.533333 8.533333 0 0 0 0 11.946667l105.173334 107.093333a8.533333 8.533333 0 0 0 14.634666-5.973333v-64.426667h119.125334c4.693333 0 8.533333-3.84 8.533333-8.533333v-68.266667a8.533333 8.533333 0 0 0-8.533333-8.533333h-119.125334v-64.469334a8.533333 8.533333 0 0 0-14.634666-5.973333l-105.173334 107.093333z"  horiz-adv-x="1024" />
      
      <glyph glyph-name="booklet_bottle" unicode="&#59376;" d="M533.333333 401.066667a4.266667 4.266667 0 0 0 4.266667 4.266666h34.133333a4.266667 4.266667 0 0 0 4.266667-4.266666v-38.4h38.4a4.266667 4.266667 0 0 0 4.266667-4.266667v-34.133333a4.266667 4.266667 0 0 0-4.266667-4.266667h-38.4v-38.4a4.266667 4.266667 0 0 0-4.266667-4.266667h-34.133333a4.266667 4.266667 0 0 0-4.266667 4.266667v38.4h-38.4a4.266667 4.266667 0 0 0-4.266666 4.266667v34.133333a4.266667 4.266667 0 0 0 4.266666 4.266667h38.4v38.4zM256 853.333333a85.333333 85.333333 0 0 1-85.333333-85.333333v-128H128a42.666667 42.666667 0 0 1 0-85.333333h42.666667v-128H128a42.666667 42.666667 0 1 1 0-85.333334h42.666667v-128H128a42.666667 42.666667 0 1 1 0-85.333333h42.666667v-128a85.333333 85.333333 0 0 1 85.333333-85.333333h597.333333a85.333333 85.333333 0 0 1 85.333334 85.333333V768a85.333333 85.333333 0 0 1-85.333334 85.333333H256z m405.333333-328.533333v-34.133333A64 64 0 0 0 725.333333 426.666667v-234.666667a21.333333 21.333333 0 0 0-21.333333-21.333333h-298.666667a21.333333 21.333333 0 0 0-21.333333 21.333333V426.666667a64 64 0 0 0 64 64v34.133333c0 4.693333 3.84 8.533333 8.533333 8.533333h196.266667c4.693333 0 8.533333-3.84 8.533333-8.533333z m42.666667 51.2a21.333333 21.333333 0 0 0-21.333333-21.333333h-256a21.333333 21.333333 0 0 0 0 42.666666h256a21.333333 21.333333 0 0 0 21.333333-21.333333z"  horiz-adv-x="1024" />
      
      <glyph glyph-name="booklet_out" unicode="&#59377;" d="M256 853.333333a85.333333 85.333333 0 0 1-85.333333-85.333333v-128H128a42.666667 42.666667 0 0 1 0-85.333333h42.666667v-128H128a42.666667 42.666667 0 1 1 0-85.333334h42.666667v-128H128a42.666667 42.666667 0 1 1 0-85.333333h42.666667v-128a85.333333 85.333333 0 0 1 85.333333-85.333333h597.333333a85.333333 85.333333 0 0 1 85.333334 85.333333v16.554667c0 6.784-7.552 10.922667-13.525334 7.765333a179.626667 179.626667 0 1 0 0 317.44c5.973333-3.157333 13.525333 0.981333 13.525334 7.765333V768a85.333333 85.333333 0 0 1-85.333334 85.333333H256z m85.333333-512v85.333334a42.666667 42.666667 0 0 0 42.666667 42.666666h85.333333a42.666667 42.666667 0 0 0 42.666667-42.666666v-85.333334a42.666667 42.666667 0 0 0-42.666667-42.666666H384a42.666667 42.666667 0 0 0-42.666667 42.666666z m0-213.333333v85.333333a42.666667 42.666667 0 0 0 42.666667 42.666667h85.333333a42.666667 42.666667 0 0 0 42.666667-42.666667v-85.333333a42.666667 42.666667 0 0 0-42.666667-42.666667H384a42.666667 42.666667 0 0 0-42.666667 42.666667zM972.8 177.024a8.533333 8.533333 0 0 1 0 11.946667l-105.173333 107.093333a8.533333 8.533333 0 0 1-14.592-5.973333v-64.426667H733.866667a8.533333 8.533333 0 0 1-8.533334-8.533333v-68.266667c0-4.693333 3.84-8.533333 8.533334-8.533333h119.168v-64.469334a8.533333 8.533333 0 0 1 14.592-5.973333l105.173333 107.093333z"  horiz-adv-x="1024" />
      
      <glyph glyph-name="booklet_stock" unicode="&#59378;" d="M256 853.333333a85.333333 85.333333 0 0 1-85.333333-85.333333v-128H128a42.666667 42.666667 0 0 1 0-85.333333h42.666667v-128H128a42.666667 42.666667 0 1 1 0-85.333334h42.666667v-128H128a42.666667 42.666667 0 1 1 0-85.333333h42.666667v-128a85.333333 85.333333 0 0 1 85.333333-85.333333h597.333333a85.333333 85.333333 0 0 1 85.333334 85.333333V768a85.333333 85.333333 0 0 1-85.333334 85.333333H256z m213.333333-298.666666a42.666667 42.666667 0 0 0 42.666667 42.666666h85.333333a42.666667 42.666667 0 0 0 42.666667-42.666666v-85.333334a42.666667 42.666667 0 0 0-42.666667-42.666666h-85.333333a42.666667 42.666667 0 0 0-42.666667 42.666666V554.666667z m-85.333333-213.333334h85.333333a42.666667 42.666667 0 0 0 42.666667-42.666666v-85.333334a42.666667 42.666667 0 0 0-42.666667-42.666666H384a42.666667 42.666667 0 0 0-42.666667 42.666666v85.333334a42.666667 42.666667 0 0 0 42.666667 42.666666z m213.333333-42.666666a42.666667 42.666667 0 0 0 42.666667 42.666666h85.333333a42.666667 42.666667 0 0 0 42.666667-42.666666v-85.333334a42.666667 42.666667 0 0 0-42.666667-42.666666h-85.333333a42.666667 42.666667 0 0 0-42.666667 42.666666v85.333334z"  horiz-adv-x="1024" />
      
      <glyph glyph-name="todo" unicode="&#59333;" d="M128 810.666667a42.666667 42.666667 0 0 1-42.666667-42.666667v-256a42.666667 42.666667 0 0 1 42.666667-42.666667h256a42.666667 42.666667 0 0 1 42.666667 42.666667V768a42.666667 42.666667 0 0 1-42.666667 42.666667H128zM128 298.66666699999996a42.666667 42.666667 0 0 1-42.666667-42.666667v-256a42.666667 42.666667 0 0 1 42.666667-42.666667h256a42.666667 42.666667 0 0 1 42.666667 42.666667v256a42.666667 42.666667 0 0 1-42.666667 42.666667H128zM490.666667 768a42.666667 42.666667 0 0 0 42.666666 42.666667H938.666667a42.666667 42.666667 0 1 0 0-85.333334h-405.333334a42.666667 42.666667 0 0 0-42.666666 42.666667zM533.333333 682.666667a42.666667 42.666667 0 1 1 0-85.333334H938.666667a42.666667 42.666667 0 1 1 0 85.333334h-405.333334zM490.666667 512a42.666667 42.666667 0 0 0 42.666666 42.666667h202.666667a42.666667 42.666667 0 1 0 0-85.333334H533.333333a42.666667 42.666667 0 0 0-42.666666 42.666667zM533.333333 298.66666699999996a42.666667 42.666667 0 1 1 0-85.333334H938.666667a42.666667 42.666667 0 1 1 0 85.333334h-405.333334zM490.666667 0a42.666667 42.666667 0 0 0 42.666666 42.666667h202.666667a42.666667 42.666667 0 1 0 0-85.333334H533.333333a42.666667 42.666667 0 0 0-42.666666 42.666667zM533.333333 170.66666699999996a42.666667 42.666667 0 1 1 0-85.333334H938.666667a42.666667 42.666667 0 1 1 0 85.333334h-405.333334z"  horiz-adv-x="1024" />
      
      <glyph glyph-name="folder-settings" unicode="&#59371;" d="M532.736 260.30933300000004a64 64 0 1 0-45.738667 119.466667 64 64 0 0 0 45.738667-119.466667zM149.333333 810.666667a85.333333 85.333333 0 0 1-85.333333-85.333334v-682.666666a85.333333 85.333333 0 0 1 85.333333-85.333334h725.333334a85.333333 85.333333 0 0 1 85.333333 85.333334V597.333333a85.333333 85.333333 0 0 1-85.333333 85.333334h-342.698667l-93.866667 112.64A42.666667 42.666667 0 0 1 405.333333 810.666667h-256z m212.906667-525.141334c-4.949333 20.906667-5.333333 42.666667-1.152 63.701334a7.765333 7.765333 0 0 1-3.669333 8.277333l-30.037334 17.322667a8.533333 8.533333 0 0 0-3.114666 11.648l34.133333 59.136a8.533333 8.533333 0 0 0 11.648 3.114666l29.397333-16.981333a8.874667 8.874667 0 0 1 10.24 1.066667c14.378667 12.544 31.061333 22.186667 49.109334 28.416a8.874667 8.874667 0 0 1 6.058666 8.32V503.466667c0 4.693333 3.84 8.533333 8.533334 8.533333h68.266666c4.693333 0 8.533333-3.84 8.533334-8.533333v-33.92c0-3.754667 2.474667-7.082667 6.058666-8.32 18.218667-6.314667 34.816-16 49.066667-28.416 2.858667-2.474667 6.997333-2.986667 10.24-1.066667l29.44 16.981333a8.533333 8.533333 0 0 0 11.648-3.114666l34.133333-59.093334a8.533333 8.533333 0 0 0-3.114666-11.648l-29.44-17.024a8.874667 8.874667 0 0 1-4.138667-9.386666c3.626667-18.773333 3.626667-37.973333 0-56.746667a8.874667 8.874667 0 0 1 4.181333-9.386667l29.397334-16.981333a8.533333 8.533333 0 0 0 3.114666-11.648l-34.133333-59.093333a8.533333 8.533333 0 0 0-11.648-3.114667l-29.397333 16.981333a8.874667 8.874667 0 0 1-10.24-1.109333c-14.378667-12.544-31.061333-22.186667-49.109334-28.373333a8.874667 8.874667 0 0 1-6.058666-8.32v-33.962667a8.533333 8.533333 0 0 0-8.533334-8.533333h-68.266666a8.533333 8.533333 0 0 0-8.533334 8.533333v34.005333a8.874667 8.874667 0 0 1-6.058666 8.32 149.12 149.12 0 0 0-49.152 28.373334 8.874667 8.874667 0 0 1-10.24 1.109333l-29.354667-16.981333a8.533333 8.533333 0 0 0-11.648 3.114666l-34.133333 59.050667a8.533333 8.533333 0 0 0 3.114666 11.648l34.901334 20.181333z"  horiz-adv-x="1024" />
      
      <glyph glyph-name="border" unicode="&#59332;" d="M149.333333 768a85.333333 85.333333 0 0 1-85.333333-85.333333v-426.666667a85.333333 85.333333 0 0 1 85.333333-85.333333h725.333334a85.333333 85.333333 0 0 1 85.333333 85.333333V682.666667a85.333333 85.333333 0 0 1-85.333333 85.333333h-725.333334z m129.92-277.333333c10.752 0 19.413333-8.704 19.413334-19.413334v-46.506666a19.413333 19.413333 0 0 0-19.413334-19.413334h-46.506666A19.413333 19.413333 0 0 0 213.333333 424.704V471.253333c0 10.752 8.704 19.413333 19.413334 19.413334h46.506666z m-46.506666 128h46.506666c10.752 0 19.413333-8.704 19.413334-19.413334v-46.506666a19.413333 19.413333 0 0 0-19.413334-19.413334h-46.506666A19.413333 19.413333 0 0 0 213.333333 552.746667v46.506666c0 10.752 8.704 19.413333 19.413334 19.413334z m217.173333-128c10.752 0 19.413333-8.704 19.413333-19.413334v-46.506666a19.413333 19.413333 0 0 0-19.370666-19.413334H403.413333A19.413333 19.413333 0 0 0 384 424.704V471.253333c0 10.752 8.704 19.413333 19.413333 19.413334h46.506667z m-46.506667 128h46.506667c10.752 0 19.413333-8.704 19.413333-19.413334v-46.506666a19.413333 19.413333 0 0 0-19.370666-19.413334H403.413333A19.413333 19.413333 0 0 0 384 552.746667v46.506666c0 10.752 8.704 19.413333 19.413333 19.413334z m217.173334-128c10.752 0 19.413333-8.704 19.413333-19.413334v-46.506666a19.413333 19.413333 0 0 0-19.370667-19.413334h-46.549333a19.413333 19.413333 0 0 0-19.413333 19.370667V471.253333c0 10.752 8.704 19.413333 19.370666 19.413334h46.549334z m-46.506667 128h46.506667c10.752 0 19.413333-8.704 19.413333-19.413334v-46.506666a19.413333 19.413333 0 0 0-19.370667-19.413334h-46.549333A19.413333 19.413333 0 0 0 554.666667 552.746667v46.506666c0 10.752 8.704 19.413333 19.370666 19.413334z m217.173333 0c10.752 0 19.413333-8.704 19.413334-19.413334v-46.506666a19.413333 19.413333 0 0 0-19.370667-19.413334h-46.549333A19.413333 19.413333 0 0 0 725.333333 552.746667v46.506666c0 10.752 8.661333 19.413333 19.370667 19.413334h46.549333zM341.333333 85.33333300000004a42.666667 42.666667 0 1 1 0-85.333333h341.333334a42.666667 42.666667 0 1 1 0 85.333333H341.333333z"  horiz-adv-x="1024" />
      
      <glyph glyph-name="mobile2" unicode="&#59362;" d="M298.666667 853.333333a106.666667 106.666667 0 0 1-106.666667-106.666666v-725.333334A106.666667 106.666667 0 0 1 298.666667-85.333333h426.666666a106.666667 106.666667 0 0 1 106.666667 106.666666v725.333334A106.666667 106.666667 0 0 1 725.333333 853.333333H298.666667z m128-170.666666a42.666667 42.666667 0 0 0 42.666666 42.666666h85.333334a42.666667 42.666667 0 1 0 0-85.333333h-85.333334a42.666667 42.666667 0 0 0-42.666666 42.666667z m0-554.666667h170.666666a42.666667 42.666667 0 1 0 0-85.333333h-170.666666a42.666667 42.666667 0 1 0 0 85.333333z"  horiz-adv-x="1024" />
      
      <glyph glyph-name="check2" unicode="&#59363;" d="M341.333333 341.333333a42.666667 42.666667 0 1 1 0-85.333333h0.426667a42.666667 42.666667 0 1 1 0 85.333333H341.333333zM298.666667 170.666667a42.666667 42.666667 0 0 0 42.666666 42.666666h0.426667a42.666667 42.666667 0 1 0 0-85.333333H341.333333a42.666667 42.666667 0 0 0-42.666666 42.666667zM584.832 140.501333l128 128a42.666667 42.666667 0 0 1-60.330667 60.330667L554.666667 230.997333l-12.501334 12.501334a42.666667 42.666667 0 0 1-60.330666-60.330667l42.666666-42.666667a42.666667 42.666667 0 0 1 60.330667 0zM320 810.666667a42.666667 42.666667 0 0 0 42.666667 42.666666h298.666666a42.666667 42.666667 0 0 0 42.666667-42.666666v-21.333334H810.666667a85.333333 85.333333 0 0 0 85.333333-85.333333V0a85.333333 85.333333 0 0 0-85.333333-85.333333H213.333333a85.333333 85.333333 0 0 0-85.333333 85.333333V704a85.333333 85.333333 0 0 0 85.333333 85.333333h106.666667V810.666667z m384-128a42.666667 42.666667 0 0 0-42.666667-42.666667h-298.666666a42.666667 42.666667 0 0 0-42.666667 42.666667v21.333333H213.333333V0h597.333334V704h-106.666667V682.666667z m-85.333333 85.333333h-213.333334v-42.666667h213.333334V768z"  horiz-adv-x="1024" />
      
      <glyph glyph-name="check_review" unicode="&#59364;" d="M695.168 712.832a42.666667 42.666667 0 0 0 60.330667 0L810.666667 657.664l55.168 55.168a42.666667 42.666667 0 1 0 60.330666-60.330667L870.997333 597.333333l55.168-55.168a42.666667 42.666667 0 0 0-60.330666-60.330666L810.666667 537.002667l-55.168-55.168a42.666667 42.666667 0 0 0-60.330667 60.330666L750.336 597.333333l-55.168 55.168a42.666667 42.666667 0 0 0 0 60.330667zM970.794667 227.882667a42.666667 42.666667 0 0 1-64.256 56.234666l-119.296-136.362666-53.077334 53.077333a42.666667 42.666667 0 0 1-60.330666-60.330667l85.333333-85.333333a42.666667 42.666667 0 0 1 62.293333 2.090667l149.333334 170.666666zM85.333333 725.333333a42.666667 42.666667 0 0 1-42.666666-42.666666v-170.666667a42.666667 42.666667 0 0 1 42.666666-42.666667h469.333334a42.666667 42.666667 0 0 1 42.666666 42.666667V682.666667a42.666667 42.666667 0 0 1-42.666666 42.666666H85.333333zM85.333333 298.666667a42.666667 42.666667 0 0 1-42.666666-42.666667v-170.666667a42.666667 42.666667 0 0 1 42.666666-42.666666h469.333334a42.666667 42.666667 0 0 1 42.666666 42.666666v170.666667a42.666667 42.666667 0 0 1-42.666666 42.666667H85.333333z"  horiz-adv-x="1024" />
      
      <glyph glyph-name="check-filled" unicode="&#59365;" d="M362.666667 853.333333a42.666667 42.666667 0 0 1-42.666667-42.666666v-21.333334H213.333333a85.333333 85.333333 0 0 1-85.333333-85.333333V0a85.333333 85.333333 0 0 1 85.333333-85.333333h597.333334a85.333333 85.333333 0 0 1 85.333333 85.333333V704a85.333333 85.333333 0 0 1-85.333333 85.333333h-106.666667V810.666667a42.666667 42.666667 0 0 1-42.666667 42.666666h-298.666666z m256-85.333333v-42.666667h-213.333334V768h213.333334zM298.666667 298.66666699999996a42.666667 42.666667 0 0 0 42.666666 42.666666h0.426667a42.666667 42.666667 0 1 0 0-85.333333H341.333333a42.666667 42.666667 0 0 0-42.666666 42.666667z m42.666666-85.333334h0.426667a42.666667 42.666667 0 1 0 0-85.333333H341.333333a42.666667 42.666667 0 1 0 0 85.333333z m371.498667 55.168l-128-128a42.666667 42.666667 0 0 0-60.330667 0l-42.666666 42.666667a42.666667 42.666667 0 0 0 60.330666 60.330667l12.501334-12.501334 97.834666 97.834667a42.666667 42.666667 0 0 0 60.330667-60.330667z"  horiz-adv-x="1024" />
      
      <glyph glyph-name="check_safe" unicode="&#59366;" d="M525.738667 841.770667a21.333333 21.333333 0 0 1-27.477334 0l-13.312-11.178667C418.56 774.698667 333.738667 754.730667 262.101333 749.653333c-35.413333-2.474667-66.432-1.28-88.576 0.597334a469.205333 469.205333 0 0 0-32.085333 3.84l-1.493333 0.256h-0.298667L112.810667 759.466667a21.333333 21.333333 0 0 1-25.173334-22.698667l31.445334-381.226667c9.216-112.042667 57.642667-220.032 146.56-293.290666 63.232-52.053333 145.450667-113.493333 227.114666-155.733334l9.429334-4.864a21.333333 21.333333 0 0 1 19.626666 0l9.429334 4.864c78.762667 40.789333 158.08 99.370667 220.330666 150.186667l-152.234666 177.664a192 192 0 1 0 65.450666 54.741333l147.626667-172.245333c54.741333 67.626667 85.333333 151.978667 92.501333 238.677333l31.445334 381.226667a21.333333 21.333333 0 0 1-25.173334 22.698667l-26.88-4.992-0.213333-0.042667-1.493333-0.256a468.992 468.992 0 0 0-32.128-3.84c-22.101333-1.834667-53.12-3.072-88.533334-0.597333-71.637333 5.034667-156.501333 24.96-222.933333 80.896l-13.269333 11.178666zM512 512a106.666667 106.666667 0 1 1 0-213.333333 106.666667 106.666667 0 0 1 0 213.333333z"  horiz-adv-x="1024" />
      
      <glyph glyph-name="star-doc-filled" unicode="&#59367;" d="M764.16 337.70666700000004a42.666667 42.666667 0 0 1-77.653333 0l-43.818667-96-104.832-11.946667a42.666667 42.666667 0 0 1-23.978667-73.856l77.738667-71.338667-20.949333-103.424a42.666667 42.666667 0 0 1 62.805333-45.653333L725.333333-12.543999999999983l91.861334-51.882667a42.666667 42.666667 0 0 1 62.805333 45.653334l-20.949333 103.381333 77.738666 71.338667a42.666667 42.666667 0 0 1-23.978666 73.813333l-104.832 12.032-43.818667 96zM128 768a85.333333 85.333333 0 0 0 85.333333 85.333333h426.666667a42.666667 42.666667 0 0 0 30.165333-12.501333l213.333334-213.333333A42.666667 42.666667 0 0 0 896 597.333333v-291.712a8.533333 8.533333 0 0 0-9.514667-8.448l-30.506666 3.498667a8.533333 8.533333 0 0 0-6.826667 4.906667l-26.794667 58.709333a106.666667 106.666667 0 0 1-194.048 0l-28.8-63.104-68.906666-7.893333a106.666667 106.666667 0 0 1-59.989334-184.533334l51.114667-46.933333-28.458667-140.330667a8.533333 8.533333 0 0 0-8.362666-6.826666H213.333333a85.333333 85.333333 0 0 0-85.333333 85.333333V768z m170.666667-213.333333a42.666667 42.666667 0 0 1 42.666666-42.666667h170.666667a42.666667 42.666667 0 1 1 0 85.333333H341.333333a42.666667 42.666667 0 0 1-42.666666-42.666666z m42.666666-128a42.666667 42.666667 0 1 1 0-85.333334h85.333334a42.666667 42.666667 0 1 1 0 85.333334H341.333333z"  horiz-adv-x="1024" />
      
      <glyph glyph-name="star-doc" unicode="&#59368;" d="M213.333333 853.333333a85.333333 85.333333 0 0 1-85.333333-85.333333v-768a85.333333 85.333333 0 0 1 85.333333-85.333333h256a42.666667 42.666667 0 1 1 0 85.333333H213.333333V768h384v-170.666667a42.666667 42.666667 0 0 1 42.666667-42.666666h170.666667v-149.333334a42.666667 42.666667 0 1 1 85.333333 0V597.333333a42.666667 42.666667 0 0 1-12.501333 30.165334l-213.333334 213.333333A42.666667 42.666667 0 0 1 640 853.333333H213.333333z m537.002667-213.333333H682.666667V707.669333L750.336 640zM341.333333 597.333333a42.666667 42.666667 0 0 1 0-85.333333h170.666667a42.666667 42.666667 0 1 1 0 85.333333H341.333333zM764.16 337.70666700000004l43.818667-96 104.832-11.946667a42.666667 42.666667 0 0 0 23.978666-73.856l-77.738666-71.338667 20.949333-103.424a42.666667 42.666667 0 0 0-62.805333-45.653333L725.333333-12.543999999999983l-91.861333-51.882667a42.666667 42.666667 0 0 0-62.805333 45.653334l20.949333 103.381333-77.738667 71.338667a42.666667 42.666667 0 0 0 23.978667 73.813333l104.832 12.032 43.818667 96a42.666667 42.666667 0 0 0 77.653333 0z m-53.845333-153.344a42.666667 42.666667 0 0 0-33.962667-24.661334l-35.925333-4.096 26.666666-24.448a42.666667 42.666667 0 0 0 12.970667-39.936l-7.210667-35.413333 31.488 17.749333a42.666667 42.666667 0 0 0 41.984 0l31.488-17.792-7.210666 35.456a42.666667 42.666667 0 0 0 12.970666 39.893334l26.666667 24.448-35.925333 4.138666a42.666667 42.666667 0 0 0-33.962667 24.661334L725.333333 217.25866699999995l-15.018666-32.853334zM298.666667 384a42.666667 42.666667 0 0 0 42.666666 42.666667h85.333334a42.666667 42.666667 0 1 0 0-85.333334H341.333333a42.666667 42.666667 0 0 0-42.666666 42.666667z"  horiz-adv-x="1024" />
      
      <glyph glyph-name="check_review2" unicode="&#59369;" d="M695.168 712.832a42.666667 42.666667 0 0 0 60.330667 0L810.666667 657.664l55.168 55.168a42.666667 42.666667 0 1 0 60.330666-60.330667L870.997333 597.333333l55.168-55.168a42.666667 42.666667 0 0 0-60.330666-60.330666L810.666667 537.002667l-55.168-55.168a42.666667 42.666667 0 0 0-60.330667 60.330666L750.336 597.333333l-55.168 55.168a42.666667 42.666667 0 0 0 0 60.330667zM970.794667 227.882667a42.666667 42.666667 0 0 1-64.256 56.234666l-119.296-136.362666-53.077334 53.077333a42.666667 42.666667 0 0 1-60.330666-60.330667l85.333333-85.333333a42.666667 42.666667 0 0 1 62.293333 2.090667l149.333334 170.666666zM42.666667 682.666667a42.666667 42.666667 0 0 0 42.666666 42.666666h469.333334a42.666667 42.666667 0 0 0 42.666666-42.666666v-170.666667a42.666667 42.666667 0 0 0-42.666666-42.666667H85.333333a42.666667 42.666667 0 0 0-42.666666 42.666667V682.666667z m85.333333-42.666667v-85.333333h384V640H128zM85.333333 298.666667a42.666667 42.666667 0 0 1-42.666666-42.666667v-170.666667a42.666667 42.666667 0 0 1 42.666666-42.666666h469.333334a42.666667 42.666667 0 0 1 42.666666 42.666666v170.666667a42.666667 42.666667 0 0 1-42.666666 42.666667H85.333333z m42.666667-170.666667v85.333333h384v-85.333333H128z"  horiz-adv-x="1024" />
      
      <glyph glyph-name="check_safe2" unicode="&#59370;" d="M498.261333 841.770667a21.333333 21.333333 0 0 0 27.477334 0l13.312-11.178667c66.389333-55.893333 151.253333-75.861333 222.890666-80.896 35.413333-2.474667 66.432-1.28 88.533334 0.597333a468.992 468.992 0 0 1 32.128 3.84l1.493333 0.256h0.213333l26.88 5.034667a21.333333 21.333333 0 0 0 25.173334-22.698667l-31.445334-381.226666c-9.216-112.042667-57.642667-220.032-146.56-293.290667-63.232-52.053333-145.493333-113.493333-227.114666-155.733333l-9.429334-4.864a21.333333 21.333333 0 0 0-19.626666 0l-9.429334 4.864c-81.664 42.24-163.882667 103.68-227.114666 155.733333-88.917333 73.258667-137.344 181.290667-146.56 293.290667l-31.445334 381.226666a21.333333 21.333333 0 0 0 25.173334 22.698667l26.794666-4.992 0.298667-0.042667 1.493333-0.256a469.205333 469.205333 0 0 1 32.128-3.84c22.101333-1.834667 53.12-3.072 88.533334-0.597333 71.637333 5.034667 156.501333 24.96 222.890666 80.896l13.312 11.178667z m346.410667-189.696a10.837333 10.837333 0 0 1-11.349333 11.605333c-21.930667-1.024-48.298667-1.152-77.226667 0.853333-70.272 4.949333-159.445333 22.954667-237.952 75.52a11.093333 11.093333 0 0 1-12.288 0c-78.506667-52.565333-167.68-70.570667-237.952-75.52-28.928-2.005333-55.296-1.877333-77.226667-0.853333a10.837333 10.837333 0 0 1-11.306666-11.605333l23.850666-289.493334c7.637333-92.544 47.232-177.749333 115.797334-234.24 54.698667-45.056 121.642667-95.232 187.818666-132.693333a10.496 10.496 0 0 1 10.325334 0c62.72 35.498667 126.08 82.389333 179.114666 125.568l-96.938666 113.066667a192 192 0 1 0 65.450666 54.741333l91.306667-106.453333c37.248 50.944 59.221333 113.621333 64.682667 180.053333l23.893333 289.450667zM512 512a106.666667 106.666667 0 1 1 0-213.333333 106.666667 106.666667 0 0 1 0 213.333333z"  horiz-adv-x="1024" />
      
      <glyph glyph-name="num-indicator" unicode="&#59359;" d="M64 682.666667a85.333333 85.333333 0 0 0 85.333333 85.333333h725.333334a85.333333 85.333333 0 0 0 85.333333-85.333333v-426.666667a85.333333 85.333333 0 0 0-85.333333-85.333333h-725.333334a85.333333 85.333333 0 0 0-85.333333 85.333333V682.666667z m296.234667-128a21.333333 21.333333 0 0 1-36.437334 15.104L275.029333 520.96a21.333333 21.333333 0 0 1 30.208-30.165333l12.330667 12.330666V405.333333h-10.965333a21.333333 21.333333 0 1 1 0-42.666666h64.256a21.333333 21.333333 0 0 1 0 42.666666h-10.666667V554.666667z m121.386666-29.354667a27.434667 27.434667 0 0 0 46.805334-19.413333v-0.298667a25.386667 25.386667 0 0 0-1.152-4.266667c-1.024-2.816-2.56-6.144-4.693334-9.856-3.882667-7.04-8.917333-14.250667-13.397333-20.394666l-72.021333-72.021334a21.333333 21.333333 0 0 1 15.104-36.394666h97.493333a21.333333 21.333333 0 0 1 0 42.666666h-45.994667l36.693334 36.736a21.418667 21.418667 0 0 1 2.133333 2.389334c4.949333 6.784 11.690667 16.213333 17.28 26.197333 5.12 9.130667 11.221333 22.186667 11.221333 35.242667a70.101333 70.101333 0 0 1-140.16 0 21.333333 21.333333 0 1 1 42.666667 0c0 7.253333 2.901333 14.250667 8.021333 19.413333z m179.456 46.165333a69.248 69.248 0 0 1-31.573333-22.826666A60.330667 60.330667 0 0 1 616.96 512a21.333333 21.333333 0 0 1 42.666667 0c0 3.541333 1.194667 7.253333 3.84 10.752a26.624 26.624 0 0 0 12.202666 8.618667 33.92 33.92 0 0 0 17.237334 1.450666 29.952 29.952 0 0 0 14.592-6.698666 20.053333 20.053333 0 0 0 6.570666-10.538667c0.853333-3.498667 0.426667-7.253333-1.28-10.794667a23.168 23.168 0 0 0-9.386666-9.813333 32.512 32.512 0 0 0-16.341334-4.266667 21.333333 21.333333 0 0 1 0-42.666666c6.016 0 11.690667-1.578667 16.341334-4.266667a23.168 23.168 0 0 0 9.386666-9.898667c1.706667-3.541333 2.133333-7.253333 1.28-10.794666a20.053333 20.053333 0 0 0-6.570666-10.496 29.952 29.952 0 0 0-14.592-6.741334 33.877333 33.877333 0 0 0-17.237334 1.493334 26.624 26.624 0 0 0-12.202666 8.576 17.664 17.664 0 0 0-3.84 10.752 21.333333 21.333333 0 1 1-42.666667 0c0-13.312 4.565333-26.069333 12.629333-36.608 8.021333-10.538667 19.072-18.346667 31.573334-22.826667 12.416-4.522667 26.026667-5.674667 39.082666-3.413333 13.056 2.304 25.386667 7.936 35.328 16.64 9.984 8.704 17.152 20.181333 20.096 33.152 2.986667 13.056 1.408 26.453333-4.266666 38.528a63.317333 63.317333 0 0 1-12.032 17.194666c4.906667 5.034667 8.96 10.794667 12.032 17.237334 5.674667 12.032 7.253333 25.472 4.266666 38.485333a62.634667 62.634667 0 0 1-20.053333 33.152 72.576 72.576 0 0 1-35.413333 16.64 76.586667 76.586667 0 0 1-39.082667-3.370667zM298.666667 42.66666699999996a42.666667 42.666667 0 0 0 42.666666 42.666666h341.333334a42.666667 42.666667 0 1 0 0-85.333333H341.333333a42.666667 42.666667 0 0 0-42.666666 42.666667z"  horiz-adv-x="1024" />
      
      <glyph glyph-name="list2" unicode="&#59360;" d="M216.192 853.333333C165.845333 853.333333 128 811.349333 128 763.264V4.693333C128-43.349333 165.845333-85.333333 216.192-85.333333h591.616c50.346667 0 88.192 41.984 88.192 90.069333V763.306667C896 811.349333 858.154667 853.333333 807.808 853.333333H216.192zM426.666667 597.333333a42.666667 42.666667 0 0 0 42.666666 42.666667h213.333334a42.666667 42.666667 0 1 0 0-85.333333h-213.333334a42.666667 42.666667 0 0 0-42.666666 42.666666z m42.666666-170.666666h213.333334a42.666667 42.666667 0 1 0 0-85.333334h-213.333334a42.666667 42.666667 0 1 0 0 85.333334z m-42.666666-256a42.666667 42.666667 0 0 0 42.666666 42.666666h213.333334a42.666667 42.666667 0 1 0 0-85.333333h-213.333334a42.666667 42.666667 0 0 0-42.666666 42.666667zM384 597.333333a42.666667 42.666667 0 1 0-85.333333 0 42.666667 42.666667 0 0 0 85.333333 0z m-42.666667-256a42.666667 42.666667 0 1 0 0 85.333334 42.666667 42.666667 0 0 0 0-85.333334z m42.666667-170.666666a42.666667 42.666667 0 1 0-85.333333 0 42.666667 42.666667 0 0 0 85.333333 0z"  horiz-adv-x="1024" />
      
      <glyph glyph-name="checklist" unicode="&#59361;" d="M213.333333 853.333333a85.333333 85.333333 0 0 1-85.333333-85.333333v-768a85.333333 85.333333 0 0 1 85.333333-85.333333h429.909334l-84.522667 70.442666a85.333333 85.333333 0 1 0 109.226667 131.114667l45.866666-38.229333 137.472 168.064a84.906667 84.906667 0 0 0 44.714667 28.586666V768a85.333333 85.333333 0 0 1-85.333333 85.333333H213.333333z m213.333334-256a42.666667 42.666667 0 0 0 42.666666 42.666667h213.333334a42.666667 42.666667 0 1 0 0-85.333333h-213.333334a42.666667 42.666667 0 0 0-42.666666 42.666666z m42.666666-128h213.333334a42.666667 42.666667 0 1 0 0-85.333333h-213.333334a42.666667 42.666667 0 1 0 0 85.333333z m-42.666666-213.333333a42.666667 42.666667 0 0 0 42.666666 42.666667h213.333334a42.666667 42.666667 0 1 0 0-85.333334h-213.333334a42.666667 42.666667 0 0 0-42.666666 42.666667zM384 597.333333a42.666667 42.666667 0 1 0-85.333333 0 42.666667 42.666667 0 0 0 85.333333 0z m-42.666667-213.333333a42.666667 42.666667 0 1 0 0 85.333333 42.666667 42.666667 0 0 0 0-85.333333z m42.666667-128a42.666667 42.666667 0 1 0-85.333333 0 42.666667 42.666667 0 0 0 85.333333 0zM950.357333 164.992a42.666667 42.666667 0 0 1-66.048 54.016l-164.736-201.344-78.933333 65.792a42.666667 42.666667 0 1 1-54.613333-65.578667l112-93.312a42.666667 42.666667 0 0 1 60.330666 5.76l192 234.666667z"  horiz-adv-x="1024" />
      
      <glyph glyph-name="equipment-settings-filled" unicode="&#59358;" d="M511.914667 412.458667a56.874667 56.874667 0 1 1 4.181333 113.706666 56.874667 56.874667 0 0 1-4.181333-113.706666zM149.333333 768a85.333333 85.333333 0 0 1-85.333333-85.333333v-426.666667a85.333333 85.333333 0 0 1 85.333333-85.333333h725.333334a85.333333 85.333333 0 0 1 85.333333 85.333333V682.666667a85.333333 85.333333 0 0 1-85.333333 85.333333h-725.333334z m232.362667-272.768a6.912 6.912 0 0 1-3.242667 7.381333l-26.709333 15.402667a7.594667 7.594667 0 0 0-2.773333 10.368l30.336 52.565333a7.594667 7.594667 0 0 0 10.368 2.773334l26.154666-15.104c2.901333-1.706667 6.528-1.237333 9.088 0.981333 12.8 11.136 27.648 19.712 43.690667 25.258667a7.893333 7.893333 0 0 1 5.376 7.381333v30.165333c0 4.181333 3.413333 7.594667 7.594667 7.594667h60.714666c4.181333 0 7.594667-3.413333 7.594667-7.594667v-30.165333c0-3.328 2.218667-6.272 5.376-7.381333 16.213333-5.589333 30.976-14.250667 43.648-25.258667 2.56-2.218667 6.186667-2.645333 9.088-0.981333l26.197333 15.104a7.594667 7.594667 0 0 0 10.325334-2.773334l30.378666-52.522666c2.090667-3.626667 0.853333-8.277333-2.773333-10.368l-26.154667-15.146667a7.893333 7.893333 0 0 1-3.712-8.32c3.242667-16.682667 3.242667-33.834667 0-50.517333a7.893333 7.893333 0 0 1 3.712-8.32l26.154667-15.104c3.626667-2.133333 4.864-6.741333 2.773333-10.368l-30.336-52.522667a7.594667 7.594667 0 0 0-10.368-2.773333l-26.154666 15.061333a7.893333 7.893333 0 0 1-9.088-0.981333c-12.8-11.093333-27.648-19.669333-43.690667-25.216a7.893333 7.893333 0 0 1-5.376-7.381334v-30.208c0-4.181333-3.413333-7.594667-7.594667-7.594666h-60.714666a7.594667 7.594667 0 0 0-7.594667 7.594666v30.208a7.893333 7.893333 0 0 1-5.376 7.424 132.522667 132.522667 0 0 0-43.690667 25.216 7.893333 7.893333 0 0 1-9.088 0.981334l-26.154666-15.104a7.594667 7.594667 0 0 0-10.368 2.816l-30.336 52.48a7.594667 7.594667 0 0 0 2.773333 10.368l31.018667 17.92a133.12 133.12 0 0 0-1.066667 56.661333zM341.333333 85.33333300000004a42.666667 42.666667 0 1 1 0-85.333333h341.333334a42.666667 42.666667 0 1 1 0 85.333333H341.333333z"  horiz-adv-x="1024" />
      
      <glyph glyph-name="router" unicode="&#59356;" d="M256 768a42.666667 42.666667 0 0 0 42.666667-42.666667v-384h426.666666V725.333333a42.666667 42.666667 0 1 0 85.333334 0v-384h85.333333a85.333333 85.333333 0 0 0 85.333333-85.333333v-213.333333a85.333333 85.333333 0 0 0-85.333333-85.333334H128a85.333333 85.333333 0 0 0-85.333333 85.333334v213.333333a85.333333 85.333333 0 0 0 85.333333 85.333333h85.333333V725.333333a42.666667 42.666667 0 0 0 42.666667 42.666667z m0-618.666667a42.666667 42.666667 0 0 1 42.666667-42.666666h170.666666a42.666667 42.666667 0 1 1 0 85.333333H298.666667a42.666667 42.666667 0 0 1-42.666667-42.666667z m426.666667 42.666667a42.666667 42.666667 0 1 1 0-85.333333 42.666667 42.666667 0 0 1 0 85.333333z"  horiz-adv-x="1024" />
      
      <glyph glyph-name="dashboard2" unicode="&#59357;" d="M298.666667 42.66666699999996a42.666667 42.666667 0 0 0 42.666666 42.666666h341.333334a42.666667 42.666667 0 1 0 0-85.333333H341.333333a42.666667 42.666667 0 0 0-42.666666 42.666667zM149.333333 768a85.333333 85.333333 0 0 1-85.333333-85.333333v-426.666667a85.333333 85.333333 0 0 1 85.333333-85.333333h725.333334a85.333333 85.333333 0 0 1 85.333333 85.333333V682.666667a85.333333 85.333333 0 0 1-85.333333 85.333333h-725.333334z m597.333334-149.333333a42.666667 42.666667 0 0 0 42.666666-42.666667V341.33333300000004a42.666667 42.666667 0 1 0-85.333333 0V576a42.666667 42.666667 0 0 0 42.666667 42.666667z m-106.666667-128V341.33333300000004a42.666667 42.666667 0 1 0-85.333333 0V490.666667a42.666667 42.666667 0 1 0 85.333333 0z m-179.2-32c4.693333 0 8.533333-3.84 8.234667-8.533334A117.333333 117.333333 0 1 0 343.466667 575.701333a8.106667 8.106667 0 0 0 8.533333-8.234666v-100.266667c0-4.693333 3.84-8.533333 8.533333-8.533333h100.266667zM392.533333 596.992A106.666667 106.666667 0 0 0 490.325333 499.2c0.384-4.693333-3.498667-8.533333-8.192-8.533333H392.533333a8.533333 8.533333 0 0 0-8.533333 8.533333V588.8c0 4.693333 3.84 8.533333 8.533333 8.192z"  horiz-adv-x="1024" />
      
      <glyph glyph-name="lab_set" unicode="&#59355;" d="M542.165333 840.832a42.666667 42.666667 0 0 1-60.330666 0l-426.666667-426.666667A42.666667 42.666667 0 0 1 85.333333 341.333333h42.666667v-277.418666A127.872 127.872 0 0 1 255.914667-64H341.333333V256a128 128 0 0 0 128 128h85.333334c37.12 0 70.656-15.872 93.952-41.088 1.92-2.048 3.584-4.266667 4.992-6.528 2.901333-4.693333 9.045333-7.125333 13.909333-4.48A254.848 254.848 0 0 0 789.333333 362.666667a255.146667 255.146667 0 0 0 102.485334-21.333334H938.666667a42.666667 42.666667 0 0 1 30.165333 72.832l-426.666667 426.666667zM590.421333 267.861333c3.498667 4.266667 2.261333 10.794667-1.834666 14.506667a42.965333 42.965333 0 0 0-2.602667 2.602667A42.368 42.368 0 0 1 554.666667 298.666667h-85.333334a42.666667 42.666667 0 0 1-42.666666-42.666667v-320h106.666666a42.666667 42.666667 0 0 1 41.173334 31.402667A254.805333 254.805333 0 0 0 533.333333 106.666667c0 61.098667 21.418667 117.162667 57.088 161.194666zM639.573333 72.192c-4.949333 20.906667-5.333333 42.666667-1.152 63.701333a7.765333 7.765333 0 0 1-3.669333 8.277334l-30.037333 17.322666a8.533333 8.533333 0 0 0-3.114667 11.648l34.133333 59.136a8.533333 8.533333 0 0 0 11.648 3.114667l29.397334-16.981333a8.874667 8.874667 0 0 1 10.24 1.066666c14.378667 12.544 31.061333 22.186667 49.109333 28.416a8.874667 8.874667 0 0 1 6.058667 8.32V290.133333c0 4.693333 3.84 8.533333 8.533333 8.533334h68.266667c4.693333 0 8.533333-3.84 8.533333-8.533334v-33.92c0-3.754667 2.474667-7.082667 6.058667-8.32 18.218667-6.314667 34.816-16 49.066666-28.416 2.858667-2.474667 6.954667-2.986667 10.24-1.066666l29.44 16.981333a8.533333 8.533333 0 0 0 11.648-3.114667l34.133334-59.093333a8.533333 8.533333 0 0 0-3.114667-11.648l-29.44-17.024a8.874667 8.874667 0 0 1-4.138667-9.386667c3.626667-18.773333 3.626667-37.973333 0-56.746666a8.874667 8.874667 0 0 1 4.181334-9.386667l29.397333-16.981333a8.533333 8.533333 0 0 0 3.114667-11.648l-34.133334-59.093334a8.533333 8.533333 0 0 0-11.648-3.114666l-29.397333 16.981333a8.874667 8.874667 0 0 1-10.24-1.109333c-14.378667-12.544-31.061333-22.186667-49.109333-28.373334a8.874667 8.874667 0 0 1-6.058667-8.32v-33.962666a8.533333 8.533333 0 0 0-8.533333-8.533334h-68.266667a8.533333 8.533333 0 0 0-8.533333 8.533334v34.005333a8.874667 8.874667 0 0 1-6.058667 8.32 149.12 149.12 0 0 0-49.109333 28.373333 8.874667 8.874667 0 0 1-10.24 1.109334l-29.397334-16.981334a8.533333 8.533333 0 0 0-11.648 3.114667l-34.133333 59.050667a8.533333 8.533333 0 0 0 3.114667 11.648l34.901333 20.181333z m170.496-25.216a63.914667 63.914667 0 0 1 0 119.552 64 64 0 1 1 0-119.552z"  horiz-adv-x="1024" />
      
      <glyph glyph-name="test_list" unicode="&#59352;" d="M64 768a85.333333 85.333333 0 0 0 85.333333 85.333333h554.666667a85.333333 85.333333 0 0 0 85.333333-85.333333v-384h85.333334a85.333333 85.333333 0 0 0 85.333333-85.333333v-298.666667a85.333333 85.333333 0 0 0-85.333333-85.333333h-725.333334a85.333333 85.333333 0 0 0-85.333333 85.333333V768z m725.333333-768h85.333334v298.666667h-85.333334v-298.666667zM384 618.666667a42.666667 42.666667 0 0 1 0-85.333334h213.333333a42.666667 42.666667 0 1 1 0 85.333334H384zM341.333333 384a42.666667 42.666667 0 0 1 42.666667-42.666667h213.333333a42.666667 42.666667 0 1 1 0 85.333334H384a42.666667 42.666667 0 0 1-42.666667-42.666667z m42.666667-149.333333a42.666667 42.666667 0 1 1 0-85.333334h213.333333a42.666667 42.666667 0 1 1 0 85.333334H384z m-128 298.666666a42.666667 42.666667 0 1 1 0 85.333334 42.666667 42.666667 0 0 1 0-85.333334zM298.666667 384a42.666667 42.666667 0 1 1-85.333334 0 42.666667 42.666667 0 0 1 85.333334 0z m-42.666667-234.666667a42.666667 42.666667 0 1 1 0 85.333334 42.666667 42.666667 0 0 1 0-85.333334z"  horiz-adv-x="1024" />
      
      <glyph glyph-name="exam_topic" unicode="&#59353;" d="M213.333333 810.666667h85.333334v-853.333334H213.333333a85.333333 85.333333 0 0 0-85.333333 85.333334V725.333333a85.333333 85.333333 0 0 0 85.333333 85.333334zM384-42.666667H298.666667v-42.666666a42.666667 42.666667 0 1 1 85.333333 0v42.666666zM384-42.666667V810.666667h426.666667a85.333333 85.333333 0 0 0 85.333333-85.333334v-682.666666a85.333333 85.333333 0 0 0-85.333333-85.333334H384z m128 725.333334a42.666667 42.666667 0 1 1 0-85.333334h170.666667a42.666667 42.666667 0 1 1 0 85.333334h-170.666667z m-42.666667-213.333334a42.666667 42.666667 0 0 1 42.666667-42.666666h170.666667a42.666667 42.666667 0 1 1 0 85.333333h-170.666667a42.666667 42.666667 0 0 1-42.666667-42.666667z"  horiz-adv-x="1024" />
      
      <glyph glyph-name="exam_set" unicode="&#59354;" d="M213.333333 810.666667h85.333334v-853.333334H213.333333a85.333333 85.333333 0 0 0-85.333333 85.333334V725.333333a85.333333 85.333333 0 0 0 85.333333 85.333334zM384-42.666667v-42.666666a42.666667 42.666667 0 1 0-85.333333 0v42.666666h85.333333zM384-42.666667V810.666667h426.666667a85.333333 85.333333 0 0 0 85.333333-85.333334v-372.565333a8.874667 8.874667 0 0 0-12.245333-8.106667 256 256 0 0 1-311.68-373.546666c3.712-5.845333-0.426667-13.781333-7.338667-13.781334H384z m128 725.333334a42.666667 42.666667 0 1 1 0-85.333334h170.666667a42.666667 42.666667 0 1 1 0 85.333334h-170.666667z m-42.666667-213.333334a42.666667 42.666667 0 0 1 42.666667-42.666666h170.666667a42.666667 42.666667 0 1 1 0 85.333333h-170.666667a42.666667 42.666667 0 0 1-42.666667-42.666667zM639.573333 72.192c-4.949333 20.906667-5.333333 42.666667-1.152 63.701333a7.765333 7.765333 0 0 1-3.669333 8.277334l-30.037333 17.322666a8.533333 8.533333 0 0 0-3.114667 11.648l34.133333 59.136a8.533333 8.533333 0 0 0 11.648 3.114667l29.397334-16.981333a8.874667 8.874667 0 0 1 10.24 1.066666c14.378667 12.544 31.061333 22.186667 49.109333 28.416a8.874667 8.874667 0 0 1 6.058667 8.32V290.133333c0 4.693333 3.84 8.533333 8.533333 8.533334h68.266667c4.693333 0 8.533333-3.84 8.533333-8.533334v-33.92c0-3.754667 2.474667-7.082667 6.058667-8.32 18.218667-6.314667 34.816-16 49.066666-28.416 2.858667-2.474667 6.954667-2.986667 10.24-1.066666l29.44 16.981333a8.533333 8.533333 0 0 0 11.648-3.114667l34.133334-59.093333a8.533333 8.533333 0 0 0-3.114667-11.648l-29.44-17.024a8.874667 8.874667 0 0 1-4.138667-9.386667c3.626667-18.773333 3.626667-37.973333 0-56.746666a8.874667 8.874667 0 0 1 4.181334-9.386667l29.397333-16.981333a8.533333 8.533333 0 0 0 3.114667-11.648l-34.133334-59.093334a8.533333 8.533333 0 0 0-11.648-3.114666l-29.397333 16.981333a8.874667 8.874667 0 0 1-10.24-1.109333c-14.378667-12.544-31.061333-22.186667-49.109333-28.373334a8.874667 8.874667 0 0 1-6.058667-8.32v-33.962666a8.533333 8.533333 0 0 0-8.533333-8.533334h-68.266667a8.533333 8.533333 0 0 0-8.533333 8.533334v34.005333a8.874667 8.874667 0 0 1-6.058667 8.32 149.12 149.12 0 0 0-49.109333 28.373333 8.874667 8.874667 0 0 1-10.24 1.109334l-29.397334-16.981334a8.533333 8.533333 0 0 0-11.648 3.114667l-34.133333 59.050667a8.533333 8.533333 0 0 0 3.114667 11.648l34.901333 20.181333z m170.496-25.216a63.914667 63.914667 0 0 1 0 119.552 64 64 0 1 1 0-119.552z"  horiz-adv-x="1024" />
      
      <glyph glyph-name="exam3" unicode="&#59348;" d="M298.666667 853.333333a21.333333 21.333333 0 0 1-17.066667-34.133333l32-42.666667a21.333333 21.333333 0 0 1 17.066667-8.533333h362.666666a21.333333 21.333333 0 0 1 17.066667 8.533333l32 42.666667A21.333333 21.333333 0 0 1 725.333333 853.333333H298.666667zM707.328 674.816a42.666667 42.666667 0 0 0 9.002667-8.618667l149.333333-192a42.666667 42.666667 0 0 0 4.181333-45.952l-256-490.666666-0.213333-0.384c-8.106667-15.189333-18.816-21.717333-30.378667-21.973334a23.466667 23.466667 0 0 0-6.058666-0.554666h-0.170667a23.466667 23.466667 0 0 0-22.357333 22.912v351.146666a85.461333 85.461333 0 0 1 23.168 128.213334A85.333333 85.333333 0 1 1 469.333333 288.725333v-351.146666a23.466667 23.466667 0 0 0-22.357333-22.912h-0.170667a22.4 22.4 0 0 0-7.168 0.853333 42.581333 42.581333 0 0 0-29.44 22.058667l-256 490.666666a42.666667 42.666667 0 0 0 4.138667 45.952l149.333333 192A42.666667 42.666667 0 0 0 341.333333 682.666667h341.333334a42.752 42.752 0 0 0 24.661333-7.850667z"  horiz-adv-x="1024" />
      
      <glyph glyph-name="certificate" unicode="&#59349;" d="M128 810.666667a85.333333 85.333333 0 0 1-85.333333-85.333334v-554.666666a85.333333 85.333333 0 0 1 85.333333-85.333334h277.333333a42.666667 42.666667 0 1 1 0 85.333334H128V725.333333h768v-554.666666h-21.333333a42.666667 42.666667 0 1 1 0-85.333334h21.333333a85.333333 85.333333 0 0 1 85.333333 85.333334V725.333333a85.333333 85.333333 0 0 1-85.333333 85.333334H128zM256 640a42.666667 42.666667 0 0 1 0-85.333333h512a42.666667 42.666667 0 1 1 0 85.333333H256zM213.333333 448a42.666667 42.666667 0 0 0 42.666667 42.666667h128a42.666667 42.666667 0 0 0 0-85.333334H256a42.666667 42.666667 0 0 0-42.666667 42.666667zM256 341.333333a42.666667 42.666667 0 1 1 0-85.333333h85.333333a42.666667 42.666667 0 1 1 0 85.333333H256zM640 490.666667a170.666667 170.666667 0 0 1-128-283.562667V0a42.666667 42.666667 0 0 1 61.738667-38.144L640-5.034667l66.261333-33.109333A42.666667 42.666667 0 0 1 768 0v207.104A170.666667 170.666667 0 0 1 640 490.666667z"  horiz-adv-x="1024" />
      
      <glyph glyph-name="pic_add" unicode="&#59350;" d="M768 810.666667a42.666667 42.666667 0 0 0 42.666667-42.666667v-85.333333h85.333333a42.666667 42.666667 0 1 0 0-85.333334h-85.333333v-85.333333a42.666667 42.666667 0 1 0-85.333334 0V597.333333h-85.333333a42.666667 42.666667 0 1 0 0 85.333334h85.333333V768a42.666667 42.666667 0 0 0 42.666667 42.666667zM149.333333 768a85.333333 85.333333 0 0 1-85.333333-85.333333v-597.333334a85.333333 85.333333 0 0 1 85.333333-85.333333h725.333334a85.333333 85.333333 0 0 1 85.333333 85.333333v298.666667a42.666667 42.666667 0 1 1-85.333333 0v-37.333333l-94.122667 70.613333a85.333333 85.333333 0 0 1-111.530667-7.936l-91.946666-91.946667-136.576 117.034667a85.333333 85.333333 0 0 1-113.194667-1.877333L149.333333 269.44V682.666667H512a42.666667 42.666667 0 1 1 0 85.333333H149.333333zM213.333333 565.333333a74.666667 74.666667 0 1 0 149.333334 0 74.666667 74.666667 0 0 0-149.333334 0z"  horiz-adv-x="1024" />
      
      <glyph glyph-name="bookmark" unicode="&#59351;" d="M213.333333 853.333333a85.333333 85.333333 0 0 1-85.333333-85.333333v-768a85.333333 85.333333 0 0 1 85.333333-85.333333h597.333334a85.333333 85.333333 0 0 1 85.333333 85.333333V768a85.333333 85.333333 0 0 1-85.333333 85.333333H213.333333z m234.666667-85.333333h341.333333v-469.333333a21.333333 21.333333 0 0 0-35.968-15.530667l-122.368 115.413333-148.48-116.650666A21.333333 21.333333 0 0 0 448 298.666667V768z"  horiz-adv-x="1024" />
      
      <glyph glyph-name="file_box" unicode="&#59345;" d="M405.333333 640a42.666667 42.666667 0 1 1 0-85.333333h213.333334a42.666667 42.666667 0 1 1 0 85.333333h-213.333334zM298.666667 426.666667a42.666667 42.666667 0 0 0 42.666666 42.666666h341.333334a42.666667 42.666667 0 1 0 0-85.333333H341.333333a42.666667 42.666667 0 0 0-42.666666 42.666667zM192 810.666667a42.666667 42.666667 0 0 1-42.666667-42.666667v-469.333333H85.333333a42.666667 42.666667 0 0 1-42.666666-42.666667v-277.333333a42.666667 42.666667 0 0 1 42.666666-42.666667h853.333334a42.666667 42.666667 0 0 1 42.666666 42.666667V256a42.666667 42.666667 0 0 1-42.666666 42.666667h-64V768a42.666667 42.666667 0 0 1-42.666667 42.666667h-640z m597.333333-512H640a128 128 0 1 0-256 0H234.666667V725.333333h554.666666v-426.666666z"  horiz-adv-x="1024" />
      
      <glyph glyph-name="file_timing" unicode="&#59346;" d="M149.333333 768a42.666667 42.666667 0 0 0 42.666667 42.666667h640a42.666667 42.666667 0 0 0 42.666667-42.666667v-407.850667a8.832 8.832 0 0 0-11.477334-8.32 255.573333 255.573333 0 0 1-65.322666 10.666667 8.746667 8.746667 0 0 0-8.533334 8.704V725.333333h-554.666666v-426.666666H384a128 128 0 0 1 144.128-126.976c6.442667 0.810667 12.16-5.12 10.837333-11.477334a256.938667 256.938667 0 0 1 47.36-209.493333c4.48-5.888 0.469333-14.72-6.912-14.72H85.333333a42.666667 42.666667 0 0 0-42.666666 42.666667V256a42.666667 42.666667 0 0 0 42.666666 42.666667h64V768zM405.333333 640a42.666667 42.666667 0 1 1 0-85.333333h213.333334a42.666667 42.666667 0 1 1 0 85.333333h-213.333334zM341.333333 469.333333a42.666667 42.666667 0 1 1 0-85.333333h341.333334a42.666667 42.666667 0 1 1 0 85.333333H341.333333zM789.333333 181.333333a32 32 0 0 0 32-32v-34.858666l22.613334-22.613334a32 32 0 1 0-45.226667-45.269333l-32 32a32 32 0 0 0-9.386667 22.613333V149.333333a32 32 0 0 0 32 32zM789.333333 298.666667a192 192 0 1 1 0-384 192 192 0 0 1 0 384zM682.666667 106.666667a106.666667 106.666667 0 1 0 213.333333 0 106.666667 106.666667 0 0 0-213.333333 0z"  horiz-adv-x="1024" />
      
      <glyph glyph-name="category" unicode="&#59347;" d="M725.333333 810.666667a213.333333 213.333333 0 1 1 0-426.666667 213.333333 213.333333 0 0 1 0 426.666667z m0-277.333334a64 64 0 1 0 0 128 64 64 0 0 0 0-128zM85.333333 661.333333a128 128 0 0 0 128 128h213.333334a42.666667 42.666667 0 1 0 0-85.333333H213.333333a42.666667 42.666667 0 0 1-42.666666-42.666667v-128a42.666667 42.666667 0 0 1 42.666666-42.666666h213.333334a42.666667 42.666667 0 1 0 0-85.333334H213.333333a128 128 0 0 0-128 128v128zM213.333333 341.333333a128 128 0 0 1-128-128v-128a128 128 0 0 1 128-128h597.333334a128 128 0 0 1 128 128v128a128 128 0 0 1-128 128H213.333333z"  horiz-adv-x="1024" />
      
      <glyph glyph-name="article" unicode="&#59344;" d="M384 512h85.333333V597.333333H384v-85.333333zM128 768v-768a85.333333 85.333333 0 0 1 85.333333-85.333333h597.333334a85.333333 85.333333 0 0 1 85.333333 85.333333V597.333333a42.666667 42.666667 0 0 1-12.501333 30.165334l-213.333334 213.333333A42.666667 42.666667 0 0 1 640 853.333333H213.333333a85.333333 85.333333 0 0 1-85.333333-85.333333z m213.333333-426.666667h298.666667a42.666667 42.666667 0 1 0 0-85.333333H341.333333a42.666667 42.666667 0 1 0 0 85.333333z m-42.666666-213.333333a42.666667 42.666667 0 0 0 42.666666 42.666667h298.666667a42.666667 42.666667 0 1 0 0-85.333334H341.333333a42.666667 42.666667 0 0 0-42.666666 42.666667zM341.333333 682.666667h170.666667a42.666667 42.666667 0 0 0 42.666667-42.666667v-170.666667a42.666667 42.666667 0 0 0-42.666667-42.666666H341.333333a42.666667 42.666667 0 0 0-42.666666 42.666666V640a42.666667 42.666667 0 0 0 42.666666 42.666667z"  horiz-adv-x="1024" />
      
      <glyph glyph-name="web_page" unicode="&#59342;" d="M42.666667 661.333333a106.325333 106.325333 0 0 0 52.138666 91.690667A106.154667 106.154667 0 0 0 149.333333 768h725.333334A106.666667 106.666667 0 0 0 981.333333 661.333333v-554.666666a106.666667 106.666667 0 0 0-106.666666-106.666667h-725.333334A106.666667 106.666667 0 0 0 42.666667 106.666667v554.666666zM896 426.666667H128v-320a21.333333 21.333333 0 0 1 21.333333-21.333334h725.333334a21.333333 21.333333 0 0 1 21.333333 21.333334V426.666667zM213.333333 640a42.666667 42.666667 0 1 1 0-85.333333 42.666667 42.666667 0 0 1 0 85.333333z m85.333334-42.666667a42.666667 42.666667 0 1 1 85.333333 0 42.666667 42.666667 0 0 1-85.333333 0z"  horiz-adv-x="1024" />
      
      <glyph glyph-name="rules" unicode="&#59343;" d="M213.333333 725.333333v21.333334A106.666667 106.666667 0 0 0 320 853.333333h554.666667A106.666667 106.666667 0 0 0 981.333333 746.666667v-554.666667a106.666667 106.666667 0 0 0-106.666666-106.666667H853.333333v-64a106.666667 106.666667 0 0 0-106.666666-106.666666h-597.333334A106.666667 106.666667 0 0 0 42.666667 21.333333v597.333334A106.666667 106.666667 0 0 0 149.333333 725.333333H213.333333z m85.333334 21.333334V725.333333h448A106.666667 106.666667 0 0 0 853.333333 618.666667V170.666667h21.333334a21.333333 21.333333 0 0 1 21.333333 21.333333v554.666667a21.333333 21.333333 0 0 1-21.333333 21.333333h-554.666667a21.333333 21.333333 0 0 1-21.333333-21.333333z m-42.666667-426.666667a42.666667 42.666667 0 0 1 42.666667-42.666667h298.666666a42.666667 42.666667 0 1 1 0 85.333334H298.666667a42.666667 42.666667 0 0 1-42.666667-42.666667z m42.666667 213.333333a42.666667 42.666667 0 0 1 0-85.333333h128a42.666667 42.666667 0 1 1 0 85.333333H298.666667z m-42.666667-384a42.666667 42.666667 0 0 1 42.666667-42.666666h298.666666a42.666667 42.666667 0 1 1 0 85.333333H298.666667a42.666667 42.666667 0 0 1-42.666667-42.666667z"  horiz-adv-x="1024" />
      
      <glyph glyph-name="shield" unicode="&#59341;" d="M496.128 856.832a21.333333 21.333333 0 0 0 31.744 0l15.829333-17.621333C609.962667 765.610667 692.608 746.666667 761.6 746.666667a404.778667 404.778667 0 0 1 111.786667 16.170666 210.645333 210.645333 0 0 1 7.68 2.474667h0.128l0.042666 0.042667h0.042667l31.36 11.648a21.333333 21.333333 0 0 0 28.672-21.76l-32.256-386.858667c-9.344-112.042667-58.24-220.032-148.096-293.290667-63.914667-52.053333-146.986667-113.493333-229.546667-155.733333l-19.413333-9.941333-19.456 9.941333c-82.517333 42.24-165.589333 103.68-229.504 155.733333-89.856 73.258667-138.752 181.248-148.096 293.290667L82.688 755.2a21.333333 21.333333 0 0 0 28.672 21.76l31.36-11.562667 0.213333-0.085333a102.442667 102.442667 0 0 1 7.637334-2.474667 404.821333 404.821333 0 0 1 111.786666-16.170666c69.034667 0 151.68 18.944 217.941334 92.586666l15.829333 17.578667zM824.746667 384H512V747.946667a8.832 8.832 0 0 1-5.674667-2.005334C426.538667 678.954667 335.274667 661.333333 262.4 661.333333c-28.288 0-54.101333 2.602667-75.946667 6.101334a8.661333 8.661333 0 0 1-10.026666-9.216L199.253333 384H512v-377.173333a8.490667 8.490667 0 0 1 4.096 1.109333c67.242667 37.504 135.338667 87.978667 190.933333 133.333333 69.248 56.448 109.269333 141.653333 116.992 234.197334l0.725334 8.533333z"  horiz-adv-x="1024" />
      
      <glyph glyph-name="template2" unicode="&#59340;" d="M128 810.666667a42.666667 42.666667 0 0 1-42.666667-42.666667v-426.666667a42.666667 42.666667 0 0 1 42.666667-42.666666h362.666667a42.666667 42.666667 0 0 1 42.666666 42.666666V768a42.666667 42.666667 0 0 1-42.666666 42.666667H128zM128 213.33333300000004a42.666667 42.666667 0 0 1-42.666667-42.666666v-170.666667a42.666667 42.666667 0 0 1 42.666667-42.666667h768a42.666667 42.666667 0 0 1 42.666667 42.666667v170.666667a42.666667 42.666667 0 0 1-42.666667 42.666666H128zM661.333333 810.666667a42.666667 42.666667 0 0 1-42.666666-42.666667v-149.333333a42.666667 42.666667 0 0 1 42.666666-42.666667H896a42.666667 42.666667 0 0 1 42.666667 42.666667V768a42.666667 42.666667 0 0 1-42.666667 42.666667h-234.666667zM661.333333 533.333333a42.666667 42.666667 0 0 1-42.666666-42.666666V341.33333300000004a42.666667 42.666667 0 0 1 42.666666-42.666666H896a42.666667 42.666667 0 0 1 42.666667 42.666666V490.666667a42.666667 42.666667 0 0 1-42.666667 42.666666h-234.666667z"  horiz-adv-x="1024" />
      
      <glyph glyph-name="hazardous" unicode="&#59337;" d="M569.984 306.346667a36.437333 36.437333 0 0 1 27.392 11.733333 39.893333 39.893333 0 0 1 11.178667 28.501333 39.936 39.936 0 0 1-11.178667 28.458667 36.437333 36.437333 0 0 1-27.392 11.733333 36.096 36.096 0 0 1-27.050667-11.733333 39.722667 39.722667 0 0 1-11.178666-28.458667 39.893333 39.893333 0 0 1 11.178666-28.501333 36.010667 36.010667 0 0 1 27.050667-11.733333zM500.053333 274.133333c2.986667-3.2 7.68-4.864 13.952-4.864 9.557333 0 14.336 3.584 14.336 10.88a29.354667 29.354667 0 0 1-4.736 14.933334c-3.072 5.290667-6.485333 7.893333-10.026666 7.893333-3.541333 0-7.082667-2.389333-10.752-7.082667a23.381333 23.381333 0 0 1-5.461334-14.250666 10.794667 10.794667 0 0 1 2.645334-7.509334zM426.624 318.08c7.509333-7.808 16.64-11.733333 27.221333-11.733333a36.48 36.48 0 0 1 27.221334 11.733333 39.68 39.68 0 0 1 11.392 28.501333 39.68 39.68 0 0 1-11.392 28.458667 36.522667 36.522667 0 0 1-27.221334 11.733333 36.522667 36.522667 0 0 1-27.221333-11.733333 39.466667 39.466667 0 0 1-11.349333-28.458667 39.637333 39.637333 0 0 1 11.349333-28.501333zM585.813333 768.256c-32.853333 56.746667-114.773333 56.746667-147.626666 0L42.794667 85.418667C9.898667 28.586667 50.944-42.666667 116.650667-42.666667h790.698666c65.706667 0 106.752 71.210667 73.813334 128.085334L585.856 768.256z m64.853334-621.952c11.434667-15.274667 0.853333-18.901333-10.026667-22.613333-6.272-2.176-12.586667-4.352-14.848-8.789334-1.92-3.712-2.517333-8.106667-3.072-12.416-1.28-9.344-2.389333-18.005333-16.981333-17.152-6.741333 0.426667-8.064 4.48-9.813334 9.898667-2.133333 6.698667-4.992 15.445333-19.498666 21.930667a206.592 206.592 0 0 1-8.149334 4.437333 976.085333 976.085333 0 0 1-38.144 16.384 48 48 0 0 1-36.394666 0c-13.098667-5.290667-25.898667-10.837333-38.144-16.384-2.432-1.152-7.68-4.138667-8.106667-4.437333-14.506667-6.485333-17.365333-15.232-19.498667-21.930667-1.749333-5.418667-3.072-9.472-9.813333-9.898667-14.592-0.853333-15.786667 7.808-17.024 17.152-0.554667 4.266667-1.152 8.704-3.072 12.373334-2.261333 4.48-8.618667 6.656-14.890667 8.789333-10.837333 3.754667-21.504 7.424-10.069333 22.613333a19.2 19.2 0 0 0 23.552 5.632c11.690667-5.248 35.029333 1.664 38.101333 2.56l0.341334 0.085334a40.277333 40.277333 0 0 1 6.4 1.365333c5.717333 1.706667 11.52 3.626667 17.365333 5.546667 1.365333 0.469333 1.365333 2.389333 0 2.901333a981.845333 981.845333 0 0 1-32.896 10.24 138.154667 138.154667 0 0 1-15.018667 3.413333c-7.850667 1.365333-13.568 1.578667-19.285333-0.896-2.048-0.896-4.138667-2.218667-6.144-3.498666-6.4-4.053333-12.245333-7.808-16.341333 3.2-3.754667 9.984 4.437333 16.213333 12.202666 22.144 5.802667 4.437333 11.349333 8.618667 11.434667 14.08v1.408c0.213333 12.885333 0.512 33.28 19.541333 27.178666 9.557333-3.114667 9.813333-6.4 10.069334-10.581333 0.170667-2.901333 0.426667-6.272 3.925333-10.24a30.549333 30.549333 0 0 1 9.813333-7.338667c17.749333-8.661333 37.290667-17.365333 57.472-25.642666 11.690667-4.736 24.746667-4.736 36.394667 0a980.906667 980.906667 0 0 1 57.429333 25.6 30.976 30.976 0 0 1 9.898667 7.381333 14.933333 14.933333 0 0 1 3.925333 10.24c0.298667 4.138667 0.512 7.466667 10.026667 10.581333 19.029333 6.144 19.328-14.336 19.541333-27.264v-1.28c0.085333-5.461333 5.632-9.685333 11.434667-14.08 7.765333-5.930667 16.042667-12.202667 12.245333-22.186666-4.096-11.050667-9.984-7.253333-16.384-3.2-2.005333 1.28-4.053333 2.56-6.101333 3.498666-5.717333 2.474667-11.392 2.261333-19.242667 0.938667a139.946667 139.946667 0 0 1-15.061333-3.456c-10.666667-3.114667-21.674667-6.528-32.853333-10.24-1.408-0.469333-1.408-2.389333 0-2.858667 5.802667-1.962667 11.52-3.84 17.28-5.589333 2.133333-0.64 4.266667-1.066667 6.4-1.365333l0.341333-0.085334c2.858667-0.853333 26.453333-7.850667 38.101333-2.56a19.285333 19.285333 0 0 0 23.68-5.589333z m-44.032 289.365333c24.661333-20.906667 39.552-47.530667 44.586666-79.786666 1.066667-5.333333 1.493333-10.325333 1.493334-15.104 0-21.674667-7.125333-40.448-21.546667-56.32-14.208-15.872-33.877333-27.306667-59.221333-34.517334a5.376 5.376 0 0 1-3.925334-5.205333 23.381333 23.381333 0 0 0-7.168-17.536 29.269333 29.269333 0 0 0-20.650666-8.277333 22.954667 22.954667 0 0 0-10.538667 2.218666 4.608 4.608 0 0 1-2.005333 0.469334 4.138667 4.138667 0 0 1-2.218667-0.597334 30.378667 30.378667 0 0 0-31.957333 0.64 3.626667 3.626667 0 0 1-1.706667 0.469334 3.370667 3.370667 0 0 1-1.664-0.426667 21.674667 21.674667 0 0 0-11.562667-2.816 40.192 40.192 0 0 0-3.072 0.128 27.050667 27.050667 0 0 0-17.792 7.936 24.234667 24.234667 0 0 0-7.125333 17.792 7.68 7.68 0 0 1-5.333333 7.296 140.373333 140.373333 0 0 0-30.293334 13.824 101.12 101.12 0 0 0-22.954666 19.328 82.901333 82.901333 0 0 0-19.413334 70.741333 126.976 126.976 0 0 0 44.245334 80.213334c26.026667 22.101333 57.6 33.194667 94.933333 33.194666 37.290667 0 68.906667-11.221333 94.890667-33.664z"  horiz-adv-x="1024" />
      
      <glyph glyph-name="cylinder-recycle" unicode="&#59338;" d="M625.792 841.6A11.776 11.776 0 0 1 613.930667 853.333333H410.026667a11.776 11.776 0 0 1-11.861334-11.733333c0-6.485333 5.333333-11.733333 11.861334-11.733333h11.861333v-93.866667h-23.722667a23.594667 23.594667 0 0 1-23.68-23.466667v-48.896C307.2 652.5013329999999 256 594.56 256 524.8v-563.2c0-25.941333 21.205333-46.933333 47.402667-46.933333h417.194666c26.197333 0 47.402667 20.992 47.402667 46.933333V524.8c0 69.76-51.242667 127.658667-118.485333 138.837333V712.533333a23.594667 23.594667 0 0 1-23.722667 23.466667h-23.722667V759.466667h71.125334v-11.733334l68.138666-8.448A23.594667 23.594667 0 0 1 768 762.581333v40.704a23.637333 23.637333 0 0 1-26.666667 23.296l-68.138666-8.448V806.4H602.026667v23.466667h11.861333a11.776 11.776 0 0 1 11.861333 11.733333z m24.96-546.602667l25.088-43.434666a62.208 62.208 0 0 0-53.888-93.354667h-36.693333v-27.349333a4.266667 4.266667 0 0 0-6.698667-3.498667l-77.184 54.016a4.266667 4.266667 0 0 0 0 6.997333l77.226667 54.016a4.266667 4.266667 0 0 0 6.656-3.498666v-27.349334h36.693333a8.874667 8.874667 0 0 1 8.362667 11.861334l-0.682667 1.450666-25.088 43.477334a4.266667 4.266667 0 0 0 1.578667 5.802666l38.784 22.4a4.266667 4.266667 0 0 0 5.845333-1.536z m-211.84 45.866667l8.192-93.866667a4.266667 4.266667 0 0 0-6.4-4.053333l-23.637333 13.653333-18.346667-31.701333a8.917333 8.917333 0 0 1 6.101333-13.226667l1.578667-0.128h50.176a4.266667 4.266667 0 0 0 4.266667-4.266666v-44.8a4.266667 4.266667 0 0 0-4.266667-4.266667H406.4a62.208 62.208 0 0 0-53.888 93.354667l18.346667 31.744-23.722667 13.653333a4.266667 4.266667 0 0 0 0.341333 7.594667l85.376 39.808a4.266667 4.266667 0 0 0 6.058667-3.498667z m129.152 97.322667l18.304-31.744 23.722667 13.696a4.266667 4.266667 0 0 0 6.4-4.053334l-8.192-93.866666a4.266667 4.266667 0 0 0-6.058667-3.498667l-85.418667 39.808a4.266667 4.266667 0 0 0-0.341333 7.594667l23.722667 13.653333-18.346667 31.786667a8.874667 8.874667 0 0 1-14.506667 1.28l-0.853333-1.28-25.088-43.477334a4.266667 4.266667 0 0 0-5.845333-1.578666l-38.826667 22.442666a4.266667 4.266667 0 0 0-1.536 5.802667l25.088 43.434667a62.250667 62.250667 0 0 0 107.776 0z"  horiz-adv-x="1024" />
      
      <glyph glyph-name="send" unicode="&#59339;" d="M925.781333 798.549333a42.666667 42.666667 0 0 0 10.581334-44.373333l-277.205334-810.666667a42.666667 42.666667 0 0 0-81.749333 3.456l-88.533333 353.536 174.122666 173.781334a42.666667 42.666667 0 1 1-60.288 60.416l-177.834666-177.493334L77.226667 424.533333a42.666667 42.666667 0 0 0-6.784 81.92l810.666666 301.568a42.666667 42.666667 0 0 0 44.672-9.386666z"  horiz-adv-x="1024" />
      
      <glyph glyph-name="free_fund" unicode="&#59335;" d="M64 682.666667A106.666667 106.666667 0 0 0 170.666667 789.333333h682.666666A106.666667 106.666667 0 0 0 960 682.666667v-334.208c0-7.210667-8.533333-11.264-14.378667-7.125334a234.666667 234.666667 0 0 1-310.912-347.264c5.12-5.76 1.152-15.402667-6.570666-15.402666H170.666667A106.666667 106.666667 0 0 0 64 85.333333V682.666667z m288.768-79.36a42.666667 42.666667 0 1 1-65.536-54.613334L335.573333 490.666667H298.666667a42.666667 42.666667 0 0 1 0-85.333334h85.333333v-42.666666H298.666667a42.666667 42.666667 0 1 1 0-85.333334h85.333333v-85.333333a42.666667 42.666667 0 1 1 85.333333 0v85.333333h85.333334a42.666667 42.666667 0 1 1 0 85.333334h-85.333334v42.666666h85.333334a42.666667 42.666667 0 1 1 0 85.333334h-36.906667l48.341333 58.026666a42.666667 42.666667 0 1 1-65.536 54.613334L426.666667 514.645333 352.768 603.306667zM1000.234667 211.157333a8.533333 8.533333 0 0 1 0 11.946667l-105.173334 107.093333a8.533333 8.533333 0 0 1-14.634666-5.973333v-64.426667h-119.125334a8.533333 8.533333 0 0 1-8.533333-8.533333v-68.266667c0-4.693333 3.84-8.533333 8.533333-8.533333h119.125334v-64.426667a8.533333 8.533333 0 0 1 14.634666-6.016l105.173334 107.093334zM608.298667 88.362667a8.533333 8.533333 0 0 0 0 11.946666l105.173333 107.136a8.533333 8.533333 0 0 0 14.634667-5.973333v-64.426667h119.125333c4.693333 0 8.533333-3.84 8.533333-8.533333v-68.266667a8.533333 8.533333 0 0 0-8.533333-8.533333h-119.125333V-12.8a8.533333 8.533333 0 0 0-14.634667-5.973333l-105.173333 107.136z"  horiz-adv-x="1024" />
      
      <glyph glyph-name="authorized_fund" unicode="&#59336;" d="M64 682.666667A106.666667 106.666667 0 0 0 170.666667 789.333333h682.666666A106.666667 106.666667 0 0 0 960 682.666667v-334.208c0-7.210667-8.533333-11.264-14.378667-7.125334a234.666667 234.666667 0 0 1-310.912-347.264c5.12-5.76 1.152-15.402667-6.570666-15.402666H170.666667A106.666667 106.666667 0 0 0 64 85.333333V682.666667z m288.768-79.36a42.666667 42.666667 0 1 1-65.536-54.613334L335.573333 490.666667H298.666667a42.666667 42.666667 0 0 1 0-85.333334h85.333333v-42.666666H298.666667a42.666667 42.666667 0 1 1 0-85.333334h85.333333v-85.333333a42.666667 42.666667 0 1 1 85.333333 0v85.333333h85.333334a42.666667 42.666667 0 1 1 0 85.333334h-85.333334v42.666666h85.333334a42.666667 42.666667 0 1 1 0 85.333334h-36.906667l48.341333 58.026666a42.666667 42.666667 0 1 1-65.536 54.613334L426.666667 514.645333 352.768 603.306667zM813.226667 320c-19.754667 0-43.434667-4.650667-62.72-19.2-20.224-15.317333-32.981333-39.594667-32.981334-72.96 0-33.408 12.288-54.954667 24.362667-69.845333 2.901333-3.541333 5.674667-6.656 8.106667-9.216l1.664-1.834667 2.986666-3.285333h-64a29.354667 29.354667 0 0 1-29.269333-29.312l-0.042667-63.658667a21.333333 21.333333 0 0 1 21.333334-21.333333h256a21.333333 21.333333 0 0 1 21.333333 21.333333V114.346667a29.354667 29.354667 0 0 1-29.354667 29.312H866.56a122.709333 122.709333 0 0 0 6.144 6.954666l0.170667 0.213334c2.218667 2.346667 4.906667 5.248 7.68 8.533333 12.117333 14.293333 24.533333 34.901333 24.533333 68.48 0 32.597333-11.221333 56.874667-30.506667 72.533333-18.474667 14.933333-41.557333 19.626667-61.354666 19.626667z"  horiz-adv-x="1024" />
      
      <glyph glyph-name="consume" unicode="&#59334;" d="M170.666667 810.666667a42.666667 42.666667 0 0 1 0-85.333334h682.666666a42.666667 42.666667 0 1 1 0 85.333334H170.666667zM42.666667 597.333333a85.333333 85.333333 0 0 0 85.333333 85.333334h768a85.333333 85.333333 0 0 0 85.333333-85.333334v-554.666666a85.333333 85.333333 0 0 0-85.333333-85.333334H128a85.333333 85.333333 0 0 0-85.333333 85.333334V597.333333z m392.832-76.501333a42.666667 42.666667 0 0 1-60.330667-60.330667l55.168-55.168H384a42.666667 42.666667 0 1 1 0-85.333333h85.333333v-42.666667H384a42.666667 42.666667 0 1 1 0-85.333333h85.333333v-42.666667a42.666667 42.666667 0 1 1 85.333334 0v42.666667h85.333333a42.666667 42.666667 0 1 1 0 85.333333h-85.333333v42.666667h85.333333a42.666667 42.666667 0 1 1 0 85.333333h-46.336l55.168 55.168a42.666667 42.666667 0 0 1-60.330667 60.330667L512 444.330667l-76.501333 76.501333z"  horiz-adv-x="1024" />
      
      <glyph glyph-name="local" unicode="&#59331;" d="M105.002667-35.92533300000002a42.666667 42.666667 0 0 1 40.874666-2.816l235.306667 120.064 275.712-120.448a42.624 42.624 0 0 1 34.901333 0.384l225.536 128a42.666667 42.666667 0 0 1 24.789334 38.741333V768a42.666667 42.666667 0 0 1-60.586667 38.741333L673.28 686.677333 397.568 807.125333a42.666667 42.666667 0 0 1-34.901333-0.384l-252.544-128A42.666667 42.666667 0 0 1 85.333333 640v-640a42.666667 42.666667 0 0 1 19.669334-35.925333zM631.253333 611.8399999999999v-547.2L423.210667 156.15999999999997V703.274667l208.042666-91.392z"  horiz-adv-x="1024" />
      
      <glyph glyph-name="reimbursement" unicode="&#59330;" d="M764.928 826.496a42.666667 42.666667 0 0 1-55.466667 23.765333L183.808 640H85.333333a42.666667 42.666667 0 0 1-42.666666-42.666667v-170.666666a42.666667 42.666667 0 0 1 42.666666-42.666667c22.912 0 44.416-7.68 59.648-21.205333 14.464-12.842667 25.685333-33.024 25.685334-64.128 0-31.104-11.221333-51.285333-25.685334-64.128C129.749333 221.013333 108.245333 213.33333300000004 85.333333 213.33333300000004a42.666667 42.666667 0 0 1-42.666666-42.666666v-170.666667a42.666667 42.666667 0 0 1 42.666666-42.666667h853.333334a42.666667 42.666667 0 0 1 42.666666 42.666667v170.666667a42.666667 42.666667 0 0 1-42.666666 42.666666c-17.92 0-39.338667 9.344-57.045334 27.989334-17.408 18.432-28.288 42.922667-28.288 68.010666 0 44.16 37.290667 74.666667 85.333334 74.666667a42.666667 42.666667 0 0 1 42.666666 42.666667V597.333333a42.666667 42.666667 0 0 1-42.666666 42.666667h-99.114667l-74.624 186.496zM747.648 640h-334.08l288 115.2 46.08-115.2zM320 597.333333a42.666667 42.666667 0 0 0 42.666667-42.666666v-64a42.666667 42.666667 0 0 0-85.333334 0V554.666667a42.666667 42.666667 0 0 0 42.666667 42.666666z m0-192a42.666667 42.666667 0 0 0 42.666667-42.666666v-128a42.666667 42.666667 0 1 0-85.333334 0v128a42.666667 42.666667 0 0 0 42.666667 42.666666z m0-256a42.666667 42.666667 0 0 0 42.666667-42.666666V42.66666699999996a42.666667 42.666667 0 1 0-85.333334 0v64a42.666667 42.666667 0 0 0 42.666667 42.666666z m119.168 350.165334a42.666667 42.666667 0 0 0 60.330667 0l76.501333-76.501334 76.501333 76.501334a42.666667 42.666667 0 1 0 60.330667-60.330667L657.664 384H704a42.666667 42.666667 0 1 0 0-85.333333h-85.333333v-42.666667h85.333333a42.666667 42.666667 0 1 0 0-85.333333h-85.333333v-42.666667a42.666667 42.666667 0 1 0-85.333334 0v42.666667h-85.333333a42.666667 42.666667 0 1 0 0 85.333333h85.333333v42.666667h-85.333333a42.666667 42.666667 0 1 0 0 85.333333h46.336l-55.168 55.168a42.666667 42.666667 0 0 0 0 60.330667z"  horiz-adv-x="1024" />
      
      <glyph glyph-name="schedule" unicode="&#59326;" d="M213.333333 725.333333v21.333334A106.666667 106.666667 0 0 0 320 853.333333h554.666667A106.666667 106.666667 0 0 0 981.333333 746.666667v-554.666667a106.666667 106.666667 0 0 0-106.666666-106.666667H853.333333v-64a106.666667 106.666667 0 0 0-106.666666-106.666666h-597.333334A106.666667 106.666667 0 0 0 42.666667 21.333333v597.333334A106.666667 106.666667 0 0 0 149.333333 725.333333H213.333333z m85.333334 21.333334V725.333333h448A106.666667 106.666667 0 0 0 853.333333 618.666667V170.666667h21.333334a21.333333 21.333333 0 0 1 21.333333 21.333333v554.666667a21.333333 21.333333 0 0 1-21.333333 21.333333h-554.666667a21.333333 21.333333 0 0 1-21.333333-21.333333z m-42.666667-426.666667a42.666667 42.666667 0 0 1 42.666667-42.666667h298.666666a42.666667 42.666667 0 1 1 0 85.333334H298.666667a42.666667 42.666667 0 0 1-42.666667-42.666667z m42.666667 213.333333a42.666667 42.666667 0 0 1 0-85.333333h128a42.666667 42.666667 0 1 1 0 85.333333H298.666667z m-42.666667-384a42.666667 42.666667 0 0 1 42.666667-42.666666h298.666666a42.666667 42.666667 0 1 1 0 85.333333H298.666667a42.666667 42.666667 0 0 1-42.666667-42.666667z"  horiz-adv-x="1024" />
      
      <glyph glyph-name="tablet02" unicode="&#59329;" d="M298.666667 554.666667H234.666667a21.333333 21.333333 0 0 1-21.333334-21.333334V469.333333a21.333333 21.333333 0 0 1 21.333334-21.333333H298.666667a21.333333 21.333333 0 0 1 21.333333 21.333333V533.333333A21.333333 21.333333 0 0 1 298.666667 554.666667zM298.666667 405.333333H234.666667a21.333333 21.333333 0 0 1-21.333334-21.333333v-64a21.333333 21.333333 0 0 1 21.333334-21.333333H298.666667a21.333333 21.333333 0 0 1 21.333333 21.333333V384a21.333333 21.333333 0 0 1-21.333333 21.333333zM437.333333 554.666667h64a21.333333 21.333333 0 0 0 21.333334-21.333334V469.333333a21.333333 21.333333 0 0 0-21.333334-21.333333h-64a21.333333 21.333333 0 0 0-21.333333 21.333333V533.333333a21.333333 21.333333 0 0 0 21.333333 21.333334zM501.333333 405.333333h-64a21.333333 21.333333 0 0 1-21.333333-21.333333v-64a21.333333 21.333333 0 0 1 21.333333-21.333333h64a21.333333 21.333333 0 0 1 21.333334 21.333333V384a21.333333 21.333333 0 0 1-21.333334 21.333333zM640 554.666667h64a21.333333 21.333333 0 0 0 21.333333-21.333334V469.333333a21.333333 21.333333 0 0 0-21.333333-21.333333H640a21.333333 21.333333 0 0 0-21.333333 21.333333V533.333333A21.333333 21.333333 0 0 0 640 554.666667zM42.666667 661.333333a85.333333 85.333333 0 0 0 85.333333 85.333334h768a85.333333 85.333333 0 0 0 85.333333-85.333334V85.333333a85.333333 85.333333 0 0 0-85.333333-85.333333H128a85.333333 85.333333 0 0 0-85.333333 85.333333V661.333333z m832-21.333333h-725.333334v-426.666667h725.333334V640z m-213.333334-490.666667l-42.666666-85.333333h42.666666l42.666667 85.333333h-42.666667z m85.333334 0l-42.666667-85.333333h42.666667l42.666666 85.333333h-42.666666z m85.333333 0l-42.666667-85.333333h42.666667l42.666667 85.333333h-42.666667z"  horiz-adv-x="1024" />
      
      <glyph glyph-name="apply02" unicode="&#59328;" d="M213.333333 853.333333a85.333333 85.333333 0 0 1-85.333333-85.333333v-768a85.333333 85.333333 0 0 1 85.333333-85.333333h295.253334c6.613333 0 10.837333 7.210667 8.533333 13.397333A85.162667 85.162667 0 0 0 512-42.666667v85.333334a85.333333 85.333333 0 0 0 25.002667 60.330666l213.333333 213.333334a85.333333 85.333333 0 0 0 120.661333 0l10.453334-10.410667A8.533333 8.533333 0 0 1 896 311.893333V597.333333a42.666667 42.666667 0 0 1-12.501333 30.165334l-213.333334 213.333333A42.666667 42.666667 0 0 1 640 853.333333H213.333333z m277.333334-426.666666h-170.666667a42.666667 42.666667 0 1 0 0 85.333333h170.666667a42.666667 42.666667 0 1 0 0-85.333333z m128-128a42.666667 42.666667 0 0 0-42.666667-42.666667h-256a42.666667 42.666667 0 1 0 0 85.333333h256a42.666667 42.666667 0 0 0 42.666667-42.666666zM780.501333 286.165333a42.666667 42.666667 0 0 0 60.330667 0l85.333333-85.333333a42.666667 42.666667 0 0 0 0-60.330667l-213.333333-213.333333A42.666667 42.666667 0 0 0 682.666667-85.333333h-85.333334a42.666667 42.666667 0 0 0-42.666666 42.666666v85.333334a42.666667 42.666667 0 0 0 12.501333 30.165333l213.333333 213.333333z"  horiz-adv-x="1024" />
      
      <glyph glyph-name="filter02" unicode="&#59327;" d="M137.6 861.44a42.666667 42.666667 0 1 1-61.866667-58.88l65.706667-69.077333c-29.226667-21.717333-38.826667-65.877333-12.245333-98.304C195.2 554.538667 340.778667 376.96 384 325.589333V85.333333a42.666667 42.666667 0 0 1 23.594667-38.144l170.666666-85.333333A42.666667 42.666667 0 0 1 640 0v209.408l267.733333-281.472a42.666667 42.666667 0 0 1 61.866667 58.794667L137.6 861.44zM554.666667 299.093333V69.077333l-85.333334 42.666667V341.333333a42.666667 42.666667 0 0 1-11.093333 28.714667c-10.794667 11.861333-109.610667 132.053333-190.592 230.826667L554.666667 299.093333zM405.333333 746.666667a42.666667 42.666667 0 1 1 0-85.333334h400.597334a115489.706667 115489.706667 0 0 0-134.826667-164.266666l-0.042667-0.085334-26.197333-31.573333a42.666667 42.666667 0 1 1 65.664-54.485333l26.325333 31.701333 0.085334 0.128c55.594667 67.626667 119.594667 145.706667 157.866666 192.426667 36.693333 44.8 4.565333 111.488-52.821333 111.488H405.333333z"  horiz-adv-x="1024" />
      
      <glyph glyph-name="users" unicode="&#59325;" d="M213.333333 618.666667a192 192 0 1 0 384 0 192 192 0 0 0-384 0zM717.653333 783.232a42.666667 42.666667 0 0 1-44.032-73.130667A106.581333 106.581333 0 0 0 725.333333 618.666667c0-38.741333-20.650667-72.704-51.712-91.434667a42.666667 42.666667 0 0 1 44.032-73.088A191.914667 191.914667 0 0 1 810.666667 618.666667c0 69.888-37.376 130.986667-93.013334 164.565333zM42.666667 128a213.333333 213.333333 0 0 0 213.333333 213.333333h298.666667a213.333333 213.333333 0 0 0 213.333333-213.333333v-123.733333a46.933333 46.933333 0 0 0-46.933333-46.933334H89.6A46.933333 46.933333 0 0 0 42.666667 4.266666999999984V128zM864.128 318.506667a42.666667 42.666667 0 1 1-38.485333-76.16A128 128 0 0 0 896 128v-128a42.666667 42.666667 0 1 1 85.333333 0v128a213.333333 213.333333 0 0 1-117.205333 190.506667z"  horiz-adv-x="1024" />
      
      <glyph glyph-name="warn" unicode="&#59322;" d="M522.965333 805.909333a42.666667 42.666667 0 0 0 15.146667-15.146666l426.730667-725.333334a42.666667 42.666667 0 0 0-36.778667-64.32H74.602667a42.666667 42.666667 0 0 0-36.778667 64.298667L464.554667 790.762667a42.666667 42.666667 0 0 0 58.410666 15.146666zM512 214.144a42.581333 42.581333 0 1 1 0-85.205333 42.581333 42.581333 0 1 1 0 85.226666z m0 340.864c-23.509333 0-42.666667-18.645333-42.666667-41.685333V298.453333c0-22.976 19.157333-41.685333 42.666667-41.685333 23.616 0 42.666667 18.709333 42.666667 41.685333V513.322667c0 23.04-19.050667 41.685333-42.666667 41.685333z"  horiz-adv-x="1024" />
      
      <glyph glyph-name="essay" unicode="&#59323;" d="M362.666667 256a42.666667 42.666667 0 1 1 0-85.333333h298.666666a42.666667 42.666667 0 1 1 0 85.333333h-298.666666zM320 384a42.666667 42.666667 0 0 0 42.666667 42.666667h298.666666a42.666667 42.666667 0 1 0 0-85.333334h-298.666666a42.666667 42.666667 0 0 0-42.666667 42.666667zM362.666667 597.333333a42.666667 42.666667 0 0 1 0-85.333333h42.666666a42.666667 42.666667 0 1 1 0 85.333333h-42.666666zM213.333333 853.333333a85.333333 85.333333 0 0 1-85.333333-85.333333v-768a85.333333 85.333333 0 0 1 85.333333-85.333333h597.333334a85.333333 85.333333 0 0 1 85.333333 85.333333V597.461333a42.538667 42.538667 0 0 1-12.501333 30.037334l-213.333334 213.333333-0.298666 0.298667A42.496 42.496 0 0 1 640.170667 853.333333H213.333333z m469.333334-145.664L750.336 640H682.666667V707.669333zM213.333333 768h384v-170.666667a42.666667 42.666667 0 0 1 42.666667-42.666666h170.666667v-554.666667H213.333333V768z"  horiz-adv-x="1024" />
      
      <glyph glyph-name="video" unicode="&#59324;" d="M128 768a85.333333 85.333333 0 0 1-85.333333-85.333333v-597.333334a85.333333 85.333333 0 0 1 85.333333-85.333333h597.333333a85.333333 85.333333 0 0 1 85.333334 85.333333v85.333334l102.4-76.8A42.666667 42.666667 0 0 1 981.333333 128V618.666667a42.666667 42.666667 0 0 1-68.266666 34.133333L810.666667 576V682.666667a85.333333 85.333333 0 0 1-85.333334 85.333333H128z m239.573333-258.645333l185.813334-118.272a17.066667 17.066667 0 0 0 0-28.757334l-185.813334-118.314666a17.066667 17.066667 0 0 0-26.24 14.506666v236.373334a17.109333 17.109333 0 0 0 26.24 14.464z"  horiz-adv-x="1024" />
      
      <glyph glyph-name="pc-off-online" unicode="&#58908;" d="M0 896h1024v-1024H0zM622.208 819.712a27.456 27.456 0 0 1 0-54.912 289.152 289.152 0 0 0 288.832-288.768 27.456 27.456 0 0 1 54.784 0 344 344 0 0 1-343.616 343.68zM622.208 688.512a27.456 27.456 0 0 1 0-54.912 157.76 157.76 0 0 0 157.632-157.568 27.456 27.456 0 0 1 54.784 0 212.672 212.672 0 0 1-212.416 212.48zM802.88 416.96a27.2 27.2 0 0 1-27.2-27.2v-126.144H112.512V587.072c0 20.288 16.512 36.8 36.8 36.8h402.944a27.2 27.2 0 0 1 0 54.4H149.312c-50.304 0-91.2-40.896-91.2-91.2v-409.024c0-50.304 40.896-91.2 91.2-91.2h267.584v-84.16H241.088a27.2 27.2 0 0 1 0-54.4h406.08a27.2 27.2 0 0 1 0 54.4H471.296v84.16h267.584c50.304 0 91.2 40.896 91.2 91.2V389.76a27.264 27.264 0 0 1-27.2 27.2z m-64-275.712H149.312a36.864 36.864 0 0 0-36.8 36.8v31.232H775.68v-31.168a36.864 36.864 0 0 0-36.8-36.864z"  horiz-adv-x="1024" />
      
      <glyph glyph-name="pc-on-offline" unicode="&#58909;" d="M0 896h1024v-1024H0zM811.52 473.408a27.2 27.2 0 0 1-27.2-27.2v-166.72H121.216V602.944c0 20.288 16.512 36.8 36.8 36.8h453.952a27.2 27.2 0 0 1 0 54.4H158.016c-50.304 0-91.2-40.896-91.2-91.2v-409.024c0-50.304 40.896-91.2 91.2-91.2H425.6v-84.16H249.664a27.2 27.2 0 0 1 0-54.4h406.144a27.2 27.2 0 0 1 0 54.4H479.936v84.16h267.584c50.304 0 91.2 40.896 91.2 91.2V446.272a27.264 27.264 0 0 1-27.2 27.136z m-27.2-248.256v-31.168a36.864 36.864 0 0 0-36.8-36.8H158.016a36.864 36.864 0 0 0-36.8 36.8v31.168h663.104zM833.92 635.264l118.08 118.016a29.44 29.44 0 0 1 8.384 21.824 32.32 32.32 0 0 1-9.472 22.144 32.64 32.64 0 0 1-22.912 9.792 29.696 29.696 0 0 1-20.928-8.64l-118.08-118.144-118.016 118.08a29.888 29.888 0 0 1-20.992 8.704 32.32 32.32 0 0 1-22.912-9.792 32.704 32.704 0 0 1-9.536-22.976c0-8.128 2.944-15.616 8.384-20.992l118.08-118.016-117.696-117.696a29.376 29.376 0 0 1-8.704-21.888 32.64 32.64 0 0 1 9.792-22.08 32.512 32.512 0 0 1 22.912-9.728c7.872 0 15.36 3.072 20.928 8.704l117.696 117.696 117.696-117.696a29.44 29.44 0 0 1 20.992-8.704c8.512 0 16.64 3.456 22.912 9.728a30.784 30.784 0 0 1 1.152 43.968l-117.76 117.696z"  horiz-adv-x="1024" />
      
      <glyph glyph-name="diagnose" unicode="&#58897;" d="M213.333333 384a298.666667 298.666667 0 1 0 597.333334 0 298.666667 298.666667 0 0 0-597.333334 0z m284.672 185.770667a32 32 0 0 1-62.208 3.925333l-67.669333-225.493333H298.666667a32 32 0 1 1 0-64h93.269333a32 32 0 0 1 30.677333 22.784l34.944 116.48 37.546667-225.28a32 32 0 0 1 60.885333-7.552l55.765334 127.146666 23.722666-24.064a32 32 0 0 1 22.784-9.514666H725.333333a32 32 0 0 1 0 64h-53.674666l-47.445334 48.128a32 32 0 0 1-52.096-9.6l-31.573333-71.936-42.538667 254.976zM42.666667 384C42.666667 643.2 252.8 853.333333 512 853.333333s469.333333-210.133333 469.333333-469.333333c0-114.261333-40.832-218.965333-108.672-300.373333l106.538667-106.453334a42.666667 42.666667 0 0 0-60.330667-60.373333l-106.538666 106.538667A467.456 467.456 0 0 0 512-85.33333300000004C252.8-85.33333300000004 42.666667 124.79999999999995 42.666667 384z m745.728-266.581333a384 384 0 1 1-9.813334-9.813334 42.368 42.368 0 0 0 9.813334 9.813334z"  horiz-adv-x="1024" />
      
      </font>
</defs>
</svg>
