<?xml version="1.0" standalone="no"?>
<!DOCTYPE svg PUBLIC "-//W3C//DTD SVG 1.1//EN" "http://www.w3.org/Graphics/SVG/1.1/DTD/svg11.dtd" >
<!--
2013-9-30: Created.
-->
<svg>
<metadata>
Created by iconfont
</metadata>
<defs>

<font id="iconfont" horiz-adv-x="1024" >
  <font-face
    font-family="iconfont"
    font-weight="500"
    font-stretch="normal"
    units-per-em="1024"
    ascent="896"
    descent="-128"
  />
    <missing-glyph />
    
    <glyph glyph-name="limsdaijiancetubiao" unicode="&#58897;" d="M945.408 28.288l-154.88 150.336a46.912 46.912 0 0 1-14.72 9.408 393.6 393.6 0 0 1 80.256 238.016c0 218.368-177.664 396.032-396.032 396.032S64 644.416 64 426.048s177.664-396.032 396.032-396.032a394.24 394.24 0 0 1 254.528 93.056 48.64 48.64 0 0 1 9.088-13.312l154.88-150.336a47.68 47.68 0 0 1 67.84 1.024 47.872 47.872 0 0 1-0.96 67.84z m-485.376 91.328A306.688 306.688 0 0 0 153.6 426.048c0 168.96 137.408 306.432 306.432 306.432s306.432-137.472 306.432-306.432a306.688 306.688 0 0 0-306.432-306.432zM192.192 398.336l41.152 6.336a28.16 28.16 0 0 0 16.448-2.496l99.712-47.936 42.432 211.392a28.096 28.096 0 0 0 51.712 8.64l115.136-196.16 26.496 126.016a28.352 28.352 0 0 0 15.168 19.456 27.776 27.776 0 0 0 24.64-0.064l50.624-24.96 41.216 10.24c1.152 0.256 2.24 0 3.328 0.128-35.264 110.784-137.792 191.552-260.288 191.552a274.432 274.432 0 0 1-274.432-274.432c0-9.92 1.92-19.392 2.944-29.056 1.344 0.384 2.368 1.152 3.712 1.344zM730.432 454.336l-51.136-12.672a28.544 28.544 0 0 0-19.136 2.048l-27.392 13.504-33.984-161.664a28.16 28.16 0 0 0-51.648-8.384L432.512 482.496l-35.072-174.72a28.288 28.288 0 0 0-39.744-19.776l-124.416 59.904-32.576-4.992h-0.832c35.392-110.656 137.792-191.296 260.224-191.296a274.432 274.432 0 0 1 274.432 274.432c0 9.856-1.856 19.2-2.88 28.8-0.448-0.128-0.768-0.448-1.216-0.512z"  horiz-adv-x="1024" />

    
    <glyph glyph-name="limskongzhizhuangtaitubiao_lanyaduankai" unicode="&#58888;" d="M555.84 384.064l197.248 153.728a45.696 45.696 0 0 1 17.664 35.328 45.12 45.12 0 0 1-16.512 36.224L534.464 793.216a46.08 46.08 0 0 1-75.456-35.456v-300.032L273.792 598.464a37.44 37.44 0 0 1-24.32 7.168h-2.752a36.48 36.48 0 0 1-31.36-41.344c1.28-9.664 6.336-18.368 14.208-24.256l205.952-156.544-206.208-160.512a36.672 36.672 0 0 1-6.464-51.328c6.336-8.256 15.424-12.8 28.928-14.144a37.248 37.248 0 0 1 22.464 7.68l184.832 143.616v-298.624a45.888 45.888 0 0 1 46.144-46.144 46.528 46.528 0 0 1 29.888 11.072l219.84 187.904a46.72 46.72 0 0 1 15.872 36.288 47.168 47.168 0 0 1-18.176 35.328L555.84 384.064z m125.376-187.392l-148.864-127.36V309.824l148.864-113.152zM532.288 458.816v240.64l148.928-124.608-148.928-116.032z"  horiz-adv-x="1024" />

    
    <glyph glyph-name="limskongzhizhuangtaitubiao_lanyalianjie" unicode="&#58889;" d="M555.84 384.064l197.248 153.728a45.696 45.696 0 0 1 17.664 35.328 45.12 45.12 0 0 1-16.512 36.224L534.464 793.216a46.08 46.08 0 0 1-75.456-35.456v-300.032L273.792 598.464a37.44 37.44 0 0 1-24.32 7.168h-2.752a36.48 36.48 0 0 1-31.36-41.344c1.28-9.664 6.336-18.368 14.208-24.256l205.952-156.544-206.208-160.512a36.672 36.672 0 0 1-6.464-51.328c6.336-8.256 15.424-12.8 28.928-14.144a37.248 37.248 0 0 1 22.464 7.68l184.832 143.616v-298.624a45.888 45.888 0 0 1 46.144-46.144 46.528 46.528 0 0 1 29.888 11.072l219.84 187.904a46.72 46.72 0 0 1 15.872 36.288 47.168 47.168 0 0 1-18.176 35.328L555.84 384.064z m125.376-187.392l-148.864-127.36V309.824l148.864-113.152zM532.288 458.816v240.64l148.928-124.608-148.928-116.032z"  horiz-adv-x="1024" />

    
    <glyph glyph-name="limskongzhizhuangtaitubiao_diankongweikaiqiweilianwang" unicode="&#58890;" d="M314.56 297.984l282.752 282.944a8.448 8.448 0 0 1 2.368 5.952 8.96 8.96 0 0 1-2.368 5.952L491.2 698.816a208.512 208.512 0 0 1-263.936 25.28L150.208 801.152l-0.256-0.256a39.488 39.488 0 0 1-66.88-28.352c0-10.624 4.352-20.224 11.264-27.264l-0.064-0.064 77.12-77.12a207.232 207.232 0 0 1-35.712-116.736c0-53.312 20.288-106.624 60.992-147.328L302.72 297.984c3.264-3.2 8.576-3.2 11.84 0l44.736 44.736M930.24 23.296l-77.12 77.056a208.448 208.448 0 0 1-25.28 263.872L721.92 470.336a8.896 8.896 0 0 1-5.952 2.368 8.192 8.192 0 0 1-5.952-2.368l-44.736-44.736-9.728 9.728a65.984 65.984 0 0 0-36.672-12.48c-18.368 0-35.84 7.36-49.152 20.672a69.504 69.504 0 0 0-20.672 47.808c-0.064 2.24 0.96 4.224 1.152 6.464a34.752 34.752 0 0 1-3.328-53.12l68.736-68.736L521.6 281.92 452.8 350.784a34.88 34.88 0 0 1-25.088 10.816 35.2 35.2 0 0 1-25.024-59.904l-0.064-0.128 69.184-69.184-44.736-44.736a8.448 8.448 0 0 1 0-11.776l106.048-106.048a207.616 207.616 0 0 1 147.328-60.992c40.832 0 81.6 11.84 116.672 35.712l77.12-77.12 0.064 0.064c7.04-6.912 16.64-11.264 27.264-11.264a39.488 39.488 0 0 1 28.352 66.88l0.32 0.192zM811.136 634.944l114.432 114.432c13.568 13.568 13.056 36.992-1.088 51.136-14.656 14.656-37.12 15.168-51.136 1.088l-114.432-114.432-114.432 114.432c-14.08 14.08-36.48 13.568-51.2-1.088-14.144-14.144-14.592-37.568-1.024-51.136l114.432-114.432-114.112-114.048a35.84 35.84 0 0 1 1.152-51.2 35.84 35.84 0 0 1 51.136-1.088l114.048 114.048 114.048-114.048a35.84 35.84 0 0 1 51.136 1.088c14.656 14.656 15.168 37.12 1.088 51.136l-114.048 114.112z"  horiz-adv-x="1024" />

    
    <glyph glyph-name="limskongzhizhuangtaitubiao_diankongkaiqilianwang" unicode="&#58891;" d="M894.528 23.04l0.256 0.256-77.12 77.056a208.448 208.448 0 0 1-25.28 263.872L686.4 470.336a8.896 8.896 0 0 1-5.952 2.368 8.192 8.192 0 0 1-5.952-2.368l-44.672-44.736-69.312 69.312-0.128-0.128a34.56 34.56 0 0 1-24.896 10.624 35.2 35.2 0 0 1-24.128-60.736L580.16 375.936 486.144 281.92 417.28 350.784a34.624 34.624 0 0 1-25.024 10.816 35.2 35.2 0 0 1-25.024-59.904l-0.064-0.128 69.184-69.184-44.736-44.736a8.448 8.448 0 0 1 0-11.776l106.048-106.048a207.616 207.616 0 0 1 147.328-60.992c40.832 0 81.6 11.84 116.672 35.712l77.12-77.12 0.064 0.064c7.04-6.912 16.64-11.264 27.264-11.264a39.488 39.488 0 0 1 28.416 66.816zM362.048 216.96L644.8 499.904a8.192 8.192 0 0 1 2.368 5.952 8.96 8.96 0 0 1-2.368 5.952L538.688 617.728a208.384 208.384 0 0 1-263.872 25.28L197.696 720.128l-0.256-0.32a39.488 39.488 0 0 1-66.88-28.352c0-10.624 4.352-20.224 11.264-27.264l-0.064-0.064 77.12-77.12a207.616 207.616 0 0 1-35.648-116.672c0-53.312 20.288-106.624 60.992-147.328l106.048-106.048a8.32 8.32 0 0 1 11.776 0l44.736 44.736M716.928 489.728a38.848 38.848 0 0 1 77.568 0 203.968 203.968 0 0 1-203.712 203.712 38.848 38.848 0 0 1 0-77.568c69.504 0 126.144-56.576 126.144-126.144M577.664 827.328a38.848 38.848 0 0 1 0-77.568 273.472 273.472 0 0 0 273.152-273.152 38.848 38.848 0 0 1 77.568 0A351.168 351.168 0 0 1 577.664 827.328"  horiz-adv-x="1048" />

    
    <glyph glyph-name="limskongzhizhuangtaitubiao_diannaokaiqiweilianwang" unicode="&#58892;" d="M789.376 547.008a38.848 38.848 0 0 1-38.784-38.784v-296.064a19.584 19.584 0 0 0-20.032-20.032h-600.96a19.584 19.584 0 0 0-20.032 20.032V633.472c0 11.392 8.576 20.032 20.032 20.032h448.384a38.848 38.848 0 0 1 0 77.568H129.6C75.776 731.072 32 687.296 32 633.472v-421.312c0-52.928 43.776-95.936 97.6-95.936h597.696c52.992 0 97.28 41.984 100.864 95.936V508.224a38.848 38.848 0 0 1-38.784 38.784M631.616 64H234.56a35.84 35.84 0 0 1-35.392-36.928c0-20.032 16.192-36.928 35.392-36.928h397.056a35.84 35.84 0 0 1 35.392 36.928 35.84 35.84 0 0 1-35.392 36.928M396.16 146.176v-120.64c0-19.84 16.192-35.392 36.928-35.392 20.032 0 36.928 16.192 36.928 35.392v120.64a35.84 35.84 0 0 1-36.928 35.392 35.84 35.84 0 0 1-36.928-35.392M648.256 472.576c-18.368 0-35.84 7.36-49.152 20.672a69.504 69.504 0 0 0-20.672 47.744 66.048 66.048 0 0 0 19.584 48.64l11.392 11.392H187.136a17.92 17.92 0 0 1-17.92-17.92v-319.04c0-9.92 8-17.92 17.92-17.92h485.824a17.92 17.92 0 0 1 17.92 17.92V489.024a65.92 65.92 0 0 0-42.624-16.448zM840.448 685.312l114.432 114.432c13.568 13.568 13.056 36.992-1.088 51.136-14.656 14.656-37.12 15.168-51.136 1.088l-114.432-114.432L673.792 851.968a35.84 35.84 0 0 1-51.136-1.088c-14.144-14.144-14.656-37.568-1.088-51.136L736 685.312 621.888 571.264a35.84 35.84 0 0 1 1.088-51.136 35.84 35.84 0 0 1 51.136-1.088l114.048 114.048 114.048-114.048a35.84 35.84 0 0 1 51.136 1.088c14.656 14.656 15.168 37.12 1.088 51.136l-113.984 114.048z"  horiz-adv-x="1024" />

    
    <glyph glyph-name="limskongzhizhuangtaitubiao_diannaoweikaiqilianwang" unicode="&#58893;" d="M789.376 479.552a38.848 38.848 0 0 1-38.784-38.784v-228.608a19.584 19.584 0 0 0-20.032-20.032h-600.96a19.584 19.584 0 0 0-20.032 20.032V633.472c0 11.392 8.576 20.032 20.032 20.032h408.256a38.848 38.848 0 0 1 0 77.568H129.6C75.776 731.072 32 687.296 32 633.472v-421.312c0-52.928 43.776-95.936 97.6-95.936h597.696c52.992 0 97.28 41.984 100.864 95.936V440.768a38.848 38.848 0 0 1-38.784 38.784M763.648 542.016a38.848 38.848 0 0 1 77.568 0 203.968 203.968 0 0 1-203.712 203.712 38.848 38.848 0 0 1 0-77.568c69.568 0 126.144-56.576 126.144-126.144M631.616 64H234.56a35.84 35.84 0 0 1-35.392-36.928c0-20.032 16.192-36.928 35.392-36.928h397.056a35.84 35.84 0 0 1 35.392 36.928 35.84 35.84 0 0 1-35.392 36.928M396.16 146.176v-120.64c0-19.84 16.192-35.392 36.928-35.392 20.032 0 36.928 16.192 36.928 35.392v120.64a35.84 35.84 0 0 1-36.928 35.392 35.84 35.84 0 0 1-36.928-35.392M624.384 879.68a38.848 38.848 0 0 1 0-77.568 273.472 273.472 0 0 0 273.152-273.152 38.848 38.848 0 0 1 77.568 0A351.168 351.168 0 0 1 624.384 879.68M672.96 246.208H187.136a17.92 17.92 0 0 0-17.92 17.92V583.104a17.92 17.92 0 0 0 17.92 17.92h485.824a17.92 17.92 0 0 0 17.92-17.92v-319.04a17.92 17.92 0 0 0-17.92-17.856z"  horiz-adv-x="1024" />

    
    <glyph glyph-name="limskongzhizhuangtaitubiao_diannaoweikaiqiweilianwang" unicode="&#58894;" d="M789.376 547.008a38.848 38.848 0 0 1-38.784-38.784v-296.064a19.584 19.584 0 0 0-20.032-20.032h-600.96a19.584 19.584 0 0 0-20.032 20.032V633.472c0 11.392 8.576 20.032 20.032 20.032h448.384a38.848 38.848 0 0 1 0 77.568H129.6C75.776 731.072 32 687.296 32 633.472v-421.312c0-52.928 43.776-95.936 97.6-95.936h597.696c52.992 0 97.28 41.984 100.864 95.936V508.224a38.848 38.848 0 0 1-38.784 38.784M631.616 64H234.56a35.84 35.84 0 0 1-35.392-36.928c0-20.032 16.192-36.928 35.392-36.928h397.056a35.84 35.84 0 0 1 35.392 36.928 35.84 35.84 0 0 1-35.392 36.928M396.16 146.176v-120.64c0-19.84 16.192-35.392 36.928-35.392 20.032 0 36.928 16.192 36.928 35.392v120.64a35.84 35.84 0 0 1-36.928 35.392 35.84 35.84 0 0 1-36.928-35.392M648.256 472.576c-18.368 0-35.84 7.36-49.152 20.672a69.504 69.504 0 0 0-20.672 47.744 66.048 66.048 0 0 0 19.584 48.64l11.392 11.392H187.136a17.92 17.92 0 0 1-17.92-17.92v-319.04c0-9.92 8-17.92 17.92-17.92h485.824a17.92 17.92 0 0 1 17.92 17.92V489.024a65.92 65.92 0 0 0-42.624-16.448zM840.448 685.312l114.432 114.432c13.568 13.568 13.056 36.992-1.088 51.136-14.656 14.656-37.12 15.168-51.136 1.088l-114.432-114.432L673.792 851.968a35.84 35.84 0 0 1-51.136-1.088c-14.144-14.144-14.656-37.568-1.088-51.136L736 685.312 621.888 571.264a35.84 35.84 0 0 1 1.088-51.136 35.84 35.84 0 0 1 51.136-1.088l114.048 114.048 114.048-114.048a35.84 35.84 0 0 1 51.136 1.088c14.656 14.656 15.168 37.12 1.088 51.136l-113.984 114.048z"  horiz-adv-x="1024" />

    
    <glyph glyph-name="limskongzhizhuangtaitubiao_diannaokaiqilianwang" unicode="&#58895;" d="M789.376 479.552a38.848 38.848 0 0 1-38.784-38.784v-228.608a19.584 19.584 0 0 0-20.032-20.032h-600.96a19.584 19.584 0 0 0-20.032 20.032V633.472c0 11.392 8.576 20.032 20.032 20.032h408.256a38.848 38.848 0 0 1 0 77.568H129.6C75.776 731.072 32 687.296 32 633.472v-421.312c0-52.928 43.776-95.936 97.6-95.936h597.696c52.992 0 97.28 41.984 100.864 95.936V440.768a38.848 38.848 0 0 1-38.784 38.784M763.648 542.016a38.848 38.848 0 0 1 77.568 0 203.968 203.968 0 0 1-203.712 203.712 38.848 38.848 0 0 1 0-77.568c69.568 0 126.144-56.576 126.144-126.144M631.616 64H234.56a35.84 35.84 0 0 1-35.392-36.928c0-20.032 16.192-36.928 35.392-36.928h397.056a35.84 35.84 0 0 1 35.392 36.928 35.84 35.84 0 0 1-35.392 36.928M396.16 146.176v-120.64c0-19.84 16.192-35.392 36.928-35.392 20.032 0 36.928 16.192 36.928 35.392v120.64a35.84 35.84 0 0 1-36.928 35.392 35.84 35.84 0 0 1-36.928-35.392M624.384 879.68a38.848 38.848 0 0 1 0-77.568 273.472 273.472 0 0 0 273.152-273.152 38.848 38.848 0 0 1 77.568 0A351.168 351.168 0 0 1 624.384 879.68M672.96 246.208H187.136a17.92 17.92 0 0 0-17.92 17.92V583.104a17.92 17.92 0 0 0 17.92 17.92h485.824a17.92 17.92 0 0 0 17.92-17.92v-319.04a17.92 17.92 0 0 0-17.92-17.856z"  horiz-adv-x="1024" />

    
    <glyph glyph-name="limskongzhizhuangtaitubiao_diankongkaiqiweilianwang" unicode="&#58896;" d="M870.784 23.296l-77.12 77.056a208.448 208.448 0 0 1-25.28 263.872L673.92 458.88l-33.728-33.728c-12.672-12.672-29.44-19.584-47.232-19.584-18.368 0-35.84 7.36-49.152 20.672a69.312 69.312 0 0 0-20.736 47.744 66.048 66.048 0 0 0 19.584 48.64l33.6 33.6-61.568 61.504a208.384 208.384 0 0 1-263.872 25.28L173.696 720.128l-0.256-0.256a39.488 39.488 0 0 1-66.88-28.352c0-10.624 4.352-20.224 11.264-27.264l-0.064-0.128 77.12-77.12a207.616 207.616 0 0 1-35.648-116.672c0-53.312 20.288-106.624 60.992-147.328l106.048-106.048c3.2-3.2 8.512-3.2 11.776 0l44.864 44.928 29.44-29.44-44.736-44.736a8.448 8.448 0 0 1 0-11.776l106.048-106.048a207.616 207.616 0 0 1 147.328-60.992c40.832 0 81.6 11.84 116.672 35.712l77.12-77.12 0.064 0.064c7.04-6.912 16.64-11.264 27.264-11.264a39.488 39.488 0 0 1 28.352 66.88l0.32 0.128zM462.144 281.92l-29.568 29.568 93.952 94.016 29.632-29.568-94.016-94.016zM784.896 615.552l114.432 114.432c13.568 13.568 13.056 36.992-1.088 51.136-14.656 14.656-37.12 15.168-51.136 1.088l-114.432-114.432L618.24 782.208a35.84 35.84 0 0 1-51.136-1.088c-14.144-14.144-14.656-37.632-1.088-51.2l114.432-114.432-114.112-114.048c-14.016-14.016-13.504-36.48 1.152-51.136a35.84 35.84 0 0 1 51.136-1.088l114.048 114.048 114.048-114.048a35.84 35.84 0 0 1 51.136 1.088c14.656 14.656 15.168 37.12 1.088 51.136l-114.048 114.112z"  horiz-adv-x="1024" />

    
    <glyph glyph-name="form2" unicode="&#59320;" d="M867.392 651.2l-107.52 105.408c-23.488 23.04-69.568 41.728-102.976 41.728H295.68a59.776 59.776 0 0 1-60.16-58.88l0.128-296.704h51.904V729.088c0.192 6.592 10.624 17.216 17.28 17.28h363.008v-190.144h190.208c0.896-4.48 0-31.04 0-34.624 0.128-319.36 0.128-481.216 0-485.632-0.192-6.592-10.56-15.552-17.28-15.68H304.832c-3.2-0.064-7.552 4.928-9.856 7.232a11.776 11.776 0 0 0-3.584 8.512v30.592H235.52v-39.424c0.384-32.64 27.2-59.008 60.096-58.88h554.24c32.96 0 60.032 26.56 60.032 58.88V531.2c-0.064 32.384-19.072 97.024-42.496 120z m-150.016-41.6V716.8l108.16-107.2h-108.16z m37.44-229.376v-256h-640v256h640zM597.888 345.6c-19.712 0-35.84-4.352-48.64-13.312a43.328 43.328 0 0 1-20.48-38.144c0-16.128 6.912-28.416 20.992-36.864 5.376-3.072 19.456-8.192 41.984-15.36 20.224-6.144 32-10.24 35.584-12.032 11.264-5.632 17.152-13.312 17.152-23.04 0-7.68-4.096-13.568-11.776-18.176-7.68-4.352-18.432-6.656-31.744-6.656-15.104 0-26.112 2.816-33.28 7.936-7.936 5.888-12.8 15.872-14.848 29.696h-29.696c1.28-23.296 9.728-40.192 25.088-50.944 12.544-8.704 30.208-13.056 52.736-13.056 23.296 0 41.472 4.864 54.272 14.08 12.8 9.472 19.2 22.528 19.2 38.912 0 16.896-7.936 29.952-23.808 39.424-7.168 4.096-23.04 10.24-47.872 17.92a257.28 257.28 0 0 0-31.232 11.264c-8.704 4.608-12.8 11.008-12.8 18.688 0 8.704 3.584 15.104 11.264 18.944 6.144 3.328 14.848 4.864 26.368 4.864 13.312 0 23.552-2.304 30.208-7.424 6.656-4.864 11.52-13.056 14.08-24.32h29.696c-1.792 19.968-9.216 34.816-22.016 44.288-12.032 8.96-28.928 13.312-50.432 13.312z m-361.984-3.584h-36.608l61.184-88.32-65.28-94.464h36.608l47.104 70.656 47.104-70.656h36.608l-65.792 94.464 61.696 88.32H321.92l-43.008-64.512-43.008 64.512z m175.616 0h-29.696v-182.784h128.512v25.6H411.52V342.016z"  horiz-adv-x="1024" />

    
    <glyph glyph-name="view" unicode="&#59321;" d="M867.392 651.2l-107.52 105.408c-23.488 23.04-69.568 41.728-102.976 41.728H295.68a59.776 59.776 0 0 1-60.16-58.88l0.128-96.768h51.904v86.4c0.192 6.592 10.624 17.216 17.28 17.28h363.008v-190.144h190.208c0.896-4.48 0-31.04 0-34.624 0.128-319.36 0.128-481.216 0-485.632-0.192-6.592-10.56-15.552-17.28-15.68H304.832c-3.2-0.064-7.552 4.928-9.856 7.232a11.776 11.776 0 0 0-3.584 8.512v30.592H235.52v-39.424c0.384-32.64 27.2-59.008 60.096-58.88h554.24c32.96 0 60.032 26.56 60.032 58.88V531.2c-0.064 32.384-19.072 97.024-42.496 120z m-150.016-41.6V716.8l108.16-107.2h-108.16z m-170.56-53.312v-432.064h-432V556.288h432z m-217.984-56.448c-33.28 0-60.416-7.36-81.92-22.4a72.96 72.96 0 0 1-34.56-64.256c0-27.2 11.648-47.872 35.392-62.08 9.024-5.248 32.768-13.824 70.72-25.92 34.048-10.368 53.888-17.28 59.968-20.288 18.944-9.472 28.864-22.4 28.864-38.784 0-12.928-6.912-22.848-19.84-30.656-12.928-7.296-31.04-11.2-53.44-11.2-25.472 0-44.032 4.736-56.064 13.376-13.44 9.92-21.568 26.752-25.024 50.048H202.88c2.176-39.296 16.384-67.712 42.24-85.824 21.12-14.72 50.944-22.016 88.896-22.016 39.232 0 69.824 8.192 91.392 23.68 21.568 16 32.32 38.016 32.32 65.6 0 28.48-13.312 50.432-40.064 66.432-12.096 6.848-38.848 17.28-80.64 30.144-28.48 9.088-46.144 15.552-52.608 19.008-14.72 7.744-21.568 18.56-21.568 31.488 0 14.656 6.016 25.408 18.944 31.872 10.368 5.632 25.024 8.192 44.416 8.192 22.4 0 39.68-3.84 50.88-12.48 11.264-8.192 19.456-22.016 23.744-40.96h50.048c-3.072 33.6-15.552 58.624-37.12 74.624-20.288 15.04-48.704 22.4-84.928 22.4z m295.744-185.6h138.624a25.792 25.792 0 1 1 0 51.648H624.576a25.792 25.792 0 1 1 0-51.584z m0-121.024h138.624a25.792 25.792 0 1 1 0 51.584H624.576a25.792 25.792 0 1 1 0-51.584z m-25.792 267.904c0-14.336 11.584-25.92 25.92-25.92h138.368a25.92 25.92 0 0 1 0 51.84H624.704a25.92 25.92 0 0 1-25.92-25.92z"  horiz-adv-x="1024" />

    
    <glyph glyph-name="align_bottom" unicode="&#59319;" d="M922.368 51.072c21.504 0 37.632-16.128 37.632-37.632a37.824 37.824 0 0 0-37.632-37.632H101.632A36.736 36.736 0 0 0 64 13.44a39.04 39.04 0 0 0 37.632 37.632h820.736zM811.264 793.6A149.504 149.504 0 0 0 960 644.864v-372.736a148.352 148.352 0 0 0-148.736-148.736H214.528a148.416 148.416 0 0 0-148.736 148.736V644.864A148.416 148.416 0 0 0 214.528 793.6zM735.36 645.568a37.12 37.12 0 0 1-52.224-7.36L513.792 411.904 377.6 616.256a17.28 17.28 0 0 1-28.672 0L203.072 398.272a37.12 37.12 0 0 1 10.496-51.712l0.576-0.384a37.12 37.12 0 0 1 51.328 10.432l97.792 146.688L496.64 301.568a17.28 17.28 0 0 1 28.224-0.768l217.856 292.992a37.12 37.12 0 0 1-7.36 51.84z"  horiz-adv-x="1024" />

    
    <glyph glyph-name="radio1" unicode="&#59315;" d="M512 896a512 512 0 1 0 0-1024A512 512 0 0 0 512 896z m0-64a448 448 0 1 1 0-896A448 448 0 0 1 512 832z"  horiz-adv-x="1024" />

    
    <glyph glyph-name="radio2" unicode="&#59316;" d="M512 896a512 512 0 1 0 0-1024A512 512 0 0 0 512 896z m0-320a192 192 0 1 1 0-384 192 192 0 0 1 0 384z"  horiz-adv-x="1024" />

    
    <glyph glyph-name="checkbox1" unicode="&#59317;" d="M896 896a128 128 0 0 0 128-128v-768a128 128 0 0 0-128-128H128a128 128 0 0 0-128 128V768a128 128 0 0 0 128 128h768z m0-64H128a64 64 0 0 1-63.552-56.512L64 768v-768a64 64 0 0 1 56.512-63.552L128-64h768a64 64 0 0 1 63.552 56.512L960 0V768a64 64 0 0 1-56.512 63.552L896 832z"  horiz-adv-x="1024" />

    
    <glyph glyph-name="checkbox2" unicode="&#59318;" d="M896 896a128 128 0 0 0 128-128v-768a128 128 0 0 0-128-128H128a128 128 0 0 0-128 128V768a128 128 0 0 0 128 128h768z m-113.984-274.368l-379.2-415.232L241.92 381.632a26.24 26.24 0 0 1-15.488 8.704l-4.928 0.832a24.448 24.448 0 0 1-17.92-7.168 27.968 27.968 0 0 1-8.448-17.984c0-7.232 2.432-14.4 7.232-19.2l181.12-198.016c9.6-10.816 30.08-10.816 39.68 0l398.336 435.584a27.264 27.264 0 0 1 7.232 19.2c0 7.232-3.584 13.248-8.384 19.2a27.968 27.968 0 0 1-38.4-1.152z"  horiz-adv-x="1024" />

    
    <glyph glyph-name="frequency2" unicode="&#59314;" d="M498.496 828.16c116.352 0 225.6-45.12 307.456-126.976a431.808 431.808 0 0 0 127.04-307.52 431.808 431.808 0 0 0-127.04-307.52 431.808 431.808 0 0 0-307.456-126.976 431.808 431.808 0 0 0-307.52 126.976A431.808 431.808 0 0 0 64 393.664c0 116.352 45.12 225.6 126.976 307.52A431.872 431.872 0 0 0 498.56 828.16z m234.688-264.832L625.536 377.408l-82.624 106.88a19.2 19.2 0 0 1-3.712 3.648l-3.84 2.24a19.2 19.2 0 0 1-23.04-6.144l-97.472-130.56-62.464 110.976a19.2 19.2 0 0 1-32.256 1.92l-128.384-176a32 32 0 0 1 22.4-50.752l5.696-0.064a32 32 0 0 1 23.68 13.056l87.232 119.68 62.144-110.208a19.2 19.2 0 0 1 5.248-5.952l3.84-2.24a19.2 19.2 0 0 1 23.04 6.144l103.296 138.56L615.744 285.44a19.2 19.2 0 0 1 31.808 2.112L788.48 531.2a32 32 0 0 1-55.296 32.192z"  horiz-adv-x="1024" />

    
    <glyph glyph-name="form3" unicode="&#59313;" d="M738.56 692.864c13.824-12.8 24.832-23.424 33.024-31.872s14.464-15.616 18.816-21.504c4.352-5.888 7.04-10.88 8.064-14.976s1.536-7.68 1.536-10.752v-12.288h-113.664c-5.12 0-9.6 1.92-13.44 5.76a51.2 51.2 0 0 0-9.6 13.44 72.832 72.832 0 0 0-7.68 28.416V744.32h2.304a44.8 44.8 0 0 0 12.672-1.92c4.352-1.28 9.344-3.712 14.976-7.296 5.632-3.584 12.672-8.704 21.12-15.36 8.448-6.656 19.072-15.616 31.872-26.88z m-131.328-44.544c0-10.24 1.536-20.864 4.608-31.872 3.072-11.008 7.936-21.248 14.592-30.72 6.656-9.472 15.104-17.28 25.344-23.424 10.24-6.144 22.272-9.216 36.096-9.216H800v-433.152c0-14.848-2.944-28.16-8.832-39.936-5.888-11.776-13.696-21.76-23.424-29.952a114.56 114.56 0 0 0-32.256-19.2 94.464 94.464 0 0 0-34.56-6.912H323.072c-9.728 0-20.352 2.816-31.872 8.448a134.72 134.72 0 0 0-57.216 53.76 73.92 73.92 0 0 0-9.984 36.864v522.24c0 10.752 2.432 21.888 7.296 33.408 4.864 11.52 11.52 22.144 19.968 31.872a117.76 117.76 0 0 0 28.8 24.192c10.752 6.4 22.016 9.6 33.792 9.6h293.376v-96z m48.384-479.232a45.312 45.312 0 0 1 33.792 14.208 47.232 47.232 0 0 1 13.824 34.176 45.952 45.952 0 0 1-13.824 33.792 45.952 45.952 0 0 1-33.792 13.824h-288a45.952 45.952 0 0 1-33.792-13.824 45.952 45.952 0 0 1-13.824-33.792c0-13.312 4.608-24.704 13.824-34.176 9.216-9.472 20.48-14.208 33.792-14.208h288z m47.616 239.616a47.232 47.232 0 0 1-13.824 34.176 45.312 45.312 0 0 1-33.792 14.208h-288a45.312 45.312 0 0 1-33.792-14.208 47.232 47.232 0 0 1-13.824-34.176c0-13.312 4.608-24.576 13.824-33.792 9.216-9.216 20.48-13.824 33.792-13.824h288a45.952 45.952 0 0 1 33.792 13.824 45.952 45.952 0 0 1 13.824 33.792z"  horiz-adv-x="1024" />

    
    <glyph glyph-name="room" unicode="&#59312;" d="M800.128 787.2a48.64 48.64 0 0 0 49.088-49.024v-708.352a48.64 48.64 0 0 0-49.088-49.024H223.104a48.64 48.64 0 0 0-49.024 49.024V738.176a48.64 48.64 0 0 0 49.024 49.024z m-12.928-57.728H236.16c-2.944 0-4.352-1.408-4.352-4.288v-683.776c0-2.88 1.408-4.352 4.288-4.352h551.04c2.944 0 4.352 1.472 4.352 4.352V725.12c0 2.88-1.408 4.288-4.288 4.288z m-98.112-56.256c25.984 0 46.144-20.16 46.144-46.144v-487.616a45.568 45.568 0 0 0-46.144-46.08H334.208a45.568 45.568 0 0 0-46.144 46.08V627.072c0 25.984 20.16 46.144 46.144 46.144z m-11.52-57.664H347.2c-1.472 0-1.472-1.472-1.472-1.472v-461.632l331.84-1.408c1.408 0 1.408 1.408 1.408 1.408V614.08c0 1.472-1.408 1.472-1.408 1.472z m-67.84-164.48c15.872 0 28.864-10.112 28.864-23.04v-135.68c0-12.928-12.992-23.04-28.8-23.04-15.936 0-28.928 10.112-28.928 23.04v135.68c0 12.928 12.992 23.04 28.864 23.04z"  horiz-adv-x="1024" />

    
    <glyph glyph-name="credit02" unicode="&#59311;" d="M832.8192 738.13333334c64.58026667 0 117.76-49.152 123.97226666-111.13813334l0.6144-9.8304v-304.05973333a49.3568 49.3568 0 0 1-31.88053333-5.9392 67.584 67.584 0 0 1-7.03146667-4.5056l-2.048 0.68266667-1.57013333 1.024c-1.024 1.09226667-1.2288 3.14026667-0.27306667 4.77866666l1.77493334 3.072 4.84693333 9.76213334a49.22026667 49.22026667 0 0 1-9.96693333 50.85866666v53.248H418.5088v-82.3296h201.38666666c-0.68266667-7.3728 0.34133333-15.01866667 3.14026667-22.18666666l4.096-8.6016 2.52586667-4.3008a3.82293333 3.82293333 0 0 0-0.47786667-4.77866667 3.75466667 3.75466667 0 0 0-4.7104-0.47786667l-3.4816 2.048-9.76213333 4.98346667a49.152 49.152 0 0 1-55.97866667-15.49653333l-1.97973333-2.79893334H463.01866666v-82.39786666h94.6176a49.7664 49.7664 0 0 1-21.16266666-89.088l-355.46453334 0.06826666a124.7232 124.7232 0 0 0-124.45013333 123.904l0.06826667 372.5312 0.34133333 7.71413334A124.928 124.928 0 0 0 181.07733333 738.13333334h651.81013333zM246.61333333 581.12c-38.43413333-0.13653333-72.0896-23.21066667-82.7392-56.5248-10.6496-33.31413333 4.3008-69.0176 36.79573333-87.58613333-54.40853333-17.6128-90.65813333-64.17066667-90.58986666-116.39466667 0-61.78133333 50.10773333-77.96053333 115.43893333-80.41813333L246.61333333 239.78666667000005c75.29813333 0 136.53333333 12.4928 136.53333333 80.82773333 0 52.08746667-36.0448 98.64533333-90.24853333 116.39466667 32.29013333 18.70506667 47.104 54.34026667 36.38613333 87.6544-10.6496 33.31413333-44.30506667 56.25173333-82.60266666 56.45653333z m664.91733333 0H417.28V499.2h494.25066666V581.12z m-136.3968-318.12266666a103.08266667 103.08266667 0 0 1-91.06773333-50.51733334 102.12693333 102.12693333 0 0 1 0-103.90186666c17.33973333-29.35466667 48.05973333-47.99146667 81.78346667-50.176l9.28426666-0.2048A102.67306667 102.67306667 0 0 1 874.66666666 160.59733333999998c0 52.29226667-39.3216 95.57333333-90.38506666 101.71733333l-9.14773334 0.68266667z m-8.73813333-340.51413334a33.45066667 33.45066667 0 0 0-26.28266667 26.2144l-0.47786666 5.7344v6.3488a20.95786667 20.95786667 0 0 1-15.63306667 20.48 20.54826667 20.54826667 0 0 1-23.3472-10.24l-2.93546667-5.3248a32.69973333 32.69973333 0 0 0-56.45653333 32.69973334l2.8672 5.3248a21.2992 21.2992 0 0 1-2.8672 25.8048 21.2992 21.2992 0 0 1-25.32693333 2.93546666l-5.39306667-2.93546666a32.63146667 32.63146667 0 0 0-44.78293333 11.74186666 33.3824 33.3824 0 0 0 12.15146666 44.8512l5.39306667 2.93546667c8.26026667 4.84693333 12.62933333 14.60906667 9.69386667 23.41546667a20.8896 20.8896 0 0 1-15.70133334 15.08693333l-4.77866666 0.47786667H566.784a32.63146667 32.63146667 0 0 0-5.80266667 64.98986666l5.80266667 0.34133334h5.87093333a20.8896 20.8896 0 0 1 10.6496 38.98026666l-5.3248 2.93546667a33.31413333 33.31413333 0 0 0-12.15146667 44.8512 32.42666667 32.42666667 0 0 0 39.1168 14.336l5.18826667-2.59413333a52.36053333 52.36053333 0 0 0 5.3248-2.93546667 20.82133333 20.82133333 0 0 1 28.74026667 28.74026667L641.19466666 323.072a32.49493333 32.49493333 0 0 0 52.6336 37.41013334l3.41333334-4.77866667c0.95573333-0.88746667 2.93546667-4.77866667 3.41333333-5.3248a20.54826667 20.54826667 0 0 1 23.3472-10.24 21.504 21.504 0 0 1 15.01866667 15.83786667l0.6144 4.64213333v6.3488c-0.06826667 15.90613333 11.264 29.14986667 26.35093333 32.08533333l6.28053333 0.54613334 6.3488-0.6144a32.22186667 32.22186667 0 0 0 25.25866667-25.66826667l0.54613333-6.3488v-6.3488a20.8896 20.8896 0 0 1 15.5648-20.48c7.30453333-2.048 15.29173333 0.68266667 20.48 6.41706667l2.8672 3.82293333c0.34133333 0.34133333 1.36533333 2.18453333 2.18453334 3.61813333l1.2288 1.70666667a32.3584 32.3584 0 0 0 58.50453333-27.30666667l-2.4576-5.3248a55.0912 55.0912 0 0 0-2.93546667-5.39306666 21.23093333 21.23093333 0 0 1 2.93546667-25.32693334c6.82666667-6.82666667 17.408-8.32853333 25.8048-3.41333333l5.3248 3.41333333a32.5632 32.5632 0 0 0 44.37333333-12.21973333 32.49493333 32.49493333 0 0 0-11.74186666-44.37333333l-5.3248-2.8672a20.95786667 20.95786667 0 0 1 5.59786666-38.98026667l4.64213334-0.54613333h6.3488a32.63146667 32.63146667 0 1 0 0-65.3312l-6.3488 0.47786666a20.95786667 20.95786667 0 0 1-10.24-39.45813333l5.3248-2.93546667a32.08533333 32.08533333 0 0 0 11.6736-44.37333333 32.5632 32.5632 0 0 0-44.30506667-12.15146667l-3.95946667 2.2528-1.36533333 0.68266667a19.8656 19.8656 0 0 1-25.32693333-2.93546667c-6.82666667-6.69013333-8.26026667-17.13493333-3.41333334-25.3952l3.41333334-5.3248a33.31413333 33.31413333 0 0 0-12.21973334-44.8512 32.69973333 32.69973333 0 0 0-44.30506666 12.15146667l-2.93546667 5.3248a21.2992 21.2992 0 0 1-23.89333333 9.76213333 21.0944 21.0944 0 0 1-14.60906667-15.83786666l-0.4096-4.64213334v-6.3488c0-16.04266667-11.60533333-29.35466667-26.76053333-32.08533333l-5.87093334-0.54613333-5.87093333 0.68266666z"  horiz-adv-x="1024" />

    
    <glyph glyph-name="alarm" unicode="&#59309;" d="M512 643.2c138.24 0 252.16-109.696 258.88-246.336L771.2 384 768 35.2h144c19.392 0 35.2-15.808 35.2-35.2 0-17.408-12.8-32-29.504-34.752l-5.696-0.448H112A35.264 35.264 0 0 0 76.8 0c0 17.408 12.8 32 29.504 34.752l5.696 0.448 140.8-3.2V384A259.968 259.968 0 0 0 512 643.2z m0-70.4a189.44 189.44 0 0 1-188.48-177.728L323.2 384 320 35.2l380.8-3.2V384A189.376 189.376 0 0 1 512 572.8zM416 352c17.6 0 32-14.4 32-32v-192c0-17.6-14.4-32-32-32A32.064 32.064 0 0 0 384 128V320c0 17.6 14.4 32 32 32zM176 464c17.6 0 32-14.4 32-32s-14.4-32-32-32h-64a32.064 32.064 0 0 0-32 32c0 17.6 14.4 32 32 32z m736 0c17.6 0 32-14.4 32-32s-14.4-32-32-32h-64a32.064 32.064 0 0 0-32 32c0 17.6 14.4 32 32 32zM755.2 696c12.8 12.8 32 12.8 44.8 0 12.8-12.8 12.8-32 0-44.8l-44.8-44.8c-11.2-12.8-32-12.8-44.8 0-12.8 12.8-12.8 32 0 44.8z m-524.8 0c12.8 12.8 32 12.8 44.8 0l44.8-44.8c12.8-12.8 12.8-32 0-44.8-12.8-12.8-32-12.8-44.8 0l-44.8 44.8c-12.8 12.8-12.8 32 0 44.8zM512 800c17.6 0 32-14.4 32-32v-64c0-17.6-14.4-32-32-32a32.064 32.064 0 0 0-32 32V768c0 17.6 14.4 32 32 32z"  horiz-adv-x="1024" />

    
    <glyph glyph-name="device" unicode="&#59310;" d="M822.592 787.2c47.36 0 86.208-36.224 90.432-82.496l0.32-8.256v-624.896c0-47.36-36.224-86.208-82.432-90.368l-8.32-0.384H200.832c-47.36 0-86.208 36.224-90.368 82.496l-0.384 8.256V696.448c0 47.36 36.224 86.208 82.496 90.368l8.256 0.384h621.76z m0-68.48H200.832a22.336 22.336 0 0 1-21.824-17.792l-0.448-4.48-0.064-165.12h587.584c17.024 0 31.168-12.48 33.792-28.736l0.448-5.568a34.24 34.24 0 0 0-28.672-33.728l-5.568-0.448H178.56V305.28h587.584c17.024 0 31.168-12.48 33.792-28.736l0.448-5.504a34.24 34.24 0 0 0-28.672-33.792l-5.568-0.448H178.56v-165.184c0-10.752 7.68-19.776 17.856-21.824l4.48-0.448h621.76c10.816 0 19.84 7.616 21.888 17.792l0.448 4.48V696.448a22.272 22.272 0 0 1-22.336 22.272z m-56.512-543.424a28.288 28.288 0 1 0 0-56.512H455.232a28.288 28.288 0 0 0 0 56.512z m-438.08 0a28.288 28.288 0 0 0 0-56.512h-56.512a28.288 28.288 0 0 0 0 56.512z m438.08 236.992a28.288 28.288 0 1 0 0-56.576H455.232a28.288 28.288 0 0 0 0 56.576z m-438.08 0a28.288 28.288 0 1 0 0-56.576h-56.512a28.288 28.288 0 0 0 0 56.576z m438.08 240a28.288 28.288 0 1 0 0-56.448H455.232a28.288 28.288 0 1 0 0 56.512z m-438.08 0a28.288 28.288 0 1 0 0-56.448h-56.512a28.288 28.288 0 1 0 0 56.512z"  horiz-adv-x="1024" />

    
    <glyph glyph-name="closeeye" unicode="&#59307;" d="M476.608 88.36266665999995z m-7.68 6.4c1.792-1.152 3.648-2.112 5.504-3.136-2.176 1.28-4.288 2.368-6.4 3.648l0.896-0.576z m0.96 1.088l-2.368 1.152c0.768-0.384 1.6-0.64 2.368-1.152z m2.56-3.84l0 0z m25.792-8.32l-6.4-0.64 6.4 0.64z m1.536 0.384l-3.968-0.448 3.968 0.448z m37.568 63.424l-0.64-1.28 0.64 1.28zM844.224 561.96266666C735.36 426.41066666 626.368 360.61866666000003 517.312 360.61866666000003c-109.44 0-222.848 66.24-340.032 202.368a39.808 39.808 0 1 1-60.352-51.968c130.944-152.128 264.32-230.016 400.384-230.016 136.512 0 266.24 78.336 388.992 231.04a39.808 39.808 0 0 1-62.08 49.92zM231.808 400.42666666L155.904 312.55466665999995a28.48 28.48 0 0 1 43.072-37.248l75.84 87.808a28.416 28.416 0 1 1-43.008 37.184z m153.216-103.04l-30.336-121.408a28.48 28.48 0 0 1 55.168-13.76l30.336 121.344a28.416 28.416 0 1 1-55.168 13.824z m220.224-4.992l42.688-121.344a28.48 28.48 0 0 1 53.632 18.88l-42.624 121.344a28.48 28.48 0 0 1-53.696-18.88z m154.88 103.424l87.68-87.808a28.416 28.416 0 1 1 40.32 40.256l-87.808 87.68a28.416 28.416 0 1 1-40.256-40.192z"  horiz-adv-x="1024" />

    
    <glyph glyph-name="fundsmanagement" unicode="&#59308;" d="M667.008 376.192l-4.672 4.48a35.072 35.072 0 0 1-38.016 9.472c-25.024-8.32-49.6-22.656-70.912-41.472a36.096 36.096 0 0 1-10.688-36.8 46.464 46.464 0 0 0-3.84-36.8 50.112 50.112 0 0 0-22.848-20.032l-7.36-2.56a37.504 37.504 0 0 1-27.456-27.456 226.176 226.176 0 0 1 0-80.64c2.24-13.952 13.184-24.96 27.328-27.2a46.464 46.464 0 0 0 34.24-59.392 36.096 36.096 0 0 1 10.624-36.8c15.36-13.568 33.728-25.216 54.72-34.816l17.152-7.104a33.28 33.28 0 0 1 32.768 5.568l4.288 4.224a45.248 45.248 0 0 0 34.112 15.232 45.44 45.44 0 0 0 29.632-10.752l4.48-4.48c9.6-10.688 23.744-14.208 38.08-9.408 24.896 8.256 49.408 22.592 70.848 41.536a36.224 36.224 0 0 1 11.84 31.104l-1.088 5.76a46.336 46.336 0 0 0 3.776 36.672 50.176 50.176 0 0 0 22.848 20.032l7.36 2.56a36.992 36.992 0 0 1 27.456 28.672c4.8 26.624 4.8 53.952 0.064 80.128a40.32 40.32 0 0 1-23.168 24.832l-5.632 1.728a46.208 46.208 0 0 0-30.144 22.656 48.256 48.256 0 0 0-5.312 28.288l1.408 7.168c3.84 13.76-0.512 28.992-10.56 36.736a231.424 231.424 0 0 1-71.04 41.664 35.2 35.2 0 0 1-33.664-5.44l-4.48-4.16a43.904 43.904 0 0 0-32.64-13.824 45.248 45.248 0 0 0-29.504 10.624z m-36.096-40.64l3.2-0.384c18.752-14.72 40.32-22.464 62.336-22.464 22.592 0 45.248 8.128 65.536 22.848 9.792-4.096 17.792-8.832 33.92-21.76a99.84 99.84 0 0 1 12.288-65.664c11.52-19.52 29.184-34.496 53.248-45.824 0.448-2.88 0.64-5.376 0.832-8.256l0.064-20.096a25.792 25.792 0 0 0-2.88-11.52 102.848 102.848 0 0 1-51.2-43.392c-11.52-19.52-15.808-42.24-13.568-68.8a103.68 103.68 0 0 0-35.904-18.176 100.416 100.416 0 0 1-62.336 22.4c-22.592 0-45.248-8.128-65.6-22.848a125.44 125.44 0 0 0-33.792 21.76c7.424 46.848-19.2 92.352-65.6 111.488l-0.64 6.272-0.32 6.72v11.712a35.584 35.584 0 0 0 2.944 15.232c22.016 8.768 39.68 23.744 51.264 43.328 11.52 19.584 15.744 42.304 13.568 68.736 10.112 7.68 20.544 13.696 32.64 18.688zM186.752 736c-24.128-0.32-45.44-8.896-61.888-24.96a86.08 86.08 0 0 1-25.216-52.288l-0.448-8.64v-496.96c0.064-22.912 9.344-44.8 25.728-60.8 14.144-13.888 32.256-22.4 51.84-24.512l9.856-0.512 309.248-3.904a47.808 47.808 0 0 1-4.736 12.736 43.968 43.968 0 0 1-28.16 22.016 37.056 37.056 0 0 0-26.88 18.304l-1.792 4.672-247.68 5.44a27.072 27.072 0 0 0-26.88 21.696l-0.512 4.864 3.2 354.496 702.272-3.2v-117.568c0-4.224 1.024-7.552 3.456-11.776l6.016-9.6c2.816-4.864 4.992-9.6 6.656-14.848l2.752-11.712 2.688-18.88c2.304-16.256 4.544-22.528 10.304-26.56l6.528-4.224 7.232-4.224c5.632-3.2 9.728-5.824 12.16-8.512l1.92-2.688 0.32-1.216 0.064 376.96a86.4 86.4 0 0 1-69.952 84.864l-8.128 1.152-8.32 0.384H186.752z m509.696-462.72a89.792 89.792 0 0 1 0-179.456c49.472 0 89.728 40.32 89.728 89.792 0 49.408-40.256 89.664-89.728 89.664z m0-51.584a39.04 39.04 0 0 0 38.144-38.08 38.144 38.144 0 0 0-38.208-38.144 39.104 39.104 0 0 0-38.016 38.144 39.04 39.04 0 0 0 38.08 38.08z m-278.912 230.4a23.424 23.424 0 0 1-28.48 2.624l-4.032-3.328-65.28-71.424-60.928 72-3.84 2.944a23.296 23.296 0 0 1-28.544-3.136 22.4 22.4 0 0 1-3.584-27.584l57.024-75.904H242.56l-4.672-0.448a22.592 22.592 0 0 1-11.328-6.016 21.312 21.312 0 0 1-6.528-15.488c0-5.76 2.176-11.136 6.4-15.36 3.072-3.2 7.04-5.312 11.392-6.208l4.48-0.512 57.6-3.2-3.2-15.552H242.56l-4.672-0.448a22.528 22.528 0 0 1-11.328-6.016 21.248 21.248 0 0 1-6.528-15.488c0-5.888 2.304-11.52 6.528-15.616 3.2-3.072 7.04-5.12 11.392-5.952l4.352-0.448 57.6-3.2v-52.928l0.448-4.608a21.312 21.312 0 0 1 5.824-11.008 22.72 22.72 0 0 1 31.872-0.256 21.248 21.248 0 0 1 6.08 11.2l0.384 4.288 3.2 56.512h54.208l4.672 0.448a22.528 22.528 0 0 1 11.392 6.016 21.312 21.312 0 0 1 6.4 15.488 21.504 21.504 0 0 1-6.208 15.296 22.528 22.528 0 0 1-11.584 6.272l-4.48 0.448-57.6 3.2 3.2 15.552h54.208l4.8 0.448a22.528 22.528 0 0 1 11.52 6.272 21.504 21.504 0 0 1 6.144 15.296 21.504 21.504 0 0 1-6.208 15.36 22.592 22.592 0 0 1-11.584 6.208l-4.48 0.448-40.064 5.248 58.88 69.632a22.464 22.464 0 0 1-0.32 25.6l-3.008 3.392z m418.304 224.704c14.144 0 25.92-10.176 28.352-23.616l0.448-5.12-3.2-80.128-702.208 3.2V650.176a26.88 26.88 0 0 0 22.464 26.24l4.928 0.384H835.84z"  horiz-adv-x="1024" />

    
    <glyph glyph-name="access" unicode="&#59303;" d="M871.168 445.632L537.152 782.528a36.096 36.096 0 0 1-25.728 10.88h-0.256a36.096 36.096 0 0 1-25.6-10.368L386.624 687.808a36.352 36.352 0 0 1 25.6-62.144c9.6 0 18.88 3.776 25.664 10.496l72.96 69.44 297.984-300.16v-356.416H213.504V405.76l59.712 61.248a36.352 36.352 0 1 1-52.352 50.56L151.04 445.568a36.16 36.16 0 0 1-10.24-25.28v-407.68c0-20.032 16.32-36.288 36.352-36.288h668.032a36.416 36.416 0 0 1 36.352 36.288v407.68a36.224 36.224 0 0 1-10.368 25.28zM315.264 529.408c9.792 0 19.2 3.968 26.048 11.072l23.296 21.76a36.352 36.352 0 0 1-52.288 50.56l-23.232-21.76a36.352 36.352 0 0 1 26.176-61.568zM384.384 114.752a33.6 33.6 0 0 0-33.6 33.664V331.712c0 18.56 15.04 33.536 33.6 33.6h26.24v32c0 40.896 33.152 74.048 74.112 74.112h60.544c40.96 0 74.24-33.152 74.24-74.112v-32.064h26.24c18.56 0 33.6-15.04 33.6-33.6v-183.296c0-18.56-15.04-33.6-33.536-33.6H384.384z m21.12 54.72h219.008V310.592H405.44v-141.12z m79.232 247.232a19.456 19.456 0 0 1-19.456-19.392v-32.064h99.52v32a19.456 19.456 0 0 1-19.392 19.392h-60.672z"  horiz-adv-x="1024" />

    
    <glyph glyph-name="dataanalysis" unicode="&#59304;" d="M868.16 768H155.392A59.392 59.392 0 0 1 96 708.608v-475.136c0-32.832 26.56-59.392 59.392-59.392h296.96v-89.216h-148.48a29.696 29.696 0 0 1-29.696-29.44v-29.696h475.136v29.696a29.696 29.696 0 0 1-29.696 29.696h-148.48V174.208h296.96a59.392 59.392 0 0 1 59.456 59.392V708.608A59.392 59.392 0 0 1 868.16 768zM482.048 233.472a29.696 29.696 0 1 0 59.392 2.304v-2.304a29.696 29.696 0 0 0-59.392 0M155.392 708.608h712.768v-415.744H155.392V708.608zM752.896 605.568a21.376 21.376 0 0 1-27.136 11.776l-134.592-48.128-151.808 65.536-159.04-53.184a21.504 21.504 0 0 1-13.056-27.52l0.448-1.28a21.504 21.504 0 0 1 27.2-12.928l143.936 47.872 154.88-66.688 147.072 56.064a21.376 21.376 0 0 1 11.904 28.352l0.192 0.128zM242.368 492.288m33.152 0l-0.064 0q33.152 0 33.152-33.152l0-84.736q0-33.152-33.152-33.152l0.064 0q-33.152 0-33.152 33.152l0 84.736q0 33.152 33.152 33.152ZM559.808 492.288m33.152 0l-0.064 0q33.152 0 33.152-33.152l0-84.736q0-33.152-33.152-33.152l0.064 0q-33.152 0-33.152 33.152l0 84.736q0 33.152 33.152 33.152ZM707.968 534.592m33.152 0l-0.064 0q33.152 0 33.152-33.152l0-127.104q0-33.152-33.152-33.152l0.064 0q-33.152 0-33.152 33.152l0 127.104q0 33.152 33.152 33.152ZM402.944 543.808m33.152 0l-0.064 0q33.152 0 33.152-33.152l0-136.256q0-33.152-33.152-33.152l0.064 0q-33.152 0-33.152 33.152l0 136.256q0 33.152 33.152 33.152Z"  horiz-adv-x="1024" />

    
    <glyph glyph-name="log" unicode="&#59305;" d="M208.448 626.432A38.144 38.144 0 0 0 170.24 664.576V744.576A42.368 42.368 0 0 0 212.672 787.008h200.64A38.144 38.144 0 0 0 451.52 748.8a38.144 38.144 0 0 0-38.208-38.144H246.592v-46.08a38.144 38.144 0 0 0-38.144-38.144zM170.24 587.072m38.144 0l0.064 0q38.144 0 38.144-38.144l0-63.872q0-38.144-38.144-38.144l-0.064 0q-38.144 0-38.144 38.144l0 63.872q0 38.144 38.144 38.144ZM811.008 787.008H545.088V787.2h-12.736a42.432 42.432 0 0 1-42.368-42.432v-537.216l97.152-79.616c4.992-4.096 12.16-3.84 16.832 0.576L693.12 212.032V658.432H604.16a27.648 27.648 0 0 1 0-55.36h33.792v-308.352h-92.8v416h232.064v-653.184H246.592V371.456a38.208 38.208 0 0 1-76.352 0v-347.904a42.432 42.432 0 0 1 42.432-42.432h598.4a42.432 42.432 0 0 1 42.368 42.432V744.576a42.368 42.368 0 0 1-42.432 42.432zM637.952 244.096v-8.192l-44.608-41.792-48.256 39.552v10.432h92.864z"  horiz-adv-x="1024" />

    
    <glyph glyph-name="hazardouschemicals" unicode="&#59306;" d="M650.816 311.68c-7.936 0-16.256-3.968-26.048-11.072L569.6 320.768l56.512 20.16c7.68-5.312 16.64-8.448 25.984-9.088a16.768 16.768 0 0 1 17.536 13.632 19.328 19.328 0 0 1 0.64 6.464c0 11.84-7.872 17.6-22.656 18.88a27.136 27.136 0 0 1 9.024 18.176c0 5.888-3.2 11.136-9.728 15.808a19.136 19.136 0 0 1-10.368 2.56c-12.352 0-20.8-9.728-24.704-29.184l-97.472-36.608-97.472 34.944c-4.48 20.16-12.992 30.592-24.64 30.592a19.2 19.2 0 0 1-10.432-2.56 18.304 18.304 0 0 1-9.088-15.872c0-5.76 3.2-11.84 9.088-18.176-15.808-0.64-22.72-7.168-22.72-18.88a22.528 22.528 0 0 1 0.64-6.4c3.264-9.216 9.152-13.76 17.536-13.696a50.176 50.176 0 0 1 25.984 9.088l56.576-20.16-56-19.2c-9.728 7.168-18.176 10.432-25.984 10.432-9.088 0-14.912-4.544-18.816-13.632a19.456 19.456 0 0 1-0.64-6.528c0-11.84 7.808-18.176 22.72-18.816a27.008 27.008 0 0 1-9.152-18.24c0.32-6.4 3.712-12.288 9.152-15.744 3.392-1.92 7.168-3.072 11.072-3.264 11.84 0 19.456 9.728 24.64 29.248l96.832 35.072 96.832-35.072c5.184-19.52 12.992-29.248 24.704-29.248a26.24 26.24 0 0 1 11.072 3.2 17.664 17.664 0 0 1 9.728 15.808c0 5.888-3.264 11.84-9.152 18.24 14.976 0.64 22.784 7.104 22.784 18.816a25.088 25.088 0 0 1-0.64 6.528c-3.2 9.088-9.152 13.632-18.24 13.632h0.128zM382.464 450.048c15.744-17.472 36.992-29.824 64.256-38.272v-6.528a26.496 26.496 0 0 1 7.936-19.52c5.056-5.312 12.096-8.384 19.456-8.448a25.6 25.6 0 0 1 18.24 3.968c5.76-4.352 12.8-6.656 20.096-6.464a27.84 27.84 0 0 1 18.88 6.4 22.912 22.912 0 0 1 16.896-3.84 30.72 30.72 0 0 1 19.456 9.088 26.496 26.496 0 0 1 7.936 19.456v4.544c29.888 7.936 53.248 20.8 69.568 39.04 15.488 16.768 24.064 38.848 24 61.696 0 5.696-0.64 11.328-1.92 16.896a139.776 139.776 0 0 1-49.408 87.744c-28.608 24.704-63.68 37.056-104.64 37.056s-75.968-12.352-104.64-36.416c-26.688-22.336-44.16-53.824-48.704-88.32-1.28-5.568-1.92-11.264-1.92-16.96 0.64-22.656 9.408-44.352 24.704-61.12h-0.192z m164.352 106.624a37.76 37.76 0 0 0 29.888 14.272 36.864 36.864 0 0 0 29.888-14.272c8.32-9.536 12.8-21.76 12.352-34.432a48.832 48.832 0 0 0-12.352-34.496 38.4 38.4 0 0 0-59.776 0 51.072 51.072 0 0 0-12.352 34.496 48.64 48.64 0 0 0 12.352 34.432z m-44.16-94.72c3.904 5.12 7.872 7.872 11.84 7.872 3.904 0 7.872-2.56 11.008-8.448a33.92 33.92 0 0 0 5.184-16.256c0-7.872-5.12-11.84-15.808-11.84a21.44 21.44 0 0 0-15.552 5.248 12.032 12.032 0 0 0-2.624 8.448 19.392 19.392 0 0 0 5.76 14.848l0.128 0.064z m-84.48 94.72a38.4 38.4 0 0 0 59.776 0c8.32-9.536 12.736-21.824 12.288-34.432a48.832 48.832 0 0 0-12.288-34.496 38.4 38.4 0 0 0-59.776 0 51.072 51.072 0 0 0-12.352 34.496 51.904 51.904 0 0 0 12.352 34.432zM513.984 832c-29.632 0-59.2-3.392-88.064-10.24a35.712 35.712 0 0 1-25.344-22.4 36.288 36.288 0 0 1 41.856-47.872c23.424 5.568 47.488 8.384 71.552 8.384 173.44 0 314.496-140.48 314.496-313.216a314.688 314.688 0 0 0-234.304-303.68c-29.568-7.936-51.328-45.312-80-101.312-28.544 55.616-49.92 92.544-80 100.736a313.536 313.536 0 0 0-204.352 436.608 36.096 36.096 0 1 1-65.408 30.4A381.312 381.312 0 0 1 128 446.08a386.56 386.56 0 0 1 283.904-372.48c4.8-5.376 15.808-22.016 39.872-69.248 24.064-47.232 35.008-68.032 62.208-68.032 27.2 0 37.376 20.672 60.288 66.048l3.52 6.592c7.296 13.632 29.056 54.336 38.4 64.64A386.176 386.176 0 0 1 513.92 832zM234.048 667.392a35.2 35.2 0 0 1 25.984-14.528h2.56a35.904 35.904 0 0 1 25.792 11.008c18.24 18.88 38.784 35.392 61.12 49.216a36.288 36.288 0 0 1 16.576 24 35.008 35.008 0 0 1-6.592 27.648l-0.768 0.96a35.2 35.2 0 0 1-46.656 8.96 390.144 390.144 0 0 1-75.776-60.864 35.52 35.52 0 0 1-3.072-45.44l0.832-0.96z"  horiz-adv-x="1024" />

    
    <glyph glyph-name="bottom" unicode="&#59297;" d="M164.672 64a36.736 36.736 0 0 1 0-73.408h678.4a36.736 36.736 0 0 1 36.736 36.672c0 19.904-17.536 36.736-38.272 36.736H164.672zM527.552 298.688v398.72a39.04 39.04 0 0 1-38.528 38.592 39.04 39.04 0 0 1-38.528-38.528v-398.784L322.368 428.544a38.208 38.208 0 0 1-28.16 11.712 34.688 34.688 0 0 1-26.24-11.264 38.976 38.976 0 0 1-0.576-55.488l193.472-197.888a41.28 41.28 0 0 1 28.16-11.712c10.176 0 20.992 4.48 28.224 11.776l193.28 197.76a38.72 38.72 0 0 1 0.128 55.04 39.936 39.936 0 0 1-55.04 0l-128-129.792z"  horiz-adv-x="1024" />

    
    <glyph glyph-name="tablet" unicode="&#59296;" d="M860.992 218.752a23.04 23.04 0 0 0-23.104-22.976H186.112a23.04 23.04 0 0 0-23.04 22.976V629.504a23.04 23.04 0 0 0 23.04 22.976h651.776c12.8 0 23.04-10.24 23.04-22.976v-410.752z m-57.792-128.576h-23.104l18.496 55.104h23.04l-18.432-55.04z m-64.704 0l18.496 55.104h23.04l-18.432-55.04h-23.104z m-41.6 0l18.496 55.104h23.04l-18.432-55.04h-23.104zM132.992 719.104A36.864 36.864 0 0 1 96 682.368v-596.736c0-20.288 16.576-36.736 36.992-36.736h758.016c20.48 0 36.992 16.448 36.992 36.736V682.368a36.864 36.864 0 0 1-36.992 36.736H132.992z"  horiz-adv-x="1024" />

    
    <glyph glyph-name="bluetooth2" unicode="&#59302;" d="M498.56-26.112l229.376 229.44a12.8 12.8 0 0 1 0 18.048L565.376 384l162.56 162.56a12.8 12.8 0 0 1 0 18.112L498.56 794.112a12.8 12.8 0 0 1-21.888-9.024v-311.872L359.808 590.144a36.864 36.864 0 0 1-52.16-52.16L461.184 384l-153.6-153.984a36.928 36.928 0 0 1 52.224-52.16L476.8 294.784v-311.872a12.8 12.8 0 0 1 21.888-9.024zM549.696 638.72l83.52-83.584-83.008-83.072-0.512 166.656z m0.64-342.784l83.008-83.072L549.76 129.28l0.512 166.656z"  horiz-adv-x="1024" />

    
    <glyph glyph-name="exam2" unicode="&#59301;" d="M267.84 15.360000000000014c0 5.184 4.672 9.408 10.432 9.408h410.88v10.624H346.368c-6.144 0-11.008 4.8-10.368 10.24l2.24 20.672C355.84 227.712 166.08 394.112 164.16 395.776L151.04 407.168a8.704 8.704 0 0 0-1.152 12.288L160.64 432.64 466.432 807.168a14.912 14.912 0 0 0 16 4.48c5.888-1.792 9.6-7.04 9.6-12.544v-55.68L226.752 418.496c21.76-21.12 53.312-54.528 84.352-96.896 59.328-81.088 89.92-158.464 90.88-229.952h339.328c5.76 0 10.496-4.16 10.496-9.344v-104.448c0-5.12-4.672-9.408-10.496-9.408h-462.08a11.264 11.264 0 0 0-11.456 11.072v35.84zM863.872 419.392L547.328 807.104A14.912 14.912 0 0 1 531.52 811.648C525.568 809.984 521.792 805.248 521.792 799.616v-56.256l116.672-143.04 148.48-181.824c-21.76-21.12-53.312-54.528-84.352-96.896-53.12-72.576-83.2-142.4-89.472-207.616a8 8 0 0 1-0.256-1.792v-0.32c0.064-0.832 0.256-1.536 0.448-2.304 1.152-3.264 4.224-5.76 8.064-6.4H667.392a9.856 9.856 0 0 1 8.256 7.04v0.064l0.256 2.112v0.128c16.64 145.6 172.096 281.856 173.696 283.264l13.12 11.328a8.704 8.704 0 0 1 1.152 12.288M512.64 457.792c0-6.72-5.632-12.16-12.672-12.16a12.416 12.416 0 0 0-12.608 12.16c0 6.72 5.632 12.16 12.608 12.16 7.04 0 12.672-5.44 12.672-12.16M521.792 440.512a4.352 4.352 0 0 0-4.416-4.224 4.352 4.352 0 0 0-4.416 4.224c0 2.368 1.984 4.288 4.48 4.288 2.368 0 4.352-1.92 4.352-4.288M669.76 389.12L584.512 500.544v165.76l0.192-0.256V761.088L547.328 806.784a14.848 14.848 0 0 1-15.808 4.608c-5.888-1.792-9.728-6.528-9.728-12.096V483.2l44.16-57.6H448.32l43.904 57.792V799.296c0 5.568-3.84 10.304-9.728 12.096a14.848 14.848 0 0 1-15.808-4.608l-36.608-44.8-0.704-1.088v-84.864l0.192-9.728v-165.632L344.832 389.056a11.52 11.52 0 0 1-0.832-13.12 14.4 14.4 0 0 1 12.48-6.72h301.632c5.312 0 10.048 2.56 12.544 6.784a11.52 11.52 0 0 1-0.896 13.056M267.712 15.360000000000014c0 5.184 4.672 9.408 10.496 9.408h410.88v10.624H346.24c-6.144 0-11.008 4.8-10.368 10.24l2.24 20.672c1.408 12.8 1.536 26.24 0.32 40v0.768C324.992 255.03999999999996 165.76 394.432 164.16 395.776L151.68 406.592c6.976-3.328 188.352-115.2 249.344-298.688l0.384-1.152c0.32-4.736 0.512-9.664 0.576-15.104h339.328c5.76 0 10.432-4.16 10.432-9.344v-104.448c0-5.12-4.672-9.408-10.432-9.408H279.36a11.264 11.264 0 0 0-11.52 11.008l-0.128 35.904zM677.312 111.61599999999999V112l-0.448-3.648a14.976 14.976 0 0 1 0.448 3.328M616.896 119.55200000000002a421.12 421.12 0 0 1-3.52-9.856c1.152-3.456 4.48-6.016 8.64-6.4H666.88a9.92 9.92 0 0 1 8.96 7.104l0.192 2.112c16.64 145.664 172.096 281.92 173.696 283.264l12.16 10.624c-1.856-1.216-179.968-109.632-244.928-286.848"  horiz-adv-x="1024" />

    
    <glyph glyph-name="safe" unicode="&#59298;" d="M765.184 269.504A259.2 259.2 0 0 0 509.44 53.12 259.2 259.2 0 0 0 253.696 269.44L192.64 635.264c117.376 8.064 222.272 31.36 314.368 70.208 85.12-39.936 191.488-63.168 319.104-70.72l-60.928-365.248z m146.048 432.832a41.28 41.28 0 0 1-30.784 15.104C723.072 721.984 599.04 749.44 512.192 800 410.56 749.952 290.368 722.496 147.52 717.568h0.064a41.28 41.28 0 0 1-39.424-48.384l68.672-413.952A342.464 342.464 0 0 1 514.112-32a342.464 342.464 0 0 1 337.344 287.232l68.608 413.824a41.728 41.728 0 0 1-8.832 33.28zM415.104 415.104a41.216 41.216 0 0 1-40.576 10.944 42.112 42.112 0 0 1-29.376-30.528 42.88 42.88 0 0 1 11.712-41.088l81.664-81.28c16-16 41.664-16.128 57.92-0.32l175.68 171.2a42.944 42.944 0 0 1 0.576 59.264 41.216 41.216 0 0 1-58.24 1.92l-146.56-142.72-52.8 52.608z"  horiz-adv-x="1024" />

    
    <glyph glyph-name="danger" unicode="&#59299;" d="M450.07936 681.856l49.536-10.624-4.608-7.424c-2.88-4.608-5.76-9.152-8.704-13.632h135.552v-34.048l-1.472-1.728c-10.304-11.776-19.392-21.504-27.904-29.824h93.504v-46.912h-251.52v-51.2c-1.92-69.888-21.056-126.72-56.832-169.152l-4.096-4.736-38.4 33.92 4.288 4.608c29.44 31.616 45.12 77.248 46.592 135.488v56c-5.44-4.032-10.816-7.68-15.68-11.072l-4.608-3.136-32.192 38.784 6.016 3.712c42.624 26.24 78.08 61.312 108.16 107.52l2.304 3.456zM636.95936 514.56v-77.44c-0.384-26.24-14.72-40.96-41.152-42.688-17.536 0.32-33.792 0.384-49.344 1.152l-4.544 0.192-11.968 46.336 8.704-0.768c16.256-1.472 30.528-2.24 42.432-2.24 2.432 0 7.04 0 7.04 10.112v21.376H509.53536v-95.744c0.256-3.264 1.792-7.36 12.736-7.36h97.6c16.256 0 21.376 3.584 22.976 5.952 2.816 5.888 5.376 18.816 7.552 38.4l0.768 7.36 46.272-14.72-0.576-4.992c-5.248-48.704-13.312-61.056-18.944-66.112-9.024-7.68-24.512-11.392-47.488-11.392H506.01536c-37.504 0-45.312 22.4-45.312 41.216V514.56H636.95936zM554.07936 607.808H455.00736a419.2 419.2 0 0 0-20.864-23.232h94.528c8.64 7.232 17.152 15.168 25.408 23.232zM773.91936 278.656l93.824-124.864-85.76-25.92h-0.064a34.56 34.56 0 0 1-20.48-16.896l-42.432-79.488-111.232 136.512a341.76 341.76 0 0 1 166.208 110.656m6.592 216.96a269.568 269.568 0 0 0-269.248-269.312 269.504 269.504 0 0 0-269.184 269.248 269.44 269.44 0 0 0 269.184 269.12 269.44 269.44 0 0 0 269.248-269.12M415.90336 167.808l-110.976-136.32-42.304 79.552a34.56 34.56 0 0 1-20.608 16.896l-85.76 25.92 93.248 124.16a342.208 342.208 0 0 1 166.4-110.208m536.96-11.968l-138.56 184.64c24.32 47.872 36.544 99.2 36.544 152.704A339.84 339.84 0 0 1 511.51936 832.512a339.776 339.776 0 0 1-339.392-339.392c0-53.824 12.416-105.472 36.992-153.6L71.07136 155.776a34.56 34.56 0 0 1 17.664-54.016l119.424-36.096 60.096-112.832a35.008 35.008 0 0 1 30.592-18.432 34.688 34.688 0 0 1 26.88 12.8l168.704 207.296 1.6-0.128c10.496-0.704 21.12-0.704 31.552 0l1.856 0.128 168.832-207.36a34.624 34.624 0 0 1 57.472 5.696l60.096 112.832 119.36 36.096a34.56 34.56 0 0 1 17.664 54.016"  horiz-adv-x="1024" />

    
    <glyph glyph-name="giot" unicode="&#59300;" d="M514.112 82.88a352.512 352.512 0 0 0-35.264 20.992 410.816 410.816 0 0 0-54.336 43.84 482.56 482.56 0 0 0-54.016 60.544 548.672 548.672 0 0 0-39.552 59.84 622.08 622.08 0 0 0-40.704 85.248 739.968 739.968 0 0 0-26.88 82.368 859.2 859.2 0 0 0-16.32 74.624 1009.536 1009.536 0 0 0-10.496 77.248A1150.592 1150.592 0 0 0 231.168 672.512a1585.792 1585.792 0 0 0 282.88 27.712c120.96 0 246.144-19.008 307.52-32.896a14.272 14.272 0 0 1 17.024 10.432l17.664 69.248a14.272 14.272 0 0 1-10.624 17.472c-67.712 15.552-200.64 35.84-331.52 35.84C373.248 800.384 230.144 776.832 168.32 761.088A50.048 50.048 0 0 1 130.688 712.64v-3.52a1431.296 1431.296 0 0 1 3.008-91.776 1249.728 1249.728 0 0 1 7.552-77.12 1106.56 1106.56 0 0 1 15.232-88 957.76 957.76 0 0 1 20.48-77.824 839.232 839.232 0 0 1 39.744-103.296A725.12 725.12 0 0 1 265.088 184.192a647.104 647.104 0 0 1 55.552-72.768 583.808 583.808 0 0 1 68.224-65.28c11.136-8.96 22.528-17.408 33.984-25.152 11.008-7.424 22.144-14.272 33.088-20.416 23.488-13.056 38.912-18.688 41.792-19.712a50.048 50.048 0 0 1 32.96 0c2.24 0.768 22.976 8.256 53.12 26.304 9.28 5.504 18.496 11.52 27.584 17.92-15.616 8.576-97.216 57.792-97.216 57.792M796.16 376.384a557.44 557.44 0 0 1-35.84 22.656l-5.248 2.944a755.072 755.072 0 0 0-24.704-67.328 659.84 659.84 0 0 0-20.736-44.032l-1.024-1.92c-6.72-12.224-14.528-26.176-20.224-35.584l-2.752-4.608a553.792 553.792 0 0 0-48.256-65.536 486.592 486.592 0 0 0-59.328-57.792c-14.976-12.16-30.336-23.04-45.632-32.192a308.096 308.096 0 0 0-18.304-10.112 7643.776 7643.776 0 0 1 97.216-57.856l0.128 0.064 7.04 4.992 0.448 0.32 6.528 4.864 1.024 0.768 5.568 4.288 1.92 1.408 4.736 3.84 2.432 1.92a551.232 551.232 0 0 1 72 70.08 623.936 623.936 0 0 1 57.216 77.824c9.92 15.744 19.328 32.32 28.16 49.216 11.264 21.952 35.2 76.288 39.104 89.6 1.472 4.992 0.384 10.24-3.52 13.504a507.264 507.264 0 0 1-37.888 28.672M796.16 376.384a557.44 557.44 0 0 1-35.84 22.656l-5.248 2.944a755.072 755.072 0 0 0-24.704-67.328 659.84 659.84 0 0 0-20.736-44.032l-1.024-1.92c-6.72-12.224-14.528-26.176-20.224-35.584l-2.752-4.608a553.792 553.792 0 0 0-48.256-65.536 486.592 486.592 0 0 0-59.328-57.792c-14.976-12.16-30.336-23.04-45.632-32.192-7.04-4.16-115.648-61.632-120.832-64.256 0 0 138.816 20.352 237.696 88.32 123.2 84.544 174.976 187.328 187.904 216.832a11.968 11.968 0 0 1-3.328 14.08 507.2 507.2 0 0 1-37.632 28.416M886.592 474.88a14.336 14.336 0 0 1-4.352 15.808 554.048 554.048 0 0 1-124.544 76.928 622.08 622.08 0 0 1-90.88 32.896c-14.272 3.968-47.936 11.52-70.336 16.32a14.272 14.272 0 0 1-16.96-11.264l-13.568-70.208a14.272 14.272 0 0 1 11.072-16.704c20.288-4.288 50.88-11.2 62.912-14.528a557.056 557.056 0 0 0 76.544-27.712 483.968 483.968 0 0 0 72.256-40.448c15.872-10.88 30.592-22.592 43.776-34.688l1.216-1.088c7.04-6.592 18.368-4.48 22.528 4.224 8.576 17.792 21.504 45.824 30.336 70.4M565.76 533.632v-0.384l-0.064-1.152v-0.64l0.128-0.832 0.128-0.832 0.128-0.384c0.256-1.216 0.64-2.304 1.28-3.392v-0.192a16.064 16.064 0 0 1 0.64-1.024l0.064-0.128a14.272 14.272 0 0 1 13.952-6.208c38.528 5.76 103.808 15.104 158.08 7.424 56.96-8 106.944-23.552 144.896-38.272a14.336 14.336 0 0 1-1.984 2.368 505.28 505.28 0 0 1-73.536 51.072A585.408 585.408 0 0 1 710.4 586.688c-14.08 5.056-28.8 9.664-43.52 13.824a1544.32 1544.32 0 0 1-71.808 16.512 14.272 14.272 0 0 1-15.552-11.52l-13.504-70.208a14.912 14.912 0 0 1-0.256-1.664M837.632 334.272a12.16 12.16 0 0 1-4.032 13.888 553.28 553.28 0 0 1-125.056 77.44 622.08 622.08 0 0 1-90.88 32.832A1548.288 1548.288 0 0 1 546.56 474.88a13.44 13.44 0 0 1-16-10.624l-13.888-71.808a13.44 13.44 0 0 1 10.432-15.744c20.352-4.288 51.52-11.328 63.744-14.72a554.24 554.24 0 0 0 76.544-27.648 486.016 486.016 0 0 0 72.256-40.512c15.872-10.88 30.592-22.592 43.776-34.688 5.952-5.504 10.88-10.432 14.912-14.656 0.192 0.192 25.28 50.048 39.36 89.728M516.544 391.552v-2.176l0.128-0.832 0.128-0.832 0.064-0.384a14.08 14.08 0 0 1 1.28-3.392l0.064-0.128a16.064 16.064 0 0 1 0.64-1.088l0.064-0.128a14.272 14.272 0 0 1 13.952-6.208c38.464 5.76 103.808 15.104 158.08 7.488 56.896-8.064 106.88-23.616 144.896-38.336a14.336 14.336 0 0 1-2.048 2.368 505.28 505.28 0 0 1-73.472 51.136 584.704 584.704 0 0 1-99.136 45.568c-14.08 5.056-28.8 9.728-43.52 13.824a1544.32 1544.32 0 0 1-71.808 16.576 14.272 14.272 0 0 1-15.552-11.52l-13.504-70.208a16 16 0 0 1-0.256-1.728"  horiz-adv-x="1024" />

    
    <glyph glyph-name="start" unicode="&#59295;" d="M418.304 625.088L705.92 406.4a30.528 30.528 0 0 0 0-44.8l-287.552-218.688c-12.608-9.408-28.48 2.816-28.48 22.4V602.688c0 19.584 15.872 32.192 28.48 22.4zM512 832a448 448 0 1 1 0-896A448 448 0 0 1 512 832z m0-838.592A390.592 390.592 0 1 0 512 774.592a390.592 390.592 0 0 0 0-781.184z"  horiz-adv-x="1024" />

    
    <glyph glyph-name="bluetooth" unicode="&#59294;" d="M806.464 556.288c10.048-49.28 15.104-106.56 15.104-172.352 0-65.664-5.12-123.072-15.104-172.288-10.048-49.28-23.744-89.6-41.28-121.152a233.408 233.408 0 0 0-66.176-76.608 244.288 244.288 0 0 0-85.568-40.768c-30.272-7.68-64.832-11.52-103.424-11.52a426.56 426.56 0 0 0-103.488 11.52 248.064 248.064 0 0 0-85.568 40.768 231.168 231.168 0 0 0-66.176 76.608c-17.408 31.616-31.232 72.064-41.28 121.152C203.456 260.864 198.4 318.08 198.4 383.936c0 65.664 5.12 123.136 15.104 172.352 10.048 49.152 23.744 89.536 41.28 121.088a234.624 234.624 0 0 0 66.176 76.672 247.04 247.04 0 0 0 85.568 40.768A421.12 421.12 0 0 0 510.016 806.4c38.592 0 73.152-3.904 103.424-11.52 30.336-7.68 58.88-21.312 85.568-40.768 26.688-19.52 48.768-44.928 66.176-76.608 17.408-31.68 31.168-72.064 41.28-121.216z m-323.84-535.232l218.688 218.752-144.256 144.256 144.256 144.192-218.688 218.816v-288L362.496 579.2l-43.84-43.84 150.912-151.296-150.912-151.296 43.84-43.84L482.56 309.056v-288z m61.248 577.024l70.208-70.208-69.76-69.76-0.448 139.968z m0.512-288l69.76-69.824L544 170.048l0.384 139.968z"  horiz-adv-x="1024" />

    
    <glyph glyph-name="samples" unicode="&#59293;" d="M661.312 192.384a25.856 25.856 0 0 0-25.792-25.728H543.808a25.856 25.856 0 0 0-25.728 25.728V288.064c0 14.144 11.648 25.728 25.728 25.728H635.52c14.208 0 25.792-11.584 25.792-25.728v-95.68z m0-163.648a25.856 25.856 0 0 0-25.792-25.792H543.808a25.856 25.856 0 0 0-25.728 25.792v95.616c0 14.144 11.648 25.792 25.728 25.792H635.52c14.208 0 25.792-11.648 25.792-25.792v-95.616zM838.272 262.4a22.848 22.848 0 0 0 0-32.256l-57.344-57.344a22.848 22.848 0 0 0-32.256 0l-59.84 59.776a22.848 22.848 0 0 0 0 32.256l57.28 57.344a22.848 22.848 0 0 0 32.256 0l59.904-59.776z m-9.344-233.6a25.856 25.856 0 0 0-25.792-25.856h-91.776a25.856 25.856 0 0 0-25.728 25.792v95.616c0 14.144 11.648 25.728 25.728 25.728h91.712c14.208 0 25.792-11.648 25.792-25.728v-95.616zM432.192 328.64l-138.816-210.816a24.576 24.576 0 0 1-3.904-13.632c0-12.864 10.752-23.744 23.424-23.744h175.104V326.72v1.984h-55.808zM636.928 770.24H413.056l-17.024-0.192a25.792 25.792 0 0 1-9.92-1.92c-5.76-2.56-6.464-7.296-4.096-16.32 1.536-5.632 4.864-12.16 13.056-26.88 8.704-16.832 13.056-30.272 13.056-45.184v-158.4c0-38.336-10.176-70.656-34.048-118.72L289.856 271.936 205.824 147.2c-10.24-15.936-16.064-36.544-16.064-56.896 0-57.216 37.12-93.44 111.488-93.44h186.752l3.2 57.984-190.08 3.2c-19.136 0-32.96 4.672-40.96 12.288a28.032 28.032 0 0 0-9.28 20.544c0 8 2.24 16.192 6.208 22.528l169.472 257.408c27.776 44.544 42.752 96.64 42.752 150.592V712.32l106.368-3.2-3.2-187.52c0-55.104 13.952-106.944 41.28-150.592l8.064-12.032 68.352-1.408-24.512 45.504c-21.184 33.6-32 74.048-32 118.4V680.576c0 12.16 2.752 23.296 8.192 35.648l4.608 9.536 7.552 13.952a61.568 61.568 0 0 1 5.248 12.096c4.224 15.488 0.32 18.304-22.4 18.432z"  horiz-adv-x="1024" />

    
    <glyph glyph-name="clock2" unicode="&#59292;" d="M512 786.304A402.752 402.752 0 0 0 914.304 384 402.752 402.752 0 0 0 512-18.304 402.752 402.752 0 0 0 109.696 384 402.752 402.752 0 0 0 512 786.304zM512 647.68a32.896 32.896 0 0 1-32.704-32.704v-231.424c0-8.704 3.392-17.024 9.408-23.296l138.624-138.304a32.384 32.384 0 0 1 46.08 0 32.768 32.768 0 0 1 0.512 46.464L544.64 397.248V615.04a32.96 32.96 0 0 1-32.768 32.64z"  horiz-adv-x="1024" />

    
    <glyph glyph-name="reaction" unicode="&#59290;" d="M512 832a448 448 0 1 0 0-896A448 448 0 0 0 512 832z m217.088-621.44H466.56a39.104 39.104 0 1 1 0-78.272h262.528a39.104 39.104 0 1 1 0 78.208zM528.512 573.888c-5.824 5.248-15.296 4.16-21.12-2.368L254.464 287.36l-15.744-108.928c-0.832-5.952 4.032-10.56 9.792-9.344l108.032 22.4 255.488 287.168c5.76 6.464 5.76 16 0 21.12z m200.576-252.736H580.16a39.104 39.104 0 1 1 0-78.272h148.928a39.104 39.104 0 1 1 0 78.272z m-93.44 336.448a38.656 38.656 0 0 1-54.592-3.2l-39.168-44.032a8.576 8.576 0 0 1 0.64-12.16l91.904-81.536c3.52-3.2 8.96-2.88 12.16 0.64l39.04 44.032a38.72 38.72 0 0 1-3.008 54.528z"  horiz-adv-x="1024" />

    
    <glyph glyph-name="hourglass" unicode="&#59291;" d="M808.64 761.6a32.64 32.64 0 1 0 0-65.28h-45.248v-92.48c0-1.28-0.128-2.432-0.256-3.648-3.52-91.008-101.056-170.112-174.272-214.4 73.728-44.672 171.392-124.416 174.272-216.192l0.064-2.304 0.064-6.272v-77.696h45.312a32.64 32.64 0 0 0 0-65.28H195.84a32.64 32.64 0 1 0 0 65.216h42.56v84.032c0 1.472 0.128 2.88 0.256 4.352 3.584 90.816 109.056 169.728 182.208 214.016-73.28 44.416-178.752 123.52-182.272 214.528a27.392 27.392 0 0 0-0.192 3.648V696.384H195.84a32.64 32.64 0 1 0 0 65.216z m-148.48-604.992H340.992a32.64 32.64 0 1 1 0-65.28h319.296a32.64 32.64 0 1 1 0 65.28zM500.608 346.752a32.64 32.64 0 0 1-32.64-32.512v-63.744a32.64 32.64 0 1 1 65.28 0V314.24a32.64 32.64 0 0 1-32.64 32.64z m0 141.632a32.64 32.64 0 1 1 0.064-65.28 32.64 32.64 0 0 1 0 65.28z"  horiz-adv-x="1024" />

    
    <glyph glyph-name="delivery" unicode="&#59289;" d="M709.504 660.224c17.536 0 32.448-11.84 36.864-28.288l1.152-6.4 0.192-3.52-3.264-147.712h82.56c12.992 0 25.664-3.328 36.928-9.728l8.192-5.376 4.16-3.392 4.032-3.776 1.92-2.048 66.688-85.312c29.44-5.632 52.288-27.968 59.008-56.448l1.408-7.936 0.448-4.608 0.128-4.544v-80.32c0-35.456-25.856-65.152-60.16-70.784l-7.424-0.832-4.224-0.128-24.32 2.24-0.96-3.072a90.24 90.24 0 0 0-8.32-17.6l-5.632-8.064-3.776-4.48-3.968-4.288a90.432 90.432 0 0 0-64.128-26.24 90.24 90.24 0 0 0-80.064 50.304l-3.392 7.808-1.28 3.392-291.2 2.304-1.024-3.136a90.368 90.368 0 0 0-85.76-60.608 90.24 90.24 0 0 0-80.128 50.304l-3.392 7.744-1.216 3.456h-44.48a38.144 38.144 0 0 0-33.536 19.84l-2.368 5.376-1.6 5.76-0.512 3.584-0.192 3.52V260.288a28.608 28.608 0 0 0 56.064 8.192l1.088-5.248 0.128-2.944-0.064-66.112h24.768l0.32 1.088a90.24 90.24 0 0 0 67.392 60.608l8.768 1.408 5.12 0.384 4.8 0.128a90.24 90.24 0 0 0 80.576-50.176l3.392-7.808 1.152-3.392 240.064-0.064V603.008H254.08v-239.552a38.208 38.208 0 0 0-28.224-36.864l-6.4-1.088-3.456-0.192H40.32a28.608 28.608 0 0 0-8.192 56l5.248 1.088 2.944 0.192 156.48-3.2 3.2 161.92H163.84a28.608 28.608 0 0 0-26.432 17.664l-1.536 4.736-0.512 3.2-0.128 3.008c0 12.8 8.448 20.608 20.352 24.192l5.312 1.088 2.944 0.128h33.024V622.08c0 16.32 10.368 30.528 25.28 35.84l5.76 1.6 3.648 0.512 3.52 0.192h474.432z m117.696-459.584l-3.2-0.192a32.896 32.896 0 1 1 12.096-1.024l-5.504 1.024-3.392 0.192z m-462.784 0l-3.136-0.192a32.896 32.896 0 1 1 12.032-1.024l-5.504 1.024-3.392 0.192z m462.72 216l-79.488 0.064v-207.872l0.96 1.92a90.24 90.24 0 0 0 65.152 45.952l9.408 0.96 4.864 0.128a90.176 90.176 0 0 0 82.432-54.4l2.624-6.976 24.96-0.064a14.72 14.72 0 0 1 13.248 8.32l1.216 3.968 0.128 2.176V291.2a17.536 17.536 0 0 1-11.52 16.512l-3.52 0.832-17.344 1.408-81.088 101.952a17.472 17.472 0 0 1-7.68 4.288l-4.352 0.512zM148.352 490.56a28.608 28.608 0 0 0 8.192-56.064l-5.248-1.024-2.944-0.192H40.32a28.608 28.608 0 0 0-8.192 56.064l5.248 1.024 2.944 0.192h107.968z m-46.272 107.968a28.608 28.608 0 1 0 0-57.216 28.608 28.608 0 0 0 0 57.216zM843.52 291.136h-28.608a49.344 49.344 0 0 0-49.28 49.28v23.936c0 19.2 15.488 34.688 34.688 34.688h2.56a64 64 0 0 0 51.328-25.728l26.88-36.16a24.064 24.064 0 0 0-2.176-31.36 49.92 49.92 0 0 0-35.392-14.72z m-24.192 30.848h31.936l1.472 1.472-26.688 35.584a23.104 23.104 0 0 1-18.56 9.28 11.52 11.52 0 0 1-11.52-11.52l0.128-11.648c0-12.8 10.432-23.168 23.232-23.168z"  horiz-adv-x="1024" />

    
    <glyph glyph-name="fault" unicode="&#59279;" d="M406.144 807.04c234.24 57.728 471.552-85.12 529.088-318.4a444.928 444.928 0 0 0 1.536-207.808c-5.568-18.368-23.68-29.248-40.448-24.256a37.312 37.312 0 0 0-20.48 15.36 29.952 29.952 0 0 0-3.84 24.832 379.008 379.008 0 0 1 0.064 176c-51.84 196.608-253.056 316.8-448.576 267.968a366.976 366.976 0 0 1-227.584-168.32 363.328 363.328 0 0 1-41.856-277.12c48.832-196.8 249.344-316.928 447.04-267.904a359.36 359.36 0 0 1 156.16 82.688 32.64 32.64 0 0 0 24.32 8.064 33.792 33.792 0 0 0 30.976-35.84 33.728 33.728 0 0 0-11.52-22.912 436.928 436.928 0 0 0-184.192-98.304c-35.008-8.704-70.144-12.8-104.768-12.8-195.136 0-373.952 132.224-424.32 329.664C31.552 512.128 174.4 749.44 406.144 807.04z m442.304-595.584a33.28 33.28 0 0 0 41.856-25.92 33.344 33.344 0 0 0-25.856-41.92 33.792 33.792 0 0 0-41.856 25.856 31.104 31.104 0 0 0 2.944 24.128 37.632 37.632 0 0 0 22.912 17.856zM507.84 533.12a37.44 37.44 0 1 1-0.128 74.944 37.44 37.44 0 0 1 0.128-74.88M507.84 508.16a37.44 37.44 0 0 1-37.44-37.376v-264.576a37.44 37.44 0 0 1 74.88 0V470.784a37.44 37.44 0 0 1-37.44 37.376"  horiz-adv-x="1024" />

    
    <glyph glyph-name="app-manage2" unicode="&#59278;" d="M385.728 511.59466667a34.176 34.176 0 0 0-34.496-34.496H199.488a34.176 34.176 0 0 0-34.56 34.56v151.68c0 19.328 15.232 34.56 34.56 34.56h151.744c19.328 0 34.56-15.232 34.56-34.56v-151.68l-0.064-0.064z m-34.496 255.232H199.488c-56.576 0-103.488-46.912-103.488-103.488v-151.68c0-56.64 46.912-103.552 103.488-103.552h151.744c56.576 0 103.488 46.912 103.488 103.488V663.3386666700001c0 58.048-46.912 103.488-103.488 103.488zM385.728 78.37866667000003a34.176 34.176 0 0 0-34.496-34.496H199.488a34.176 34.176 0 0 0-34.56 34.56v151.68c0 19.392 15.232 34.56 34.56 34.56h151.744c19.328 0 34.56-15.168 34.56-34.56v-151.68l-0.064-0.064z m-34.496 255.232H199.488c-56.576 0-103.488-46.848-103.488-103.424v-151.808c0-56.576 46.912-103.36 103.488-103.36h151.744c56.576 0 103.488 46.848 103.488 103.424V230.18666667000002c0 57.92-46.912 103.424-103.488 103.424zM885.184 663.3386666700001l-117.248 117.312a104.064 104.064 0 0 1-146.24 0L504.32 663.46666667a103.296 103.296 0 0 1 0-146.24L621.696 399.78666667a102.4 102.4 0 0 1 73.088-30.336 102.4 102.4 0 0 1 73.152 30.336l117.248 117.312a104.064 104.064 0 0 1 0 146.24m-78.656-582.208a34.176 34.176 0 0 0-34.496-34.496H620.288a34.176 34.176 0 0 0-34.56 34.56v151.68c0 19.392 15.232 34.56 34.56 34.56h151.744c19.328 0 34.56-15.168 34.56-34.56v-151.68l-0.064-0.064z m-34.496 255.232H620.288c-56.576 0-103.488-46.912-103.488-103.424V81.06666667000002c0-56.576 46.912-103.424 103.488-103.424h151.744c56.576 0 103.488 46.848 103.488 103.424v151.808c0 56.512-46.912 103.424-103.488 103.424v0.064z"  horiz-adv-x="1024" />

    
    <glyph glyph-name="order" unicode="&#59275;" d="M512.64 795.52c40.896 0 78.464-21.248 99.392-55.296l0.832-1.6 41.216-0.064c28.544 0 52.352-19.712 58.56-46.528l1.216-6.784 0.128-3.584 43.136-0.064c5.888 0 11.648-0.576 17.344-1.664l8.576-2.112 8.576-3.008c11.328-4.864 20.736-11.072 27.648-18.752a86.912 86.912 0 0 0 25.152-53.376l0.384-8.768v-510.08c0-11.776-2.176-23.04-6.784-34.496a78.784 78.784 0 0 0-18.752-27.648 85.888 85.888 0 0 0-27.264-18.56c-8.32-3.84-16.832-6.208-25.792-7.168l-9.088-0.448H266.88c-11.776 0-23.04 2.176-34.496 6.784a78.784 78.784 0 0 0-27.648 18.752 86.912 86.912 0 0 0-25.152 53.376L179.2 83.2V593.28c0 11.776 2.176 23.04 6.784 34.496 4.864 11.328 11.072 20.736 18.752 27.648a86.912 86.912 0 0 0 53.376 25.152l8.768 0.384 44.288 0.064 0.256 4.416a60.032 60.032 0 0 0 45.376 51.392l7.36 1.28 7.04 0.448 41.152 0.064 0.896 1.6A116.48 116.48 0 0 0 491.584 793.6l10.88 1.472 10.176 0.448z m243.84-177.28l-43.008 0.128-0.32-37.568a38.4 38.4 0 0 0-38.4-38.08H349.44a38.528 38.528 0 0 0-38.4 38.4l-0.064 36.608-44.096-0.128a25.088 25.088 0 0 1-24.448-19.904l-0.512-5.056v-510.08c0-11.968 8.576-22.08 19.904-24.448l5.056-0.512h489.6a25.088 25.088 0 0 1 24.448 19.904l0.512 5.056V593.28a25.088 25.088 0 0 1-19.904 24.448l-5.12 0.512zM563.2 235.52a32 32 0 0 0-32-32H361.6a32 32 0 0 0 0 64H531.2a32 32 0 0 0 32-32z m131.84 168.96a32 32 0 0 0-32-32H361.6a32 32 0 0 0 0 64h301.44a32 32 0 0 0 32-32zM512 732.16a52.928 52.928 0 0 1-47.104-28.8l-2.88-6.784-7.488-21.376H386.496a12.8 12.8 0 0 1-12.8-12.736v-43.52c0-7.04 5.76-12.8 12.8-12.8h250.88a12.8 12.8 0 0 1 12.8 12.8v43.52a12.8 12.8 0 0 1-12.8 12.8l-67.84-0.064-7.552 21.44A52.8 52.8 0 0 1 512 732.16z"  horiz-adv-x="1024" />

    
    <glyph glyph-name="assessment1" unicode="&#59280;" d="M310.976 682.432v31.296a28.8 28.8 0 0 0 28.672 28.672h344.064a28.8 28.8 0 0 0 28.672-28.672v-57.344a28.8 28.8 0 0 0-28.672-28.672H339.648c-7.168 0-13.824 4.48-20.096 13.12-4.224 14.08-8.576 27.648-8.576 41.6z m458.752-26.048c0-47.424-38.592-86.016-86.016-86.016H339.648a86.144 86.144 0 0 0-86.016 86.016v57.344c-31.552 0-57.344-23.808-57.344-52.928v-575.488c0-32.96 26.752-59.712 59.712-59.712h511.424a59.712 59.712 0 0 1 59.776 59.712V660.736c-0.128 29.184-25.984 52.992-57.472 52.992v-57.344zM675.2 99.2a29.568 29.568 0 0 0-20.224-7.872h-286.72c-15.808 0-28.672 12.16-28.672 26.88 0 7.36 3.2 14.08 8.384 18.944 5.504 5.12 12.8 7.936 20.288 7.936h286.72c15.744 0 28.672-12.16 28.672-26.88-0.064-7.232-3.136-14.08-8.448-19.008z m-20.224 165.312c15.744 0 28.672-12.16 28.672-26.88-0.064-7.232-3.136-14.08-8.448-18.944a29.568 29.568 0 0 0-20.224-7.936h-286.72c-15.808 0-28.672 12.16-28.672 26.88 0 7.424 3.2 14.08 8.384 19.008 5.504 5.12 12.8 7.936 20.288 7.872h286.72z m-35.392 274.048a24.448 24.448 0 0 0 34.048 3.52c10.368-8.32 11.904-23.296 3.456-33.536L499.456 317.248a24.32 24.32 0 0 0-35.648-1.984L371.008 404.48a23.616 23.616 0 0 0-0.256 33.536 24.448 24.448 0 0 0 34.048 0.576l73.856-71.04 140.992 170.944z"  horiz-adv-x="1024" />

    
    <glyph glyph-name="home2" unicode="&#59281;" d="M511.104 746.368a17.728 17.728 0 0 1-12.544-2.56l-2.88-2.112-364.032-312.704a23.296 23.296 0 0 1 15.232-40.96h37.248c14.144 0 25.6-11.52 25.6-25.6v-246.592c0-45.376 37.568-83.84 84.16-87.04l6.4-0.256H376.32a15.808 15.808 0 0 1 15.872 12.352l0.32 3.008V269.568c0 29.184 22.976 51.84 50.88 54.528l5.632 0.32h111.168c28.288 0 53.12-22.144 56.128-49.344l0.32-5.504v-218.56l2.624-8.512c1.408-6.464 6.08-10.88 13.696-11.968l4.032-0.256h71.872c47.424 0 87.04 36.416 90.304 81.152l0.256 6.144v244.48a25.6 25.6 0 0 0 25.536 25.6l36.544 0.128a23.424 23.424 0 0 1 15.36 41.088L520.96 739.456l-1.6 0.96a33.472 33.472 0 0 0-3.52 2.816l-2.176 2.368-2.624 0.768z m440.64-285.76c35.648-30.144 36.48-81.344 4.736-112.896a81.344 81.344 0 0 0-88.896-21.76l-4.16 1.792v-210.176c0-80.576-65.536-146.944-146.432-151.104l-8.128-0.192H636.992c-37.12 0-68.352 22.144-77.824 53.376l-1.536 5.952-1.344 4.032-0.64 1.6a45.824 45.824 0 0 0-1.6 5.12l-0.96 5.248-0.256 2.88-0.192 6.08V260.416H456.512v-216.832a79.808 79.808 0 0 0-19.456-51.52l-4.864-5.12a79.744 79.744 0 0 0-49.856-22.272l-6.848-0.128H300.288c-81.728 0-150.016 63.808-154.304 143.296l-0.256 8v211.2l-1.792-0.832A82.048 82.048 0 0 0 57.984 342.4L53.12 347.2a77.568 77.568 0 0 0 2.432 108.928l5.248 4.48 393.088 329.6a81.28 81.28 0 0 0 90.88 11.584l6.208-3.52 6.144-4.928 4.096-4.032 390.528-328.704z"  horiz-adv-x="1024" />

    
    <glyph glyph-name="shoppingcart" unicode="&#59282;" d="M771.072 82.56a62.592 62.592 0 1 0 0-125.248 62.592 62.592 0 0 0 0 125.184z m-433.92 0a62.592 62.592 0 1 0 0-125.248 62.592 62.592 0 0 0 0 125.184zM158.72 810.56c9.6-0.128 19.328-1.6 33.28-6.592 20.288-13.504 32.704-30.08 34.816-52.352l0.32-6.912c0-4.864 4.864-32.384 12.032-65.92l2.048-9.344h599.808c36.096 0 68.864-27.52 75.2-59.84l0.832-5.76 0.256-5.504-0.128-6.72-52.48-299.136-2.304-6.912c-12.288-34.304-38.656-53.888-76.48-56.192l-7.68-0.192H307.136l3.008-16.064 5.888-27.904v-1.664l2.752-2.88a5.888 5.888 0 0 1 1.92-1.152l1.344-0.448 2.688-0.64a38.72 38.72 0 0 1 5.44-0.448l489.92-0.064c20.288 0 34.496-14.208 34.496-34.56 0-18.688-12.16-32.256-29.952-34.24l-4.544-0.256H333.76c-30.528 0-46.336 7.616-68.224 28.352l-5.568 5.44-2.112 3.456c0.768-2.368-8.96 23.68-10.56 31.04L158.144 739.584l-0.128 2.048h-59.52c-17.152 0-29.952 10.24-33.536 25.6l-0.704 4.352L64 776.128c0 18.752 12.16 32.32 29.952 34.304l4.544 0.256h60.224z"  horiz-adv-x="1024" />

    
    <glyph glyph-name="charging1" unicode="&#59283;" d="M893.67466667 107.32799999999997c0-10.88-1.856-20.992-5.504-30.4-7.168-18.56-21.376-33.472-39.488-41.536-10.176-4.416-21.12-6.784-32.128-6.976H218.98666667c-10.752 0-37.504 3.008-47.104 7.04a80.256 80.256 0 0 0-42.88 41.472c-4.288 9.6-6.4 19.904-6.4 30.4V534.656c0 21.76 7.552 40.192 22.464 55.296 14.976 15.104 33.088 16.832 54.592 16.832h616.896c21.504 0 39.68-1.728 54.592-16.832 15.04-15.168 22.464-33.536 22.464-55.232v-120.704h-192.64c-21.568 0-39.744-3.2-54.784-18.048a74.24 74.24 0 0 1-22.464-54.784c0.512-14.848 3.648-28.032 9.344-39.424 4.48-9.664 12.032-18.56 22.528-26.496 10.432-8 25.6-15.424 45.44-15.424h192.768l-0.128-152.512zM778.02666667 645.312H392.49066667c30.592 16 59.584 38.08 86.784 52.928 23.808 12.608 47.296 25.152 70.4 37.76 23.232 12.544 41.344 22.208 54.4 29.056 19.84 10.88 37.504 15.808 53.12 14.976 15.552-0.832 28.736-3.584 39.488-8.064 12.416-6.336 23.168-14.592 32.256-24.96l49.088-101.76zM662.69866667 341.12c0 10.88 3.712 19.968 11.008 27.328a36.736 36.736 0 0 0 27.264 11.2c10.752 0 19.776-3.712 27.2-11.136a37.504 37.504 0 0 0 11.008-27.392c0-10.88-3.712-20.16-11.072-27.84a36.16 36.16 0 0 0-27.2-11.584 36.288 36.288 0 0 0-27.2 11.52 39.04 39.04 0 0 0-11.008 27.904z"  horiz-adv-x="1024" />

    
    <glyph glyph-name="user3" unicode="&#59284;" d="M488 766.912a289.536 289.536 0 0 0 155.072-30.4 286.336 286.336 0 0 0 105.536-95.872c29.312-43.136 46.4-93.376 49.536-145.408a273.664 273.664 0 0 0-25.6-135.936 299.904 299.904 0 0 0-67.2-89.536l-4.224-4.288c15.616-8.96 30.72-18.752 45.12-29.504 31.808-23.68 59.776-52.16 82.816-84.48 19.712-26.176 35.264-55.168 46.208-86.08 10.432-28.672 17.6-58.432 21.376-88.704a24.96 24.96 0 0 0 0.896-5.696v-11.072c0-7.872-5.888-16.32-14.72-16.32h-29.952c-9.6 0-16.96 4.16-20.608 11.52-3.392 6.72-4.992 13.312-6.592 19.712l-1.536 4.48c-5.248 29.504-11.648 51.776-20.288 70.656a305.6 305.6 0 0 1-53.12 85.888c-28.416 32.832-65.152 59.904-112.448 82.752a11.968 11.968 0 0 1-11.52 1.408l-1.152-0.192a19.84 19.84 0 0 1-7.808-2.752 80.64 80.64 0 0 0-11.52-4.928 259.968 259.968 0 0 0-139.072-12.8 275.328 275.328 0 0 0-65.536 19.2 13.824 13.824 0 0 1-13.888 0.32c-41.856-19.328-75.968-42.944-101.952-70.464-32.448-34.176-55.552-71.424-68.672-110.72a338.24 338.24 0 0 1-17.152-68.736v-1.728a35.392 35.392 0 0 1-1.152-4.352 25.152 25.152 0 0 0-6.208-13.44 22.4 22.4 0 0 0-20.672-5.76h-10.368l-4.608-0.192a33.664 33.664 0 0 0-17.472 2.112c-6.912 1.664-11.52 8.896-11.52 19.072a96.64 96.64 0 0 0 3.264 21.44l1.664 4.992a371.072 371.072 0 0 0 50.88 138.048c31.68 53.888 79.232 99.968 137.6 133.376l1.6 3.2 1.088 0.512a21.696 21.696 0 0 1 1.792 1.024 380.416 380.416 0 0 0-40.96 45.696c-29.184 38.912-48 82.048-54.336 124.672-6.272 36.096-3.52 75.392 8 116.736 10.24 40.576 28.8 78.592 54.336 111.744 22.72 30.4 56.512 56.384 97.6 75.2a312.96 312.96 0 0 0 97.472 25.6z"  horiz-adv-x="1024" />

    
    <glyph glyph-name="shop2" unicode="&#59285;" d="M828.672 291.712c17.92 0 32.768-13.44 34.944-30.784l0.256-4.48v-165.504c0-58.432-45.696-106.304-103.232-109.952l-6.976-0.192H270.336a110.272 110.272 0 0 0-110.016 103.04l-0.192 7.04V256.448a35.2 35.2 0 0 0 70.144 4.416l0.256-4.48v-165.504c0-20.352 15.36-37.12 35.2-39.488l4.608-0.256h483.328c20.352 0 37.248 15.36 39.552 35.072l0.256 4.672V256.512a35.2 35.2 0 0 0 35.2 35.2z m4.672 506.176c12.8 0 24.32-7.296 29.888-18.432l1.856-4.416 66.56-197.12c4.48-9.664 7.424-18.56 8.96-26.432a168.64 168.64 0 0 0-277.44-169.28l-6.912 6.848-6.528 7.232-4.48 5.632-4.608-5.76-3.2-3.584-3.2-3.584-6.912-6.784A168.32 168.32 0 0 0 512 336.576a168.32 168.32 0 0 0-115.456 45.632l-6.784 6.72-6.4 7.168-4.608 5.696-4.48-5.632-6.528-7.168-6.848-6.784a168.64 168.64 0 0 0-278.144 166.528c1.28 7.04 3.328 14.144 6.144 21.248l3.072 7.04 66.88 198.08a33.664 33.664 0 0 0 27.072 22.4l4.736 0.384H833.28z m-38.4-70.336H228.928a16.384 16.384 0 0 1-14.144-8.064l-1.472-3.136-56.064-165.568-0.576-1.152a61.696 61.696 0 0 1-4.16-11.072l-0.96-5.12-0.448-1.728a98.176 98.176 0 0 1 191.808-40.064l0.64 6.592V499.2l0.064 129.728a35.264 35.264 0 0 0 70.144 4.416l0.256-4.416-0.064-127.872 0.192-2.88a98.304 98.304 0 0 1 195.328-6.72l0.64 6.656 0.128 2.304V628.992a35.264 35.264 0 0 0 70.144 4.416l0.32-4.416v-130.752a98.304 98.304 0 0 1 196.16 6.528 98.56 98.56 0 0 1-2.304 21.056l-2.368 9.216-0.256 1.408a45.824 45.824 0 0 1-2.944 9.152l-2.752 6.08-55.616 164.672a16.448 16.448 0 0 1-15.552 11.2z"  horiz-adv-x="1024" />

    
    <glyph glyph-name="shop" unicode="&#59286;" d="M828.672 291.712c17.92 0 32.768-13.44 34.944-30.784l0.256-4.48v-165.504c0-58.432-45.696-106.304-103.232-109.952l-6.976-0.192H270.336a110.272 110.272 0 0 0-110.016 103.04l-0.192 7.04V256.448a35.2 35.2 0 0 0 70.144 4.416l0.256-4.48v-165.504c0-20.352 15.36-37.12 35.2-39.488l4.608-0.256h483.328c20.352 0 37.248 15.36 39.552 35.072l0.256 4.672V256.512a35.2 35.2 0 0 0 35.2 35.2z m4.672 506.176c12.8 0 24.32-7.296 29.888-18.432l1.856-4.416 66.56-197.12c4.48-9.664 7.424-18.56 8.96-26.432a168.64 168.64 0 0 0-277.44-169.28l-6.912 6.848-6.528 7.232-4.48 5.632-4.608-5.76-3.2-3.584-3.2-3.584-6.912-6.784A168.32 168.32 0 0 0 512 336.576a168.32 168.32 0 0 0-115.456 45.632l-6.784 6.72-6.4 7.168-4.608 5.696-4.48-5.632-6.528-7.168-6.848-6.784a168.64 168.64 0 0 0-278.144 166.528c1.28 7.04 3.328 14.144 6.144 21.248l3.072 7.04 66.88 198.08a33.664 33.664 0 0 0 27.072 22.4l4.736 0.384H833.28z"  horiz-adv-x="1024" />

    
    <glyph glyph-name="shopping2" unicode="&#59287;" d="M771.072 82.56a62.592 62.592 0 1 0 0-125.248 62.592 62.592 0 0 0 0 125.184z m-433.92 0a62.592 62.592 0 1 0 0-125.248 62.592 62.592 0 0 0 0 125.184zM158.72 810.56c9.6-0.128 19.328-1.6 33.28-6.592 20.288-13.504 32.704-30.08 34.816-52.352l0.32-6.912c0-4.864 4.864-32.384 12.032-65.92l2.048-9.344h599.808c36.096 0 68.864-27.52 75.2-59.84l0.832-5.76 0.256-5.504-0.128-6.72-52.48-299.136-2.304-6.912c-12.288-34.304-38.656-53.888-76.48-56.192l-7.68-0.192H307.136l3.008-16.064 5.888-27.904v-1.664l2.752-2.88a5.888 5.888 0 0 1 1.92-1.152l1.344-0.448 2.688-0.64a38.72 38.72 0 0 1 5.44-0.448l489.92-0.064c20.288 0 34.496-14.208 34.496-34.56 0-18.688-12.16-32.256-29.952-34.24l-4.544-0.256H333.76c-30.528 0-46.336 7.616-68.224 28.352l-5.568 5.44-2.112 3.456c0.768-2.368-8.96 23.68-10.56 31.04L158.144 739.584l-0.128 2.048h-59.52c-17.152 0-29.952 10.24-33.536 25.6l-0.704 4.352L64 776.128c0 18.752 12.16 32.32 29.952 34.304l4.544 0.256h60.224z m682.24-210.176H249.536l8.32-49.6 21.12-121.6c8.128-47.808 13.888-84.416 18.048-116.224l2.432-19.968h484.096c7.808 0 11.2 2.368 16.32 11.776l1.728 3.392 46.208 287.232-1.92 1.728a19.008 19.008 0 0 1-4.16 3.072l-0.64 0.192z"  horiz-adv-x="1024" />

    
    <glyph glyph-name="subscribe1" unicode="&#59288;" d="M381.376 151.744a75.52 75.52 0 0 0 52.8-21.376c6.72-6.72 12.16-14.656 16.128-23.744 4.032-9.152 6.08-18.816 6.08-29.056 0-10.24-2.048-19.84-6.08-29.056a77.504 77.504 0 0 0-16.128-23.744 77.504 77.504 0 0 0-23.808-16.128 71.104 71.104 0 0 0-28.992-6.08c-10.752 0-20.736 2.048-29.824 6.08a77.504 77.504 0 0 0-23.808 16.128 77.504 77.504 0 0 0-16.128 23.744 71.104 71.104 0 0 0-6.08 29.056c0 10.24 2.048 19.84 6.08 29.056 4.032 9.088 9.408 17.024 16.128 23.744 6.72 6.72 14.656 11.968 23.808 15.744 9.088 3.776 19.072 5.632 29.824 5.632z m335.424-1.6c10.24 0 20.032-1.92 29.44-5.632 9.408-3.776 17.472-8.96 24.192-15.744 6.72-6.72 12.16-14.656 16.128-23.808 4.032-9.088 6.08-18.816 6.08-28.992 0-10.24-2.048-19.904-6.08-29.056a77.504 77.504 0 0 0-16.128-23.744 76.288 76.288 0 0 0-82.624-16.128 77.504 77.504 0 0 0-23.808 16.128 77.504 77.504 0 0 0-16.128 23.744 71.104 71.104 0 0 0-6.016 29.056c0 10.24 1.984 19.84 6.016 28.992 4.032 9.152 9.408 17.088 16.128 23.808a75.52 75.52 0 0 0 52.8 21.376z m135.488 458.048c15.04 0 26.752-2.048 35.072-6.08 8.32-4.032 14.272-8.96 17.792-14.912a33.92 33.92 0 0 0 4.8-18.944 63.168 63.168 0 0 0-2.816-17.28c-1.6-4.864-5.12-14.848-10.496-29.888-5.376-15.04-11.136-31.616-17.28-49.6l-18.56-53.632c-6.208-17.728-11.2-31.68-14.976-41.92-6.976-21.504-15.68-36.48-26.24-44.8a60.864 60.864 0 0 0-39.04-12.48H357.12l11.264-72.576h407.232c25.792 0 38.72-11.008 38.72-33.024 0-10.752-2.56-20.032-7.68-27.84-5.12-7.808-15.168-11.712-30.208-11.712H353.92a47.68 47.68 0 0 0-27.008 7.296 61.184 61.184 0 0 0-18.112 18.944 115.2 115.2 0 0 0-11.712 25.408 232.128 232.128 0 0 0-6.848 25.792 6964.736 6964.736 0 0 0-13.312 69.76 386856.832 386856.832 0 0 0-24.576 131.008c-10.24 54.336-21.76 114.816-34.688 181.44h-60.48a32.64 32.64 0 0 0-20.16 6.08 52.672 52.672 0 0 0-13.312 14.528 55.872 55.872 0 0 0-7.232 18.112 87.552 87.552 0 0 0-2.048 17.728c0 10.752 3.648 19.648 10.88 26.624a40.64 40.64 0 0 0 29.44 10.496h81.472c10.752 0 19.328-1.6 25.792-4.864a43.776 43.776 0 0 0 23.36-27.392c1.664-5.376 3.008-9.92 4.032-13.696 1.088-4.288 2.176-10.368 3.2-18.176 1.152-7.808 2.176-15.68 3.264-23.744l4.864-30.72h551.552z m-60.48 25.792H496.704l106.432 106.432c12.352 12.352 25.92 18.688 40.704 18.944 14.784 0.32 28.352-5.76 40.704-18.112l107.264-107.264z"  horiz-adv-x="1024" />

    
    <glyph glyph-name="tag" unicode="&#59276;" d="M748.736 568.896c21.44 0 41.92-8.128 57.6-22.784 16.448-15.616 25.92-37.248 25.6-59.52v-420.608c0-25.92-12.16-48-32.64-58.752a63.168 63.168 0 0 0-29.44-7.232c-12.16 0-24.64 3.328-36.736 9.92L513.28 130.432l-222.4-120.64c-22.592-12.032-46.848-12.8-66.56-2.24-20.48 11.072-32.256 32.384-32.256 58.496V487.488c0 44.864 37.696 81.408 83.968 81.408H748.8zM734.72 512H289.92a34.56 34.56 0 0 1-33.92-35.008v-387.776c0-9.152 2.944-16.256 7.872-18.944 4.288-2.304 10.688-1.472 17.6 2.176l231.808 126.72 229.76-126.848c6.656-3.648 12.8-4.48 16.832-2.24 5.056 2.688 8.128 9.856 8.128 19.072V476.544a36.096 36.096 0 0 1-11.2 26.368A32.192 32.192 0 0 1 734.72 512z m20.48 256c42.432 0 76.8-30.592 76.8-68.288V665.6c0-37.76-34.368-68.288-76.8-68.288H268.8C226.368 597.312 192 627.904 192 665.6v34.112C192 737.472 226.368 768 268.8 768z m0-56.896H268.8c-7.04 0-12.8-5.12-12.8-11.392V665.6c0-6.272 5.76-11.392 12.8-11.392h486.4c7.04 0 12.8 5.12 12.8 11.392v34.112c0 6.336-5.76 11.392-12.8 11.392z"  horiz-adv-x="1024" />

    
    <glyph glyph-name="frequency" unicode="&#59277;" d="M498.496 29.568A364.48 364.48 0 0 0 134.4 393.664 364.48 364.48 0 0 0 498.56 757.76a364.48 364.48 0 0 0 364.032-364.16 364.48 364.48 0 0 0-364.032-364.032m307.456 671.616A431.872 431.872 0 0 1 498.56 828.16a431.872 431.872 0 0 1-307.52-126.976A431.808 431.808 0 0 1 64 393.6c0-116.352 45.12-225.6 126.976-307.52a431.808 431.808 0 0 1 307.52-126.976 431.808 431.808 0 0 1 307.456 126.976 431.808 431.808 0 0 1 127.04 307.52 431.808 431.808 0 0 1-127.04 307.52M733.184 563.328L625.536 377.408l-82.624 106.88a19.2 19.2 0 0 1-3.712 3.648l-3.84 2.24a19.2 19.2 0 0 1-23.04-6.144l-97.472-130.56-62.464 110.976a19.2 19.2 0 0 1-32.256 1.92l-128.384-176a32 32 0 0 1 22.4-50.752l5.696-0.064a32 32 0 0 1 23.68 13.056l87.232 119.68 62.144-110.208a19.2 19.2 0 0 1 5.248-5.952l3.84-2.24a19.2 19.2 0 0 1 23.04 6.144l103.296 138.56L615.744 285.44a19.2 19.2 0 0 1 31.808 2.112L788.48 531.2a32 32 0 0 1-55.296 32.192z"  horiz-adv-x="1024" />

    
    <glyph glyph-name="align_center" unicode="&#59062;" d="M497.472 217.60000000000002l-141.44 212.16-103.424-155.136a39.168 39.168 0 0 0-54.08-11.008l-0.704 0.448a39.168 39.168 0 0 0-11.008 54.592l154.432 229.376a17.728 17.728 0 0 0 29.44-0.064L515.2 331.264l179.136 241.088a39.168 39.168 0 1 0 62.72-46.784l-230.656-308.672a17.728 17.728 0 0 0-28.928 0.768m332.16 520.896H196.928A156.8 156.8 0 0 1 39.68 581.312v-393.984a156.8 156.8 0 0 1 157.248-157.248h630.848a156.8 156.8 0 0 1 157.248 157.248V581.312c1.856 85.248-68.224 157.248-155.392 157.248"  horiz-adv-x="1024" />

    
    <glyph glyph-name="approve" unicode="&#59063;" d="M368.576 393.728a31.232 31.232 0 0 1-46.08-42.176l104.064-113.536a31.232 31.232 0 0 1 46.08 0l228.864 249.728a31.232 31.232 0 0 1-46.08 42.24L449.664 305.28 368.576 393.728zM512 832a448 448 0 1 1 0-896A448 448 0 0 1 512 832m0-64c211.712 0 384-172.288 384-384s-172.288-384-384-384-384 172.288-384 384 172.288 384 384 384"  horiz-adv-x="1024" />

    
    <glyph glyph-name="align_left" unicode="&#59064;" d="M37.44 736c19.584 0 37.44-12.48 37.44-28.48v-647.424c0-16-16-28.48-37.44-28.48C16.064 33.408000000000015 0.064 45.888000000000034 0.064 61.888000000000034V707.52c0 16 16 28.48 37.376 28.48z m838.784 0c81.92 0 149.568-65.92 147.84-147.84v-406.976c0-81.92-65.92-147.84-147.84-147.84H283.2c-81.92 0-147.84 65.92-147.84 147.84v407.04c0 81.92 65.92 147.776 147.84 147.776z m-73.792-167.104a36.8 36.8 0 0 1-51.712-7.296L582.464 336.64l-134.4 201.6a18.304 18.304 0 0 1-30.464 0.064L273.728 324.736a36.8 36.8 0 0 1 10.304-51.328l0.64-0.384c16.96-11.136 39.68-6.528 50.88 10.368l97.28 145.792 131.648-197.504c7.04-10.496 22.272-10.88 29.888-0.832l215.296 286.592a36.8 36.8 0 0 1-7.232 51.456z"  horiz-adv-x="1024" />

    
    <glyph glyph-name="align_top" unicode="&#59065;" d="M811.264 644.864A149.504 149.504 0 0 0 960 496.128v-372.736a148.352 148.352 0 0 0-148.736-148.736H214.528a148.416 148.416 0 0 0-148.736 148.736V496.128a148.416 148.416 0 0 0 148.736 148.736zM735.36 496.832a37.12 37.12 0 0 1-52.224-7.36L513.792 263.168 377.6 467.52a17.28 17.28 0 0 1-28.672 0l-145.856-218.048a37.12 37.12 0 0 1 10.496-51.648l0.576-0.384a37.12 37.12 0 0 1 51.328 10.432L363.264 354.55999999999995l133.376-201.728a17.28 17.28 0 0 1 28.224-0.768l217.856 292.992a37.12 37.12 0 0 1-7.36 51.84zM922.368 793.6c21.504 0 37.632-16.128 37.632-37.632a37.824 37.824 0 0 0-37.632-37.632H101.632A36.736 36.736 0 0 0 64 755.968a39.04 39.04 0 0 0 37.632 37.632h820.736z"  horiz-adv-x="1024" />

    
    <glyph glyph-name="align_right" unicode="&#59066;" d="M986.88064 734.08c19.456 0 37.12-12.416 37.12-28.288v-643.2c0-15.936-15.936-28.288-37.12-28.288-21.248 1.728-37.12 14.08-37.12 30.08V705.7280000000001c0 15.872 15.872 28.288 37.12 28.288z m-251.136 0c81.28 0 148.544-65.472 146.752-146.816v-404.416a146.432 146.432 0 0 0-146.752-146.816H146.81664A146.432 146.432 0 0 0 0.00064 182.84799999999996v404.48A146.432 146.432 0 0 0 146.81664 734.08zM662.40064 568a36.544 36.544 0 0 1-51.328-7.232L443.90464 337.34400000000005 310.46464 537.472a18.304 18.304 0 0 1-30.336 0l-142.72-211.904a36.544 36.544 0 0 1 10.24-51.008l0.64-0.448c16.768-11.008 39.36-6.4 50.496 10.304l96.576 144.832 130.688-196.032c7.04-10.496 22.272-10.88 29.824-0.832l213.76 284.48a36.544 36.544 0 0 1-7.168 51.2z"  horiz-adv-x="1024" />

    
    <glyph glyph-name="back" unicode="&#59067;" d="M318.78976 640a36.096 36.096 0 0 1-25.472-11.008L79.55776 417.472A54.784 54.784 0 0 1 64.00576 378.368c0-15.168 5.504-29.12 15.552-39.168l213.76-213.76c14.592-14.528 37.376-14.72 50.304 1.6a37.056 37.056 0 0 1 11.712 26.24 36.096 36.096 0 0 1-11.008 25.472L181.12576 341.888h736.128c20.672 0 38.784 17.024 38.784 36.48a36.544 36.544 0 0 1-36.48 36.48H181.12576L344.32576 578.112a34.88 34.88 0 0 1 0 50.944A36.096 36.096 0 0 1 318.72576 640"  horiz-adv-x="1024" />

    
    <glyph glyph-name="axis_y" unicode="&#59068;" d="M888.957408 779.193763a43.903698 43.903698 0 0 1-30.719788 9.023938 40.639721 40.639721 0 0 1-27.967808-15.359894L617.407275 511.227605 404.800737 771.257818a40.76772 40.76772 0 0 1-28.159806 15.487893 43.519701 43.519701 0 0 1-30.719789-9.023938c-18.559872-14.143903-21.311853-38.911732-6.399956-57.599604l235.966378-288.958013v-406.973202a41.599714 41.599714 0 0 1 41.983711-41.023718 41.599714 41.599714 0 0 1 41.983711 41.023718V431.164156l237.246369 290.046006a36.607748 36.607748 0 0 1 9.023938 28.351805 42.623707 42.623707 0 0 1-16.767885 29.631796M265.217697 765.04986L200.002145 811.449541C187.58623 821.369473 170.11435 823.161461 153.282466 816.313508a40.575721 40.575721 0 0 1-25.279826-38.399736v-747.066864c0-23.423839 20.031862-42.431708 44.735692-42.431708 24.639831 0 44.671693 19.007869 44.671693 42.431708V693.498352a44.927691 44.927691 0 0 1 26.111821-4.863966 46.207682 46.207682 0 0 1 30.335791 16.895883c15.423894 18.87987 11.711919 44.479694-8.63994 59.519591"  horiz-adv-x="1024" />

    
    <glyph glyph-name="airplay" unicode="&#59069;" d="M789.376 479.552a38.848 38.848 0 0 1-38.784-38.784v-228.608a19.584 19.584 0 0 0-20.032-20.032h-600.96a19.584 19.584 0 0 0-20.032 20.032V633.472c0 11.392 8.64 20.032 20.032 20.032h408.256a38.848 38.848 0 0 1 0 77.568h-408.32C75.84 731.072 32 687.296 32 633.472v-421.312c0-52.928 43.776-96 97.6-96h597.696c52.928 0 97.28 41.984 100.864 96V440.768a38.848 38.848 0 0 1-38.784 38.784M763.648 542.08a38.848 38.848 0 0 1 77.568 0A203.968 203.968 0 0 1 637.44 745.664a38.848 38.848 0 0 1 0-77.568c69.632 0 126.208-56.576 126.208-126.08M791.552 64H67.392a35.84 35.84 0 0 1-35.392-36.928c0-20.032 16.192-36.928 35.392-36.928h724.16a35.84 35.84 0 0 1 35.392 36.928 35.84 35.84 0 0 1-35.392 36.928M624.384 879.68a38.848 38.848 0 0 1 0-77.568 273.472 273.472 0 0 0 273.152-273.152 38.848 38.848 0 0 1 77.568 0A351.104 351.104 0 0 1 624.384 879.68"  horiz-adv-x="1024" />

    
    <glyph glyph-name="app-manage" unicode="&#59070;" d="M385.728 532.928c0-19.328-15.168-34.496-34.496-34.496H199.488a34.176 34.176 0 0 0-34.56 34.56v151.68c0 19.328 15.232 34.56 34.56 34.56h151.744c19.328 0 34.56-15.232 34.56-34.56v-151.68zM351.232 788.16H199.488C142.912 788.16 96 741.248 96 684.672v-151.68c0-56.64 46.912-103.552 103.488-103.552h151.744c56.576 0 103.488 46.912 103.488 103.488V684.672C454.72 742.72 407.808 788.16 351.232 788.16zM385.728 99.712a34.176 34.176 0 0 0-34.496-34.496H199.488a34.176 34.176 0 0 0-34.56 34.56v151.68c0 19.392 15.232 34.56 34.56 34.56h151.744c19.328 0 34.56-15.168 34.56-34.56v-151.68zM351.232 354.944H199.488C142.912 354.944 96 308.096 96 251.52v-151.808C96 43.136 142.912-3.648 199.488-3.648h151.744c56.576 0 103.488 46.848 103.488 103.424V251.52c0 57.92-46.912 103.424-103.488 103.424zM836.928 586.752l-117.312-117.248c-13.76-13.824-35.84-13.824-48.256 0L554.048 586.752a33.216 33.216 0 0 0-9.6 24.832c0 9.664 4.096 17.92 9.6 24.832l117.312 115.904a33.28 33.28 0 0 0 24.832 9.664c9.6 0 17.92-2.752 24.832-9.664l117.248-117.248c11.072-12.416 11.072-34.56-1.344-48.32m48.256 97.92l-117.248 117.312a104.064 104.064 0 0 1-146.24 0L504.32 684.8a103.296 103.296 0 0 1 0-146.24L621.696 421.12a102.4 102.4 0 0 1 73.088-30.336 102.4 102.4 0 0 1 73.152 30.336l117.248 117.312a104.064 104.064 0 0 1 0 146.24M806.528 102.464a34.176 34.176 0 0 0-34.496-34.496H620.288a34.176 34.176 0 0 0-34.56 34.56v151.68c0 19.392 15.232 34.56 34.56 34.56h151.744c19.328 0 34.56-15.168 34.56-34.56v-151.68z m-34.496 255.232H620.288c-56.576 0-103.488-46.912-103.488-103.424V102.4c0-56.576 46.912-103.424 103.488-103.424h151.744c56.576 0 103.488 46.848 103.488 103.424v151.808c0 56.512-46.912 103.424-103.488 103.424z"  horiz-adv-x="1024" />

    
    <glyph glyph-name="app-apply" unicode="&#59071;" d="M827.072 571.776v-375.36l-325.056-186.944-324.992 186.88V573.312l324.992 186.944 325.12-188.416z m61.824 59.584L521.344 842.88c-12.8 6.4-27.328 6.4-40.32-0.128L115.84 631.68C103.616 625.6 96 612.032 96 596.032v-422.272c0-13.568 7.168-26.88 19.52-35.584l365.76-211.328c6.4-3.2 12.864-4.8 19.328-4.8 5.568 0 14.08 1.28 19.52 4.928l365.312 211.072c12.16 6.08 19.776 19.712 19.776 35.712l-0.128 421.44c2.944 13.312-3.072 26.88-16.192 36.224zM313.664 461.312l147.84-80.384v-170.88c0-22.72 17.792-40.512 40.512-40.512a40.064 40.064 0 0 1 40.512 40.512v170.88l147.968 80.448c19.84 11.52 27.008 36.288 16 55.104a42.688 42.688 0 0 1-24.32 19.52 38.144 38.144 0 0 1-30.592-3.392L502.016 452.096 352.64 532.48a38.208 38.208 0 0 1-30.72 3.456 42.688 42.688 0 0 1-24.32-19.52c-10.944-18.816-3.84-43.52 16.128-55.168"  horiz-adv-x="1024" />

    
    <glyph glyph-name="assembly-room" unicode="&#59072;" d="M902.67968 116.992A127.616 127.616 0 0 0 775.12768-10.496C706.07168-10.496 647.76768 47.936 647.76768 117.056S706.07168 244.416 775.19168 244.416c70.272 0 127.488-57.216 127.488-127.488M775.12768 292.992a176.256 176.256 0 0 1-176-176 176.256 176.256 0 0 1 176-176 176.256 176.256 0 0 1 176 176 176.256 176.256 0 0 1-176 176M784.34368 127.552v45.568a23.744 23.744 0 0 1-24.32 24.32 23.744 23.744 0 0 1-24.32-24.32v-69.824c0-13.824 10.496-24.32 24.32-24.32h97.152c13.824 0 24.32 10.496 24.32 24.32a23.744 23.744 0 0 1-24.32 24.32h-72.832zM519.89568 322.496a29.44 29.44 0 0 0-29.44-29.44H381.59168a29.44 29.44 0 0 0-29.44 29.44V431.36a29.44 29.44 0 0 0 29.44 29.504h108.8a29.44 29.44 0 0 0 29.568-29.44V322.496z m42.24-205.504a213.376 213.376 0 0 0 213.12 213.12c20.672 0 40.64-3.2 59.648-8.704-0.256 12.8-0.448 25.6-0.96 38.4 0 17.344 6.272 23.616 23.616 23.616 21.952 0 43.968-1.536 65.92 3.2 23.616 3.072 28.352 18.816 14.208 37.696-7.872 10.944-20.48 20.416-29.888 31.36C716.11968 625.472 610.83968 718.208 593.55968 733.952c-34.56 29.824-78.656 21.952-105.344 0C384.53568 641.152 279.25568 550.016 173.97568 457.28c-6.336-6.272-26.752-25.152-33.024-31.424-15.744-14.144-15.744-26.688-6.272-36.16 7.808-6.272 18.816-6.272 29.824-6.272 18.88 0 40.832 1.6 58.176 0 4.672 0 20.416-6.272 20.416-23.552V245.056c1.536-48.64-1.6-143.872 0-192.64 0-20.352 9.408-36.096 29.824-42.368l240.448-1.6h78.72a211.392 211.392 0 0 0-30.016 108.48zM455.57568 404.928h-39.104a8.448 8.448 0 0 1-8.448-8.448v-39.104c0-4.672 3.84-8.448 8.448-8.448h39.04a8.448 8.448 0 0 1 8.448 8.448v39.04a8.448 8.448 0 0 1-8.384 8.512"  horiz-adv-x="1024" />

    
    <glyph glyph-name="bpm" unicode="&#59073;" d="M871.808095 172.415812H684.608212a28.287982 28.287982 0 0 1-27.455983-27.519983V88.575865H189.568522V249.791764A34.879978 34.879978 0 0 1 149.248547 283.647743a36.095977 36.095977 0 0 1-28.991982-35.455978v-195.199878a35.839978 35.839978 0 0 1 35.519978-35.455978h503.167685v-61.311962c0-14.463991 12.927992-27.391983 27.391983-27.391983h187.135883a28.287982 28.287982 0 0 1 27.391983 27.391983V144.959829c-1.663999 14.527991-12.927992 27.391983-29.055982 27.391983M310.464446 588.479552a28.287982 28.287982 0 0 1 27.455983 27.391983v59.711963h470.911705v-161.279899c0-17.791989 11.327993-33.919979 29.055982-35.519978 20.927987-3.199998 40.319975 12.927992 40.319975 33.919979V711.039476a35.839978 35.839978 0 0 1-35.519978 35.455977H337.920429V804.607417A28.287982 28.287982 0 0 1 310.400446 831.9994H123.392563A27.199983 27.199983 0 0 1 96.00058 804.607417v-187.135883c0-14.463991 12.863992-27.391983 27.391983-27.391983h187.071883v-1.599999zM500.800327 286.847741a92.607942 92.607942 0 0 0-93.567942 93.567941c0 53.247967 41.983974 96.76794 93.567942 93.567942 53.247967 0 93.567942-41.983974 93.567942-93.567942 0-49.983969-40.319975-93.567942-93.567942-93.567941M673.344219 422.399656h-33.791979a105.471934 105.471934 0 0 1-14.591991 32.25598l25.855984 22.591986c6.399996 6.399996 6.399996 20.991987 0 27.391983l-27.391983 27.455982c-6.527996 6.399996-20.991987 6.399996-27.519982 0l-22.527986-25.791983c-11.263993 6.399996-25.791984 11.263993-32.25598 14.463991v33.919978c0 11.263993-11.263993 20.927987-22.527986 20.927987h-38.783976c-11.263993 0-22.527986-9.599994-22.527986-20.927987v-33.919978c-6.463996-1.599999-22.591986-6.399996-32.25598-14.463991l-24.191985 25.791983c-6.463996 6.399996-20.991987 6.399996-27.391982 0l-27.519983-27.455982c-6.399996-6.399996-6.399996-20.927987 0-27.391983l25.855984-22.591986c-6.399996-11.263993-11.263993-25.791984-14.463991-32.25598h-33.919979c-9.663994 0-17.727989-11.263993-17.727989-22.591986v-38.655976c0-11.327993 6.399996-22.591986 17.727989-22.591986h33.919979c1.535999-6.399996 6.399996-20.991987 14.463991-32.255979l-25.791984-22.591986c-6.399996-6.399996-6.399996-20.991987 0-27.391983l27.455983-27.455983c6.399996-6.399996 20.927987-6.399996 27.391982 0l22.527986 25.791984c11.327993-6.399996 25.855984-11.263993 32.25598-14.463991v-33.919979c0-11.263993 11.327993-20.927987 22.655986-20.927987h38.655976c11.263993 0 22.591986 9.663994 22.591986 20.927987v33.919979c6.399996 1.599999 22.591986 6.399996 32.25598 14.463991l22.591986-25.791984c6.399996-6.399996 20.991987-6.399996 27.391982 0l27.391983 27.455983c6.527996 6.399996 6.527996 20.927987 0 27.391983l-25.727984 22.591986c6.399996 11.263993 11.263993 25.791984 14.463991 32.255979h33.919979c9.599994 0 17.663989 11.263993 17.663989 22.591986v38.655976c1.663999 11.327993-4.799997 22.591986-16.12799 22.591986"  horiz-adv-x="1024" />

    
    <glyph glyph-name="app_store" unicode="&#59074;" d="M260.288 669.01333333c0 28.672 23.36 52.032 52.096 52.032h402.368c28.8 0 52.096-23.36 52.096-52.096v-574.848a52.16 52.16 0 0 0-52.096-52.096H312.384a52.16 52.16 0 0 0-52.096 52.096V668.94933333zM714.752 789.33333333H312.384C246.016 789.33333333 192 735.31733333 192 669.01333333v-574.912c0-66.368 54.016-120.32 120.32-120.32h402.432c66.368 0 120.384 53.952 120.384 120.32V668.94933333C835.2 735.31733333 781.12 789.33333333 714.88 789.33333333zM513.6 433.62133333c105.984 0 192.192 76.544 192.192 170.688a34.176 34.176 0 0 1-68.288 0c0-56.512-55.552-102.4-123.904-102.4s-123.968 45.888-123.968 102.4a34.176 34.176 0 0 1-68.288 0c0-94.08 86.208-170.688 192.256-170.688"  horiz-adv-x="1024" />

    
    <glyph glyph-name="center" unicode="&#59075;" d="M874.624 430.784H522.688l156.416 159.808a32.32 32.32 0 0 1 8.512 22.08c0 6.848-3.392 13.632-8.512 20.48a31.36 31.36 0 0 1-20.416 8.448 28.16 28.16 0 0 1-20.416-8.512L536.32 529.408V798.016a34.112 34.112 0 0 1-34.048 33.92 34.112 34.112 0 0 1-33.92-33.92v-266.88l-102.08 103.68a31.36 31.36 0 0 1-20.352 8.512 28.16 28.16 0 0 1-20.416-8.512 32.32 32.32 0 0 1-8.512-22.144c0-6.784 3.392-13.568 8.512-22.08L481.92 430.784H129.92A34.112 34.112 0 0 1 96 396.8c0-18.688 15.36-33.984 33.984-33.984h353.6l-1.664-1.728-156.416-159.808a32.32 32.32 0 0 1-8.512-22.08c0-6.784 3.392-13.568 8.512-20.416a31.36 31.36 0 0 1 20.416-8.512 28.16 28.16 0 0 1 20.352 8.512l102.016 103.68v-266.88c0-18.688 15.36-33.92 33.984-33.92a34.112 34.112 0 0 1 34.048 33.92v266.88l101.952-103.68a31.36 31.36 0 0 1 20.48-8.512 28.16 28.16 0 0 1 20.352 8.512 32.32 32.32 0 0 1 8.512 22.144c0 6.784-3.392 13.568-8.512 22.08L522.688 362.816l-1.664 1.664h353.6c18.688 0 33.984 15.36 33.984 34.048 0 18.688-15.36 32.256-33.984 32.256"  horiz-adv-x="1024" />

    
    <glyph glyph-name="camera" unicode="&#59076;" d="M950.08 216.448a34.176 34.176 0 0 0 1.664-46.336l-77.12-80.32a34.304 34.304 0 0 0-46.464-1.536 34.112 34.112 0 0 0-1.664 46.336l76.992 80.192 0.128 0.128a34.176 34.176 0 0 0 46.464 1.536zM473.6 753.408a30.336 30.336 0 0 0 22.144-10.304l429.184-418.176a34.88 34.88 0 0 0 10.368-25.856 30.4 30.4 0 0 0-10.304-22.144l-160.384-165.12a35.008 35.008 0 0 0-24.64-10.368h-1.28a30.4 30.4 0 0 0-22.08 10.304L535.36 288.512l-108.672-135.808-2.56-2.368a35.008 35.008 0 0 0-27.776-13.952H320l-1.92 83.84h52.736L472.96 347.392 287.424 528.384a34.88 34.88 0 0 0-10.368 25.856 30.336 30.336 0 0 0 10.24 22.08L447.808 743.04a34.944 34.944 0 0 0 25.856 10.368zM271.616 220.16v-85.312h-109.44a33.664 33.664 0 0 0-34.048 34.048v17.28c0 18.112 15.872 33.984 33.984 33.984h109.44z"  horiz-adv-x="1024" />

    
    <glyph glyph-name="check" unicode="&#59077;" d="M944.65792 754.048l-0.832 0.896a52.736 52.736 0 0 1-72.32-2.688l-509.12-557.44-209.28 227.968c-10.496 13.12-25.856 16.64-36.928 18.304l-1.92 0.128a47.168 47.168 0 0 1-34.624-13.952 51.52 51.52 0 0 1-15.616-34.56 50.56 50.56 0 0 1 13.568-35.84l248.064-271.04c8.96-10.048 22.656-15.808 37.568-15.808a49.92 49.92 0 0 1 37.504 15.68l545.28 596.224a51.2 51.2 0 0 1 14.08 36.224c0 15.04-7.808 26.56-15.36 35.84"  horiz-adv-x="1024" />

    
    <glyph glyph-name="approve1" unicode="&#59078;" d="M936.81066667 470.784c-4.608 13.824-15.36 15.36-27.648 15.36-55.36 0-110.72-6.144-166.08-20.032-67.712-15.36-132.288-40-190.72-80-38.464-26.112-69.248-59.904-84.608-104.512a213.888 213.888 0 0 1-9.216-116.928c9.216 13.824 16.896 23.04 23.04 32.32 36.928 50.752 81.536 95.36 136.896 121.472 16.896 6.144 35.392 10.816 52.288 13.888 12.288 1.536 23.04-9.216 23.04-23.04 0-13.888-7.68-26.24-21.504-27.712-26.112-1.536-47.68-13.888-69.184-29.248C547.75466667 212.35199999999998 504.68266667 163.13599999999997 475.43466667 100.096c-4.608-9.216-12.288-23.04-16.896-53.824-1.536-4.608 1.536-10.752 3.072-13.824 3.072-10.816 16.896-16.96 26.112-13.888 10.816 3.072 18.496 23.04 26.176 43.072 10.752-7.68 21.504-13.824 32.256-19.968 33.92-15.36 69.248-18.496 106.176-13.824 75.328 9.216 136.896 43.008 173.76 116.864 6.144 13.824 15.36 29.248 18.496 44.608 12.288 47.68 23.04 96.896 35.328 144.576 9.28 39.936 18.496 78.4 46.144 107.648 10.752 6.144 15.36 15.36 10.752 29.248M397.03466667 338.496a30.848 30.848 0 0 0-61.504 0v278.4c0 16.896 13.824 30.72 30.72 30.72 16.96 0 30.784-13.824 30.784-30.72v-278.4z m-119.936 0c0-16.96-13.888-30.72-30.72-30.72a30.848 30.848 0 0 0-30.784 30.72V523.008c0 16.96 13.824 30.784 30.72 30.784s30.72-13.824 30.72-30.72v-184.576z m150.72-163.072a224.128 224.128 0 0 0 9.216 127.68c4.608 13.824 10.752 26.176 18.432 38.4l1.6 1.6V573.76c0 16.896 13.824 30.72 30.72 30.72s30.72-13.824 30.72-30.72v-167.68c3.136 3.072 6.208 4.608 9.28 7.68 13.824 9.216 27.648 16.896 41.536 24.64l7.68 4.608V644.544c0 16.896 13.824 30.72 30.72 30.72 16.96 0 30.784-13.824 30.784-30.72v-172.288c26.176 9.28 53.824 18.496 84.608 26.176a842.88 842.88 0 0 0 106.112 16.896V703.04c0 27.712-19.968 50.752-46.144 50.752H186.34666667C160.17066667 753.7280000000001 138.66666667 730.688 138.66666667 703.04v-495.232c0-26.112 21.504-49.216 47.68-49.216H432.42666667l-4.608 16.896zM263.21066667 66.24000000000001v-9.216c0-20.032 16.96-35.392 38.464-35.392h121.536c0 24.576 6.144 52.288 16.896 80H300.13866667a36.16 36.16 0 0 1-36.928-35.392"  horiz-adv-x="1024" />

    
    </font>
</defs>
</svg>
